{"glyphs":{"0":{"ha":961,"x_min":40,"x_max":921,"o":"m 481 -22 q 252 38 351 -22 q 97 211 153 97 q 40 486 40 325 q 97 761 40 647 q 252 935 153 875 q 481 994 351 994 q 709 935 610 994 q 865 761 808 875 q 921 486 921 647 q 865 211 921 325 q 709 38 808 97 q 481 -22 610 -22 m 481 240 q 538 263 513 240 q 577 339 563 285 q 592 486 592 393 q 577 634 592 581 q 538 710 563 688 q 481 732 513 732 q 424 710 449 732 q 384 634 399 688 q 369 486 369 581 q 384 339 369 393 q 424 263 399 285 q 481 240 449 240 z "},"1":{"ha":581,"x_min":7,"x_max":501,"o":"m 174 0 l 174 858 l 314 725 l 7 725 l 7 972 l 501 972 l 501 0 l 174 0 z "},"2":{"ha":844,"x_min":-18,"x_max":818,"o":"m 39 0 l 39 201 l 390 526 q 440 582 424 558 q 461 624 456 606 q 467 660 467 643 q 443 716 467 696 q 372 736 419 736 q 290 713 329 736 q 229 646 251 690 l -18 769 q 140 932 35 869 q 403 994 246 994 q 607 957 518 994 q 746 851 696 919 q 796 690 796 783 q 784 596 796 643 q 736 497 772 549 q 629 381 700 444 l 365 140 l 314 254 l 818 254 l 818 0 l 39 0 z "},"3":{"ha":853,"x_min":-8,"x_max":819,"o":"m 375 -22 q 172 0 275 -22 q -8 65 69 22 l 103 307 q 234 253 165 271 q 364 236 303 236 q 455 255 419 236 q 490 311 490 274 q 464 360 490 343 q 375 378 438 378 l 246 378 l 246 579 l 497 835 l 526 725 l 42 725 l 42 972 l 767 972 l 767 771 l 515 515 l 358 604 l 444 604 q 724 522 628 604 q 819 311 819 440 q 773 151 819 228 q 628 26 726 75 q 375 -22 531 -22 z "},"4":{"ha":989,"x_min":32,"x_max":983,"o":"m 32 167 l 32 375 l 444 972 l 781 972 l 383 375 l 231 421 l 983 421 l 983 167 l 32 167 m 536 0 l 536 167 l 546 421 l 546 569 l 854 569 l 854 0 l 536 0 z "},"5":{"ha":860,"x_min":7,"x_max":835,"o":"m 390 -22 q 188 0 290 -22 q 7 65 85 22 l 118 307 q 249 253 181 271 q 378 236 317 236 q 469 256 433 236 q 506 313 506 275 q 493 349 506 333 q 449 374 481 365 q 358 382 418 382 l 76 382 l 125 972 l 771 972 l 771 725 l 240 725 l 406 865 l 376 489 l 211 629 l 438 629 q 669 588 582 629 q 795 476 756 546 q 835 319 835 406 q 788 155 835 233 q 644 27 742 76 q 390 -22 546 -22 z "},"6":{"ha":918,"x_min":40,"x_max":901,"o":"m 507 -22 q 263 31 368 -22 q 99 191 158 85 q 40 456 40 297 q 108 747 40 626 q 298 931 176 867 q 579 994 419 994 q 745 974 665 994 q 881 918 825 954 l 763 689 q 676 730 719 719 q 586 740 632 740 q 428 681 488 740 q 369 510 369 622 q 369 469 369 489 q 369 428 369 449 l 294 482 q 360 562 322 529 q 449 612 397 594 q 568 629 500 629 q 733 591 657 629 q 855 483 808 553 q 901 318 901 414 q 849 138 901 214 q 706 19 796 61 q 507 -22 617 -22 m 485 204 q 537 216 514 204 q 572 250 560 228 q 585 303 585 272 q 557 376 585 349 q 485 403 529 403 q 433 390 456 403 q 398 356 411 378 q 385 303 385 333 q 398 250 385 272 q 433 216 411 228 q 485 204 456 204 z "},"7":{"ha":896,"x_min":29,"x_max":861,"o":"m 179 0 l 546 856 l 633 718 l 172 718 l 300 867 l 300 576 l 29 576 l 29 972 l 861 972 l 861 771 l 538 0 l 179 0 z "},"8":{"ha":942,"x_min":35,"x_max":907,"o":"m 471 -22 q 244 16 342 -22 q 90 124 146 54 q 35 289 35 194 q 92 450 35 383 q 247 551 149 517 q 471 586 346 586 q 694 551 596 586 q 850 450 793 517 q 907 289 907 383 q 851 124 907 194 q 698 16 796 54 q 471 -22 600 -22 m 471 199 q 548 226 518 199 q 578 300 578 253 q 548 374 578 347 q 471 401 518 401 q 394 374 424 401 q 364 300 364 347 q 394 226 364 253 q 471 199 424 199 m 471 428 q 266 460 357 428 q 122 555 175 493 q 69 704 69 617 q 121 858 69 793 q 263 958 172 922 q 471 994 353 994 q 679 958 589 994 q 821 858 769 922 q 872 704 872 793 q 819 555 872 617 q 676 460 767 493 q 471 428 586 428 m 471 607 q 526 629 504 607 q 549 690 549 651 q 526 752 549 731 q 471 774 504 774 q 415 752 438 774 q 393 690 393 731 q 415 629 393 651 q 471 607 438 607 z "},"9":{"ha":918,"x_min":17,"x_max":878,"o":"m 411 994 q 655 941 550 994 q 819 782 760 888 q 878 517 878 676 q 810 226 878 346 q 621 42 742 106 q 339 -22 500 -22 q 173 -2 253 -22 q 38 54 93 18 l 156 283 q 242 242 199 253 q 332 232 286 232 q 490 291 431 232 q 549 463 549 350 q 549 503 549 483 q 549 544 549 524 l 624 490 q 559 410 597 443 q 469 360 521 378 q 350 343 418 343 q 185 381 261 343 q 63 490 110 419 q 17 654 17 560 q 69 835 17 758 q 212 953 122 911 q 411 994 301 994 m 433 768 q 382 756 404 768 q 347 722 360 744 q 333 669 333 700 q 362 597 333 624 q 433 569 390 569 q 485 582 463 569 q 521 617 508 594 q 533 669 533 639 q 521 722 533 700 q 485 756 508 744 q 433 768 463 768 z "},"A":{"ha":1119,"x_min":-26,"x_max":1146,"o":"m -26 0 l 399 972 l 721 972 l 1146 0 l 807 0 l 493 817 l 621 817 l 307 0 l -26 0 m 226 169 l 310 406 l 757 406 l 840 169 l 226 169 z "},"Á":{"ha":1119,"x_min":-26,"x_max":1146,"o":"m -26 0 l 399 972 l 721 972 l 1146 0 l 807 0 l 493 817 l 621 817 l 307 0 l -26 0 m 226 169 l 310 406 l 757 406 l 840 169 l 226 169 z "},"Ă":{"ha":1119,"x_min":-26,"x_max":1146,"o":"m -26 0 l 399 972 l 721 972 l 1146 0 l 807 0 l 493 817 l 621 817 l 307 0 l -26 0 m 226 169 l 310 406 l 757 406 l 840 169 l 226 169 z "},"Ắ":{"ha":1119,"x_min":-26,"x_max":1146,"o":"m -26 0 l 399 972 l 721 972 l 1146 0 l 807 0 l 493 817 l 621 817 l 307 0 l -26 0 m 226 169 l 310 406 l 757 406 l 840 169 l 226 169 z "},"Ặ":{"ha":1119,"x_min":-26,"x_max":1146,"o":"m -26 0 l 399 972 l 721 972 l 1146 0 l 807 0 l 493 817 l 621 817 l 307 0 l -26 0 m 226 169 l 310 406 l 757 406 l 840 169 l 226 169 m 560 -314 q 471 -281 507 -314 q 435 -193 435 -249 q 471 -103 435 -137 q 560 -69 507 -69 q 649 -103 613 -69 q 685 -193 685 -137 q 649 -281 685 -249 q 560 -314 613 -314 z "},"Ằ":{"ha":1119,"x_min":-26,"x_max":1146,"o":"m -26 0 l 399 972 l 721 972 l 1146 0 l 807 0 l 493 817 l 621 817 l 307 0 l -26 0 m 226 169 l 310 406 l 757 406 l 840 169 l 226 169 z "},"Ẳ":{"ha":1119,"x_min":-26,"x_max":1146,"o":"m -26 0 l 399 972 l 721 972 l 1146 0 l 807 0 l 493 817 l 621 817 l 307 0 l -26 0 m 226 169 l 310 406 l 757 406 l 840 169 l 226 169 z "},"Ẵ":{"ha":1119,"x_min":-26,"x_max":1146,"o":"m -26 0 l 399 972 l 721 972 l 1146 0 l 807 0 l 493 817 l 621 817 l 307 0 l -26 0 m 226 169 l 310 406 l 757 406 l 840 169 l 226 169 z "},"Ǎ":{"ha":1119,"x_min":-26,"x_max":1146,"o":"m -26 0 l 399 972 l 721 972 l 1146 0 l 807 0 l 493 817 l 621 817 l 307 0 l -26 0 m 226 169 l 310 406 l 757 406 l 840 169 l 226 169 z "},"Â":{"ha":1119,"x_min":-26,"x_max":1146,"o":"m -26 0 l 399 972 l 721 972 l 1146 0 l 807 0 l 493 817 l 621 817 l 307 0 l -26 0 m 226 169 l 310 406 l 757 406 l 840 169 l 226 169 z "},"Ấ":{"ha":1119,"x_min":-26,"x_max":1201,"o":"m -26 0 l 399 972 l 721 972 l 1146 0 l 807 0 l 493 817 l 621 817 l 307 0 l -26 0 m 226 169 l 310 406 l 757 406 l 840 169 l 226 169 z "},"Ậ":{"ha":1119,"x_min":-26,"x_max":1146,"o":"m -26 0 l 399 972 l 721 972 l 1146 0 l 807 0 l 493 817 l 621 817 l 307 0 l -26 0 m 226 169 l 310 406 l 757 406 l 840 169 l 226 169 m 560 -314 q 471 -281 507 -314 q 435 -193 435 -249 q 471 -103 435 -137 q 560 -69 507 -69 q 649 -103 613 -69 q 685 -193 685 -137 q 649 -281 685 -249 q 560 -314 613 -314 z "},"Ầ":{"ha":1119,"x_min":-26,"x_max":1146,"o":"m -26 0 l 399 972 l 721 972 l 1146 0 l 807 0 l 493 817 l 621 817 l 307 0 l -26 0 m 226 169 l 310 406 l 757 406 l 840 169 l 226 169 z "},"Ẩ":{"ha":1119,"x_min":-26,"x_max":1146,"o":"m -26 0 l 399 972 l 721 972 l 1146 0 l 807 0 l 493 817 l 621 817 l 307 0 l -26 0 m 226 169 l 310 406 l 757 406 l 840 169 l 226 169 z "},"Ẫ":{"ha":1119,"x_min":-26,"x_max":1146,"o":"m -26 0 l 399 972 l 721 972 l 1146 0 l 807 0 l 493 817 l 621 817 l 307 0 l -26 0 m 226 169 l 310 406 l 757 406 l 840 169 l 226 169 z "},"Ȁ":{"ha":1119,"x_min":-26,"x_max":1146,"o":"m -26 0 l 399 972 l 721 972 l 1146 0 l 807 0 l 493 817 l 621 817 l 307 0 l -26 0 m 226 169 l 310 406 l 757 406 l 840 169 l 226 169 z "},"Ä":{"ha":1119,"x_min":-26,"x_max":1146,"o":"m -26 0 l 399 972 l 721 972 l 1146 0 l 807 0 l 493 817 l 621 817 l 307 0 l -26 0 m 226 169 l 310 406 l 757 406 l 840 169 l 226 169 z "},"Ạ":{"ha":1119,"x_min":-26,"x_max":1146,"o":"m -26 0 l 399 972 l 721 972 l 1146 0 l 807 0 l 493 817 l 621 817 l 307 0 l -26 0 m 226 169 l 310 406 l 757 406 l 840 169 l 226 169 m 560 -314 q 471 -281 507 -314 q 435 -193 435 -249 q 471 -103 435 -137 q 560 -69 507 -69 q 649 -103 613 -69 q 685 -193 685 -137 q 649 -281 685 -249 q 560 -314 613 -314 z "},"À":{"ha":1119,"x_min":-26,"x_max":1146,"o":"m -26 0 l 399 972 l 721 972 l 1146 0 l 807 0 l 493 817 l 621 817 l 307 0 l -26 0 m 226 169 l 310 406 l 757 406 l 840 169 l 226 169 z "},"Ả":{"ha":1119,"x_min":-26,"x_max":1146,"o":"m -26 0 l 399 972 l 721 972 l 1146 0 l 807 0 l 493 817 l 621 817 l 307 0 l -26 0 m 226 169 l 310 406 l 757 406 l 840 169 l 226 169 z "},"Ȃ":{"ha":1119,"x_min":-26,"x_max":1146,"o":"m -26 0 l 399 972 l 721 972 l 1146 0 l 807 0 l 493 817 l 621 817 l 307 0 l -26 0 m 226 169 l 310 406 l 757 406 l 840 169 l 226 169 z "},"Ā":{"ha":1119,"x_min":-26,"x_max":1146,"o":"m -26 0 l 399 972 l 721 972 l 1146 0 l 807 0 l 493 817 l 621 817 l 307 0 l -26 0 m 226 169 l 310 406 l 757 406 l 840 169 l 226 169 z "},"Ą":{"ha":1119,"x_min":-26,"x_max":1181,"o":"m -26 0 l 399 972 l 721 972 l 1146 0 l 807 0 l 493 817 l 621 817 l 307 0 l -26 0 m 226 169 l 310 406 l 757 406 l 840 169 l 226 169 m 1024 -333 q 862 -287 919 -333 q 804 -162 804 -240 q 831 -67 804 -111 q 910 11 858 -24 q 1036 68 963 46 l 1146 0 q 1051 -49 1086 -26 q 1002 -92 1017 -71 q 988 -135 988 -112 q 1005 -175 988 -158 q 1061 -192 1022 -192 q 1106 -185 1085 -192 q 1143 -172 1128 -179 l 1181 -301 q 1112 -324 1156 -315 q 1024 -333 1068 -333 z "},"Å":{"ha":1119,"x_min":-26,"x_max":1146,"o":"m -26 0 l 399 972 l 721 972 l 1146 0 l 807 0 l 493 817 l 621 817 l 307 0 l -26 0 m 226 169 l 310 406 l 757 406 l 840 169 l 226 169 m 560 1032 q 461 1057 506 1032 q 391 1124 417 1082 q 365 1218 365 1167 q 391 1313 365 1271 q 461 1379 417 1354 q 560 1404 506 1404 q 659 1379 615 1404 q 728 1313 703 1354 q 754 1218 754 1271 q 728 1124 754 1167 q 659 1057 703 1082 q 560 1032 615 1032 m 560 1143 q 613 1164 592 1143 q 635 1218 635 1185 q 613 1272 635 1251 q 560 1293 592 1293 q 507 1272 529 1293 q 485 1218 485 1251 q 507 1164 485 1185 q 560 1143 529 1143 z "},"Ǻ":{"ha":1119,"x_min":-26,"x_max":1146,"o":"m -26 0 l 399 972 l 721 972 l 1146 0 l 807 0 l 493 817 l 621 817 l 307 0 l -26 0 m 226 169 l 310 406 l 757 406 l 840 169 l 226 169 m 560 1032 q 461 1057 506 1032 q 391 1124 417 1082 q 365 1218 365 1167 q 391 1313 365 1271 q 461 1379 417 1354 q 560 1404 506 1404 q 659 1379 615 1404 q 728 1313 703 1354 q 754 1218 754 1271 q 728 1124 754 1167 q 659 1057 703 1082 q 560 1032 615 1032 m 560 1143 q 613 1164 592 1143 q 635 1218 635 1185 q 613 1272 635 1251 q 560 1293 592 1293 q 507 1272 529 1293 q 485 1218 485 1251 q 507 1164 485 1185 q 560 1143 529 1143 m 706 1288 l 564 1331 l 753 1529 l 904 1417 l 706 1288 z "},"Ã":{"ha":1119,"x_min":-26,"x_max":1146,"o":"m -26 0 l 399 972 l 721 972 l 1146 0 l 807 0 l 493 817 l 621 817 l 307 0 l -26 0 m 226 169 l 310 406 l 757 406 l 840 169 l 226 169 z "},"Æ":{"ha":1554,"x_min":-26,"x_max":1507,"o":"m -26 0 l 486 972 l 811 972 l 811 725 l 535 725 l 732 856 l 307 0 l -26 0 m 304 169 l 304 406 l 811 406 l 811 169 l 304 169 m 999 611 l 1432 611 l 1432 375 l 999 375 l 999 611 m 1021 247 l 1507 247 l 1507 0 l 699 0 l 699 972 l 1489 972 l 1489 725 l 1021 725 l 1021 247 z "},"Ǽ":{"ha":1554,"x_min":-26,"x_max":1507,"o":"m -26 0 l 486 972 l 811 972 l 811 725 l 535 725 l 732 856 l 307 0 l -26 0 m 304 169 l 304 406 l 811 406 l 811 169 l 304 169 m 999 611 l 1432 611 l 1432 375 l 999 375 l 999 611 m 1021 247 l 1507 247 l 1507 0 l 699 0 l 699 972 l 1489 972 l 1489 725 l 1021 725 l 1021 247 z "},"B":{"ha":1074,"x_min":79,"x_max":1038,"o":"m 79 0 l 79 972 l 599 972 q 896 901 800 972 q 992 718 992 829 q 951 587 992 644 q 832 496 910 529 q 640 463 754 463 l 668 538 q 865 506 782 538 q 992 413 947 474 q 1038 268 1038 353 q 933 71 1038 142 q 626 0 828 0 l 79 0 m 401 229 l 599 229 q 680 249 653 229 q 707 306 707 268 q 680 363 707 343 q 599 382 653 382 l 379 382 l 379 599 l 554 599 q 635 617 610 599 q 661 671 661 636 q 635 725 661 707 q 554 743 610 743 l 401 743 l 401 229 z "},"C":{"ha":1033,"x_min":40,"x_max":1018,"o":"m 582 -22 q 366 15 465 -22 q 194 119 267 51 q 81 281 121 188 q 40 486 40 374 q 81 692 40 599 q 194 853 121 785 q 366 958 267 921 q 582 994 465 994 q 835 944 725 994 q 1018 800 946 894 l 811 615 q 716 699 768 669 q 599 729 664 729 q 506 713 547 729 q 434 664 464 696 q 388 587 404 632 q 371 486 371 542 q 388 385 371 431 q 434 308 404 340 q 506 260 464 276 q 599 243 547 243 q 716 273 664 243 q 811 357 768 303 l 1018 172 q 835 28 946 79 q 582 -22 725 -22 z "},"Ć":{"ha":1033,"x_min":40,"x_max":1018,"o":"m 582 -22 q 366 15 465 -22 q 194 119 267 51 q 81 281 121 188 q 40 486 40 374 q 81 692 40 599 q 194 853 121 785 q 366 958 267 921 q 582 994 465 994 q 835 944 725 994 q 1018 800 946 894 l 811 615 q 716 699 768 669 q 599 729 664 729 q 506 713 547 729 q 434 664 464 696 q 388 587 404 632 q 371 486 371 542 q 388 385 371 431 q 434 308 404 340 q 506 260 464 276 q 599 243 547 243 q 716 273 664 243 q 811 357 768 303 l 1018 172 q 835 28 946 79 q 582 -22 725 -22 z "},"Č":{"ha":1033,"x_min":40,"x_max":1018,"o":"m 582 -22 q 366 15 465 -22 q 194 119 267 51 q 81 281 121 188 q 40 486 40 374 q 81 692 40 599 q 194 853 121 785 q 366 958 267 921 q 582 994 465 994 q 835 944 725 994 q 1018 800 946 894 l 811 615 q 716 699 768 669 q 599 729 664 729 q 506 713 547 729 q 434 664 464 696 q 388 587 404 632 q 371 486 371 542 q 388 385 371 431 q 434 308 404 340 q 506 260 464 276 q 599 243 547 243 q 716 273 664 243 q 811 357 768 303 l 1018 172 q 835 28 946 79 q 582 -22 725 -22 z "},"Ç":{"ha":1033,"x_min":40,"x_max":1018,"o":"m 582 -22 q 366 15 465 -22 q 194 119 267 51 q 81 281 121 188 q 40 486 40 374 q 81 692 40 599 q 194 853 121 785 q 366 958 267 921 q 582 994 465 994 q 835 944 725 994 q 1018 800 946 894 l 811 615 q 716 699 768 669 q 599 729 664 729 q 506 713 547 729 q 434 664 464 696 q 388 587 404 632 q 371 486 371 542 q 388 385 371 431 q 434 308 404 340 q 506 260 464 276 q 599 243 547 243 q 716 273 664 243 q 811 357 768 303 l 1018 172 q 835 28 946 79 q 582 -22 725 -22 m 488 -333 q 414 -325 453 -333 q 351 -304 375 -317 l 390 -189 q 427 -200 406 -194 q 474 -206 449 -206 q 525 -196 510 -206 q 540 -172 540 -186 q 527 -152 540 -160 q 483 -144 514 -144 l 426 -144 l 464 14 l 625 14 l 606 -72 q 697 -114 671 -81 q 724 -183 724 -147 q 659 -293 724 -253 q 488 -333 594 -333 z "},"Ḉ":{"ha":1033,"x_min":40,"x_max":1018,"o":"m 582 -22 q 366 15 465 -22 q 194 119 267 51 q 81 281 121 188 q 40 486 40 374 q 81 692 40 599 q 194 853 121 785 q 366 958 267 921 q 582 994 465 994 q 835 944 725 994 q 1018 800 946 894 l 811 615 q 716 699 768 669 q 599 729 664 729 q 506 713 547 729 q 434 664 464 696 q 388 587 404 632 q 371 486 371 542 q 388 385 371 431 q 434 308 404 340 q 506 260 464 276 q 599 243 547 243 q 716 273 664 243 q 811 357 768 303 l 1018 172 q 835 28 946 79 q 582 -22 725 -22 m 488 -333 q 414 -325 453 -333 q 351 -304 375 -317 l 390 -189 q 427 -200 406 -194 q 474 -206 449 -206 q 525 -196 510 -206 q 540 -172 540 -186 q 527 -152 540 -160 q 483 -144 514 -144 l 426 -144 l 464 14 l 625 14 l 606 -72 q 697 -114 671 -81 q 724 -183 724 -147 q 659 -293 724 -253 q 488 -333 594 -333 z "},"Ĉ":{"ha":1033,"x_min":40,"x_max":1018,"o":"m 582 -22 q 366 15 465 -22 q 194 119 267 51 q 81 281 121 188 q 40 486 40 374 q 81 692 40 599 q 194 853 121 785 q 366 958 267 921 q 582 994 465 994 q 835 944 725 994 q 1018 800 946 894 l 811 615 q 716 699 768 669 q 599 729 664 729 q 506 713 547 729 q 434 664 464 696 q 388 587 404 632 q 371 486 371 542 q 388 385 371 431 q 434 308 404 340 q 506 260 464 276 q 599 243 547 243 q 716 273 664 243 q 811 357 768 303 l 1018 172 q 835 28 946 79 q 582 -22 725 -22 z "},"Ċ":{"ha":1033,"x_min":40,"x_max":1018,"o":"m 582 -22 q 366 15 465 -22 q 194 119 267 51 q 81 281 121 188 q 40 486 40 374 q 81 692 40 599 q 194 853 121 785 q 366 958 267 921 q 582 994 465 994 q 835 944 725 994 q 1018 800 946 894 l 811 615 q 716 699 768 669 q 599 729 664 729 q 506 713 547 729 q 434 664 464 696 q 388 587 404 632 q 371 486 371 542 q 388 385 371 431 q 434 308 404 340 q 506 260 464 276 q 599 243 547 243 q 716 273 664 243 q 811 357 768 303 l 1018 172 q 835 28 946 79 q 582 -22 725 -22 z "},"D":{"ha":1147,"x_min":79,"x_max":1107,"o":"m 79 0 l 79 972 l 558 972 q 844 913 721 972 q 1038 746 968 854 q 1107 488 1107 638 q 1038 227 1107 336 q 844 59 968 118 q 558 0 721 0 l 79 0 m 407 256 l 544 256 q 666 282 614 256 q 747 360 718 308 q 776 488 776 413 q 747 613 776 561 q 666 690 718 664 q 544 717 614 717 l 407 717 l 407 256 z "},"Ǆ":{"ha":2003,"x_min":79,"x_max":1992,"o":"m 79 0 l 79 972 l 558 972 q 844 913 721 972 q 1038 746 968 854 q 1107 488 1107 638 q 1038 227 1107 336 q 844 59 968 118 q 558 0 721 0 l 79 0 m 407 256 l 544 256 q 666 282 614 256 q 747 360 718 308 q 776 488 776 413 q 747 613 776 561 q 666 690 718 664 q 544 717 614 717 l 407 717 l 407 256 z "},"Ð":{"ha":1175,"x_min":-12,"x_max":1135,"o":"m 107 0 l 107 972 l 586 972 q 872 913 749 972 q 1065 746 996 854 q 1135 488 1135 638 q 1065 227 1135 336 q 872 59 996 118 q 586 0 749 0 l 107 0 m 435 256 l 572 256 q 694 282 642 256 q 775 360 746 308 q 804 488 804 413 q 775 613 804 561 q 694 690 746 664 q 572 717 642 717 l 435 717 l 435 256 m -12 399 l -12 588 l 640 588 l 640 399 l -12 399 z "},"Ď":{"ha":1147,"x_min":79,"x_max":1107,"o":"m 79 0 l 79 972 l 558 972 q 844 913 721 972 q 1038 746 968 854 q 1107 488 1107 638 q 1038 227 1107 336 q 844 59 968 118 q 558 0 721 0 l 79 0 m 407 256 l 544 256 q 666 282 614 256 q 747 360 718 308 q 776 488 776 413 q 747 613 776 561 q 666 690 718 664 q 544 717 614 717 l 407 717 l 407 256 z "},"Đ":{"ha":1175,"x_min":-12,"x_max":1135,"o":"m 107 0 l 107 972 l 586 972 q 872 913 749 972 q 1065 746 996 854 q 1135 488 1135 638 q 1065 227 1135 336 q 872 59 996 118 q 586 0 749 0 l 107 0 m 435 256 l 572 256 q 694 282 642 256 q 775 360 746 308 q 804 488 804 413 q 775 613 804 561 q 694 690 746 664 q 572 717 642 717 l 435 717 l 435 256 m -12 399 l -12 588 l 640 588 l 640 399 l -12 399 z "},"Ḍ":{"ha":1147,"x_min":79,"x_max":1107,"o":"m 79 0 l 79 972 l 558 972 q 844 913 721 972 q 1038 746 968 854 q 1107 488 1107 638 q 1038 227 1107 336 q 844 59 968 118 q 558 0 721 0 l 79 0 m 407 256 l 544 256 q 666 282 614 256 q 747 360 718 308 q 776 488 776 413 q 747 613 776 561 q 666 690 718 664 q 544 717 614 717 l 407 717 l 407 256 m 501 -314 q 413 -281 449 -314 q 376 -193 376 -249 q 413 -103 376 -137 q 501 -69 449 -69 q 590 -103 554 -69 q 626 -193 626 -137 q 590 -281 626 -249 q 501 -314 554 -314 z "},"Ḏ":{"ha":1147,"x_min":79,"x_max":1107,"o":"m 79 0 l 79 972 l 558 972 q 844 913 721 972 q 1038 746 968 854 q 1107 488 1107 638 q 1038 227 1107 336 q 844 59 968 118 q 558 0 721 0 l 79 0 m 407 256 l 544 256 q 666 282 614 256 q 747 360 718 308 q 776 488 776 413 q 747 613 776 561 q 666 690 718 664 q 544 717 614 717 l 407 717 l 407 256 m 210 -267 l 210 -103 l 793 -103 l 793 -267 l 210 -267 z "},"ǅ":{"ha":1939,"x_min":79,"x_max":1914,"o":"m 79 0 l 79 972 l 558 972 q 844 913 721 972 q 1038 746 968 854 q 1107 488 1107 638 q 1038 227 1107 336 q 844 59 968 118 q 558 0 721 0 l 79 0 m 407 256 l 544 256 q 666 282 614 256 q 747 360 718 308 q 776 488 776 413 q 747 613 776 561 q 666 690 718 664 q 544 717 614 717 l 407 717 l 407 256 z "},"E":{"ha":935,"x_min":79,"x_max":888,"o":"m 379 611 l 813 611 l 813 375 l 379 375 l 379 611 m 401 247 l 888 247 l 888 0 l 79 0 l 79 972 l 869 972 l 869 725 l 401 725 l 401 247 z "},"É":{"ha":935,"x_min":79,"x_max":888,"o":"m 379 611 l 813 611 l 813 375 l 379 375 l 379 611 m 401 247 l 888 247 l 888 0 l 79 0 l 79 972 l 869 972 l 869 725 l 401 725 l 401 247 z "},"Ĕ":{"ha":935,"x_min":79,"x_max":888,"o":"m 379 611 l 813 611 l 813 375 l 379 375 l 379 611 m 401 247 l 888 247 l 888 0 l 79 0 l 79 972 l 869 972 l 869 725 l 401 725 l 401 247 z "},"Ě":{"ha":935,"x_min":79,"x_max":888,"o":"m 379 611 l 813 611 l 813 375 l 379 375 l 379 611 m 401 247 l 888 247 l 888 0 l 79 0 l 79 972 l 869 972 l 869 725 l 401 725 l 401 247 z "},"Ḝ":{"ha":935,"x_min":79,"x_max":888,"o":"m 379 611 l 813 611 l 813 375 l 379 375 l 379 611 m 401 247 l 888 247 l 888 0 l 79 0 l 79 972 l 869 972 l 869 725 l 401 725 l 401 247 m 418 -333 q 344 -325 383 -333 q 282 -304 306 -317 l 321 -189 q 358 -200 336 -194 q 404 -206 379 -206 q 456 -196 440 -206 q 471 -172 471 -186 q 458 -152 471 -160 q 414 -144 444 -144 l 357 -144 l 394 14 l 556 14 l 536 -72 q 628 -114 601 -81 q 654 -183 654 -147 q 590 -293 654 -253 q 418 -333 525 -333 z "},"Ê":{"ha":935,"x_min":79,"x_max":888,"o":"m 379 611 l 813 611 l 813 375 l 379 375 l 379 611 m 401 247 l 888 247 l 888 0 l 79 0 l 79 972 l 869 972 l 869 725 l 401 725 l 401 247 z "},"Ế":{"ha":935,"x_min":79,"x_max":1117,"o":"m 379 611 l 813 611 l 813 375 l 379 375 l 379 611 m 401 247 l 888 247 l 888 0 l 79 0 l 79 972 l 869 972 l 869 725 l 401 725 l 401 247 z "},"Ệ":{"ha":935,"x_min":79,"x_max":888,"o":"m 379 611 l 813 611 l 813 375 l 379 375 l 379 611 m 401 247 l 888 247 l 888 0 l 79 0 l 79 972 l 869 972 l 869 725 l 401 725 l 401 247 m 475 -314 q 386 -281 422 -314 q 350 -193 350 -249 q 386 -103 350 -137 q 475 -69 422 -69 q 564 -103 528 -69 q 600 -193 600 -137 q 564 -281 600 -249 q 475 -314 528 -314 z "},"Ề":{"ha":935,"x_min":79,"x_max":968,"o":"m 379 611 l 813 611 l 813 375 l 379 375 l 379 611 m 401 247 l 888 247 l 888 0 l 79 0 l 79 972 l 869 972 l 869 725 l 401 725 l 401 247 z "},"Ể":{"ha":935,"x_min":79,"x_max":888,"o":"m 379 611 l 813 611 l 813 375 l 379 375 l 379 611 m 401 247 l 888 247 l 888 0 l 79 0 l 79 972 l 869 972 l 869 725 l 401 725 l 401 247 z "},"Ễ":{"ha":935,"x_min":79,"x_max":888,"o":"m 379 611 l 813 611 l 813 375 l 379 375 l 379 611 m 401 247 l 888 247 l 888 0 l 79 0 l 79 972 l 869 972 l 869 725 l 401 725 l 401 247 z "},"Ȅ":{"ha":935,"x_min":74,"x_max":888,"o":"m 379 611 l 813 611 l 813 375 l 379 375 l 379 611 m 401 247 l 888 247 l 888 0 l 79 0 l 79 972 l 869 972 l 869 725 l 401 725 l 401 247 z "},"Ë":{"ha":935,"x_min":79,"x_max":888,"o":"m 379 611 l 813 611 l 813 375 l 379 375 l 379 611 m 401 247 l 888 247 l 888 0 l 79 0 l 79 972 l 869 972 l 869 725 l 401 725 l 401 247 z "},"Ė":{"ha":935,"x_min":79,"x_max":888,"o":"m 379 611 l 813 611 l 813 375 l 379 375 l 379 611 m 401 247 l 888 247 l 888 0 l 79 0 l 79 972 l 869 972 l 869 725 l 401 725 l 401 247 z "},"Ẹ":{"ha":935,"x_min":79,"x_max":888,"o":"m 379 611 l 813 611 l 813 375 l 379 375 l 379 611 m 401 247 l 888 247 l 888 0 l 79 0 l 79 972 l 869 972 l 869 725 l 401 725 l 401 247 m 475 -314 q 386 -281 422 -314 q 350 -193 350 -249 q 386 -103 350 -137 q 475 -69 422 -69 q 564 -103 528 -69 q 600 -193 600 -137 q 564 -281 600 -249 q 475 -314 528 -314 z "},"È":{"ha":935,"x_min":79,"x_max":888,"o":"m 379 611 l 813 611 l 813 375 l 379 375 l 379 611 m 401 247 l 888 247 l 888 0 l 79 0 l 79 972 l 869 972 l 869 725 l 401 725 l 401 247 z "},"Ẻ":{"ha":935,"x_min":79,"x_max":888,"o":"m 379 611 l 813 611 l 813 375 l 379 375 l 379 611 m 401 247 l 888 247 l 888 0 l 79 0 l 79 972 l 869 972 l 869 725 l 401 725 l 401 247 z "},"Ȇ":{"ha":935,"x_min":79,"x_max":888,"o":"m 379 611 l 813 611 l 813 375 l 379 375 l 379 611 m 401 247 l 888 247 l 888 0 l 79 0 l 79 972 l 869 972 l 869 725 l 401 725 l 401 247 z "},"Ē":{"ha":935,"x_min":79,"x_max":888,"o":"m 379 611 l 813 611 l 813 375 l 379 375 l 379 611 m 401 247 l 888 247 l 888 0 l 79 0 l 79 972 l 869 972 l 869 725 l 401 725 l 401 247 z "},"Ḗ":{"ha":935,"x_min":79,"x_max":888,"o":"m 379 611 l 813 611 l 813 375 l 379 375 l 379 611 m 401 247 l 888 247 l 888 0 l 79 0 l 79 972 l 869 972 l 869 725 l 401 725 l 401 247 z "},"Ḕ":{"ha":935,"x_min":79,"x_max":888,"o":"m 379 611 l 813 611 l 813 375 l 379 375 l 379 611 m 401 247 l 888 247 l 888 0 l 79 0 l 79 972 l 869 972 l 869 725 l 401 725 l 401 247 z "},"Ę":{"ha":935,"x_min":79,"x_max":922,"o":"m 379 611 l 813 611 l 813 375 l 379 375 l 379 611 m 401 247 l 888 247 l 888 0 l 79 0 l 79 972 l 869 972 l 869 725 l 401 725 l 401 247 m 765 -333 q 603 -287 661 -333 q 546 -162 546 -240 q 573 -67 546 -111 q 652 11 600 -24 q 778 68 704 46 l 888 0 q 793 -49 828 -26 q 744 -92 758 -71 q 729 -135 729 -112 q 747 -175 729 -158 q 803 -192 764 -192 q 848 -185 826 -192 q 885 -172 869 -179 l 922 -301 q 853 -324 897 -315 q 765 -333 810 -333 z "},"Ẽ":{"ha":935,"x_min":79,"x_max":888,"o":"m 379 611 l 813 611 l 813 375 l 379 375 l 379 611 m 401 247 l 888 247 l 888 0 l 79 0 l 79 972 l 869 972 l 869 725 l 401 725 l 401 247 z "},"Ʒ":{"ha":908,"x_min":22,"x_max":878,"o":"m 417 -22 q 208 0 315 -22 q 22 65 101 22 l 128 307 q 267 253 193 271 q 406 236 342 236 q 508 255 468 236 q 547 311 547 274 q 517 360 547 343 q 418 378 486 378 l 288 378 l 288 579 l 553 835 l 582 725 l 68 725 l 68 972 l 822 972 l 822 771 l 557 515 l 400 604 l 486 604 q 701 567 614 604 q 833 463 789 529 q 878 313 878 397 q 830 151 878 228 q 681 26 782 75 q 417 -22 579 -22 z "},"Ǯ":{"ha":908,"x_min":22,"x_max":878,"o":"m 417 -22 q 208 0 315 -22 q 22 65 101 22 l 128 307 q 267 253 193 271 q 406 236 342 236 q 508 255 468 236 q 547 311 547 274 q 517 360 547 343 q 418 378 486 378 l 288 378 l 288 579 l 553 835 l 582 725 l 68 725 l 68 972 l 822 972 l 822 771 l 557 515 l 400 604 l 486 604 q 701 567 614 604 q 833 463 789 529 q 878 313 878 397 q 830 151 878 228 q 681 26 782 75 q 417 -22 579 -22 z "},"F":{"ha":894,"x_min":79,"x_max":869,"o":"m 385 558 l 813 558 l 813 311 l 385 311 l 385 558 m 407 0 l 79 0 l 79 972 l 869 972 l 869 725 l 407 725 l 407 0 z "},"G":{"ha":1068,"x_min":40,"x_max":1035,"o":"m 583 -22 q 366 15 465 -22 q 194 119 267 51 q 81 281 121 188 q 40 486 40 374 q 81 692 40 599 q 194 853 121 785 q 369 958 268 921 q 590 994 469 994 q 848 946 735 994 q 1035 807 961 897 l 825 622 q 726 702 779 675 q 607 729 672 729 q 509 713 553 729 q 435 664 465 696 q 388 588 404 632 q 371 486 371 543 q 388 387 371 432 q 435 310 404 342 q 508 260 465 278 q 603 243 550 243 q 711 262 658 243 q 824 326 764 281 l 1007 101 q 804 10 918 42 q 583 -22 690 -22 m 722 143 l 722 513 l 1007 513 l 1007 101 l 722 143 z "},"Ğ":{"ha":1068,"x_min":40,"x_max":1035,"o":"m 583 -22 q 366 15 465 -22 q 194 119 267 51 q 81 281 121 188 q 40 486 40 374 q 81 692 40 599 q 194 853 121 785 q 369 958 268 921 q 590 994 469 994 q 848 946 735 994 q 1035 807 961 897 l 825 622 q 726 702 779 675 q 607 729 672 729 q 509 713 553 729 q 435 664 465 696 q 388 588 404 632 q 371 486 371 543 q 388 387 371 432 q 435 310 404 342 q 508 260 465 278 q 603 243 550 243 q 711 262 658 243 q 824 326 764 281 l 1007 101 q 804 10 918 42 q 583 -22 690 -22 m 722 143 l 722 513 l 1007 513 l 1007 101 l 722 143 z "},"Ǧ":{"ha":1068,"x_min":40,"x_max":1035,"o":"m 583 -22 q 366 15 465 -22 q 194 119 267 51 q 81 281 121 188 q 40 486 40 374 q 81 692 40 599 q 194 853 121 785 q 369 958 268 921 q 590 994 469 994 q 848 946 735 994 q 1035 807 961 897 l 825 622 q 726 702 779 675 q 607 729 672 729 q 509 713 553 729 q 435 664 465 696 q 388 588 404 632 q 371 486 371 543 q 388 387 371 432 q 435 310 404 342 q 508 260 465 278 q 603 243 550 243 q 711 262 658 243 q 824 326 764 281 l 1007 101 q 804 10 918 42 q 583 -22 690 -22 m 722 143 l 722 513 l 1007 513 l 1007 101 l 722 143 z "},"Ĝ":{"ha":1068,"x_min":40,"x_max":1035,"o":"m 583 -22 q 366 15 465 -22 q 194 119 267 51 q 81 281 121 188 q 40 486 40 374 q 81 692 40 599 q 194 853 121 785 q 369 958 268 921 q 590 994 469 994 q 848 946 735 994 q 1035 807 961 897 l 825 622 q 726 702 779 675 q 607 729 672 729 q 509 713 553 729 q 435 664 465 696 q 388 588 404 632 q 371 486 371 543 q 388 387 371 432 q 435 310 404 342 q 508 260 465 278 q 603 243 550 243 q 711 262 658 243 q 824 326 764 281 l 1007 101 q 804 10 918 42 q 583 -22 690 -22 m 722 143 l 722 513 l 1007 513 l 1007 101 l 722 143 z "},"Ģ":{"ha":1068,"x_min":40,"x_max":1035,"o":"m 583 -22 q 366 15 465 -22 q 194 119 267 51 q 81 281 121 188 q 40 486 40 374 q 81 692 40 599 q 194 853 121 785 q 369 958 268 921 q 590 994 469 994 q 848 946 735 994 q 1035 807 961 897 l 825 622 q 726 702 779 675 q 607 729 672 729 q 509 713 553 729 q 435 664 465 696 q 388 588 404 632 q 371 486 371 543 q 388 387 371 432 q 435 310 404 342 q 508 260 465 278 q 603 243 550 243 q 711 262 658 243 q 824 326 764 281 l 1007 101 q 804 10 918 42 q 583 -22 690 -22 m 722 143 l 722 513 l 1007 513 l 1007 101 l 722 143 m 468 -375 l 535 -174 l 569 -275 q 476 -248 507 -275 q 444 -174 444 -221 q 478 -98 444 -126 q 569 -69 511 -69 q 661 -98 628 -69 q 694 -174 694 -126 q 688 -220 694 -193 q 660 -285 682 -247 l 606 -375 l 468 -375 z "},"Ġ":{"ha":1068,"x_min":40,"x_max":1035,"o":"m 583 -22 q 366 15 465 -22 q 194 119 267 51 q 81 281 121 188 q 40 486 40 374 q 81 692 40 599 q 194 853 121 785 q 369 958 268 921 q 590 994 469 994 q 848 946 735 994 q 1035 807 961 897 l 825 622 q 726 702 779 675 q 607 729 672 729 q 509 713 553 729 q 435 664 465 696 q 388 588 404 632 q 371 486 371 543 q 388 387 371 432 q 435 310 404 342 q 508 260 465 278 q 603 243 550 243 q 711 262 658 243 q 824 326 764 281 l 1007 101 q 804 10 918 42 q 583 -22 690 -22 m 722 143 l 722 513 l 1007 513 l 1007 101 l 722 143 z "},"Ḡ":{"ha":1068,"x_min":40,"x_max":1035,"o":"m 583 -22 q 366 15 465 -22 q 194 119 267 51 q 81 281 121 188 q 40 486 40 374 q 81 692 40 599 q 194 853 121 785 q 369 958 268 921 q 590 994 469 994 q 848 946 735 994 q 1035 807 961 897 l 825 622 q 726 702 779 675 q 607 729 672 729 q 509 713 553 729 q 435 664 465 696 q 388 588 404 632 q 371 486 371 543 q 388 387 371 432 q 435 310 404 342 q 508 260 465 278 q 603 243 550 243 q 711 262 658 243 q 824 326 764 281 l 1007 101 q 804 10 918 42 q 583 -22 690 -22 m 722 143 l 722 513 l 1007 513 l 1007 101 l 722 143 z "},"Ǥ":{"ha":1133,"x_min":40,"x_max":1114,"o":"m 539 285 l 539 471 l 1114 471 l 1114 285 l 539 285 m 583 -22 q 366 15 465 -22 q 194 119 267 51 q 81 281 121 188 q 40 486 40 374 q 81 692 40 599 q 194 853 121 785 q 369 958 268 921 q 590 994 469 994 q 848 946 735 994 q 1035 807 961 897 l 825 622 q 726 702 779 675 q 607 729 672 729 q 509 713 553 729 q 435 664 465 696 q 388 588 404 632 q 371 486 371 543 q 388 387 371 432 q 435 310 404 342 q 508 260 465 278 q 603 243 550 243 q 711 262 658 243 q 824 326 764 281 l 1007 101 q 804 10 918 42 q 583 -22 690 -22 m 722 143 l 722 513 l 1007 513 l 1007 101 l 722 143 z "},"H":{"ha":1117,"x_min":79,"x_max":1038,"o":"m 710 972 l 1038 972 l 1038 0 l 710 0 l 710 972 m 407 0 l 79 0 l 79 972 l 407 972 l 407 0 m 732 358 l 385 358 l 385 628 l 732 628 l 732 358 z "},"Ħ":{"ha":1172,"x_min":-12,"x_max":1185,"o":"m 738 972 l 1065 972 l 1065 0 l 738 0 l 738 972 m 435 0 l 107 0 l 107 972 l 435 972 l 435 0 m 760 358 l 413 358 l 413 628 l 760 628 l 760 358 m -12 704 l -12 893 l 1185 893 l 1185 704 l -12 704 z "},"Ḫ":{"ha":1117,"x_min":79,"x_max":1038,"o":"m 710 972 l 1038 972 l 1038 0 l 710 0 l 710 972 m 407 0 l 79 0 l 79 972 l 407 972 l 407 0 m 732 358 l 385 358 l 385 628 l 732 628 l 732 358 m 558 -312 q 354 -252 433 -312 q 268 -93 275 -192 l 444 -93 q 480 -150 449 -128 q 558 -172 511 -172 q 638 -150 607 -172 q 672 -93 668 -128 l 849 -93 q 763 -252 843 -192 q 558 -312 683 -312 z "},"Ȟ":{"ha":1117,"x_min":79,"x_max":1038,"o":"m 710 972 l 1038 972 l 1038 0 l 710 0 l 710 972 m 407 0 l 79 0 l 79 972 l 407 972 l 407 0 m 732 358 l 385 358 l 385 628 l 732 628 l 732 358 z "},"Ĥ":{"ha":1117,"x_min":79,"x_max":1038,"o":"m 710 972 l 1038 972 l 1038 0 l 710 0 l 710 972 m 407 0 l 79 0 l 79 972 l 407 972 l 407 0 m 732 358 l 385 358 l 385 628 l 732 628 l 732 358 z "},"Ḥ":{"ha":1117,"x_min":79,"x_max":1038,"o":"m 710 972 l 1038 972 l 1038 0 l 710 0 l 710 972 m 407 0 l 79 0 l 79 972 l 407 972 l 407 0 m 732 358 l 385 358 l 385 628 l 732 628 l 732 358 m 558 -314 q 469 -281 506 -314 q 433 -193 433 -249 q 469 -103 433 -137 q 558 -69 506 -69 q 647 -103 611 -69 q 683 -193 683 -137 q 647 -281 683 -249 q 558 -314 611 -314 z "},"I":{"ha":486,"x_min":79,"x_max":407,"o":"m 79 0 l 79 972 l 407 972 l 407 0 l 79 0 z "},"Ĳ":{"ha":1013,"x_min":43,"x_max":942,"o":"m 456 -22 q 225 10 331 -22 q 43 96 119 42 l 163 328 q 306 262 232 285 q 440 239 379 239 q 572 285 531 239 q 614 433 614 332 l 614 972 l 942 972 l 942 451 q 881 193 942 299 q 711 33 821 88 q 456 -22 601 -22 m 71 467 l 71 972 l 399 972 l 399 467 l 71 467 z "},"Í":{"ha":486,"x_min":79,"x_max":579,"o":"m 79 0 l 79 972 l 407 972 l 407 0 l 79 0 z "},"Ĭ":{"ha":486,"x_min":-47,"x_max":533,"o":"m 79 0 l 79 972 l 407 972 l 407 0 l 79 0 z "},"Î":{"ha":486,"x_min":-68,"x_max":554,"o":"m 79 0 l 79 972 l 407 972 l 407 0 l 79 0 z "},"Ȉ":{"ha":486,"x_min":-158,"x_max":510,"o":"m 79 0 l 79 972 l 407 972 l 407 0 l 79 0 z "},"Ï":{"ha":486,"x_min":-36,"x_max":522,"o":"m 79 0 l 79 972 l 407 972 l 407 0 l 79 0 z "},"Ḯ":{"ha":486,"x_min":-22,"x_max":538,"o":"m 79 0 l 79 972 l 407 972 l 407 0 l 79 0 z "},"İ":{"ha":486,"x_min":79,"x_max":407,"o":"m 79 0 l 79 972 l 407 972 l 407 0 l 79 0 z "},"Ị":{"ha":486,"x_min":79,"x_max":407,"o":"m 79 0 l 79 972 l 407 972 l 407 0 l 79 0 m 243 -314 q 154 -281 190 -314 q 118 -193 118 -249 q 154 -103 118 -137 q 243 -69 190 -69 q 332 -103 296 -69 q 368 -193 368 -137 q 332 -281 368 -249 q 243 -314 296 -314 z "},"Ì":{"ha":486,"x_min":-93,"x_max":407,"o":"m 79 0 l 79 972 l 407 972 l 407 0 l 79 0 z "},"Ỉ":{"ha":486,"x_min":71,"x_max":446,"o":"m 79 0 l 79 972 l 407 972 l 407 0 l 79 0 z "},"Ȋ":{"ha":486,"x_min":-47,"x_max":533,"o":"m 79 0 l 79 972 l 407 972 l 407 0 l 79 0 z "},"Ī":{"ha":486,"x_min":7,"x_max":479,"o":"m 79 0 l 79 972 l 407 972 l 407 0 l 79 0 z "},"Į":{"ha":486,"x_min":79,"x_max":442,"o":"m 79 0 l 79 972 l 407 972 l 407 0 l 79 0 m 324 -333 q 178 -286 233 -333 q 124 -160 124 -239 q 177 -22 124 -82 q 324 71 231 39 l 407 0 q 330 -65 351 -35 q 308 -132 308 -96 q 324 -175 308 -158 q 361 -192 339 -192 q 385 -187 374 -192 q 406 -176 396 -183 l 442 -301 q 324 -333 394 -333 z "},"Ĩ":{"ha":486,"x_min":-61,"x_max":547,"o":"m 79 0 l 79 972 l 407 972 l 407 0 l 79 0 z "},"J":{"ha":797,"x_min":-33,"x_max":726,"o":"m 325 -22 q 119 15 211 -22 q -33 122 28 51 l 143 331 q 219 259 182 283 q 297 235 257 235 q 403 356 403 235 l 403 725 l 72 725 l 72 972 l 726 972 l 726 375 q 624 76 726 175 q 325 -22 521 -22 z "},"Ĵ":{"ha":797,"x_min":-33,"x_max":726,"o":"m 325 -22 q 119 15 211 -22 q -33 122 28 51 l 143 331 q 219 259 182 283 q 297 235 257 235 q 403 356 403 235 l 403 725 l 72 725 l 72 972 l 726 972 l 726 375 q 624 76 726 175 q 325 -22 521 -22 z "},"K":{"ha":1063,"x_min":79,"x_max":1097,"o":"m 372 208 l 354 568 l 721 972 l 1078 972 l 667 519 l 485 333 l 372 208 m 79 0 l 79 972 l 401 972 l 401 0 l 79 0 m 718 0 l 432 378 l 644 603 l 1097 0 l 718 0 z "},"Ǩ":{"ha":1063,"x_min":79,"x_max":1097,"o":"m 372 208 l 354 568 l 721 972 l 1078 972 l 667 519 l 485 333 l 372 208 m 79 0 l 79 972 l 401 972 l 401 0 l 79 0 m 718 0 l 432 378 l 644 603 l 1097 0 l 718 0 z "},"Ķ":{"ha":1063,"x_min":79,"x_max":1097,"o":"m 372 208 l 354 568 l 721 972 l 1078 972 l 667 519 l 485 333 l 372 208 m 79 0 l 79 972 l 401 972 l 401 0 l 79 0 m 718 0 l 432 378 l 644 603 l 1097 0 l 718 0 m 432 -375 l 499 -174 l 533 -275 q 440 -248 471 -275 q 408 -174 408 -221 q 442 -98 408 -126 q 533 -69 475 -69 q 625 -98 592 -69 q 658 -174 658 -126 q 652 -220 658 -193 q 624 -285 646 -247 l 569 -375 l 432 -375 z "},"L":{"ha":857,"x_min":79,"x_max":846,"o":"m 79 0 l 79 972 l 407 972 l 407 254 l 846 254 l 846 0 l 79 0 z "},"Ǉ":{"ha":1654,"x_min":79,"x_max":1583,"o":"m 79 0 l 79 972 l 407 972 l 407 254 l 846 254 l 846 0 l 79 0 m 1182 -22 q 976 15 1068 -22 q 824 122 885 51 l 1000 331 q 1076 259 1039 283 q 1154 235 1114 235 q 1260 356 1260 235 l 1260 725 l 929 725 l 929 972 l 1583 972 l 1583 375 q 1481 76 1583 175 q 1182 -22 1378 -22 z "},"Ĺ":{"ha":857,"x_min":79,"x_max":846,"o":"m 79 0 l 79 972 l 407 972 l 407 254 l 846 254 l 846 0 l 79 0 z "},"Ľ":{"ha":857,"x_min":79,"x_max":846,"o":"m 79 0 l 79 972 l 407 972 l 407 254 l 846 254 l 846 0 l 79 0 m 588 750 l 588 1042 l 807 1042 l 765 750 l 588 750 z "},"Ļ":{"ha":857,"x_min":79,"x_max":846,"o":"m 79 0 l 79 972 l 407 972 l 407 254 l 846 254 l 846 0 l 79 0 m 378 -375 l 444 -174 l 479 -275 q 385 -248 417 -275 q 354 -174 354 -221 q 388 -98 354 -126 q 479 -69 421 -69 q 571 -98 538 -69 q 604 -174 604 -126 q 598 -220 604 -193 q 569 -285 592 -247 l 515 -375 l 378 -375 z "},"Ŀ":{"ha":857,"x_min":79,"x_max":846,"o":"m 79 0 l 79 972 l 407 972 l 407 254 l 846 254 l 846 0 l 79 0 m 672 454 q 558 499 603 454 q 514 613 514 543 q 558 726 514 682 q 672 771 603 771 q 786 726 742 771 q 831 613 831 682 q 786 499 831 543 q 672 454 742 454 z "},"Ḷ":{"ha":857,"x_min":79,"x_max":846,"o":"m 79 0 l 79 972 l 407 972 l 407 254 l 846 254 l 846 0 l 79 0 m 479 -314 q 390 -281 426 -314 q 354 -193 354 -249 q 390 -103 354 -137 q 479 -69 426 -69 q 568 -103 532 -69 q 604 -193 604 -137 q 568 -281 604 -249 q 479 -314 532 -314 z "},"ǈ":{"ha":1321,"x_min":79,"x_max":1283,"o":"m 79 0 l 79 972 l 407 972 l 407 254 l 846 254 l 846 0 l 79 0 z "},"Ḻ":{"ha":857,"x_min":79,"x_max":846,"o":"m 79 0 l 79 972 l 407 972 l 407 254 l 846 254 l 846 0 l 79 0 m 188 -267 l 188 -103 l 771 -103 l 771 -267 l 188 -267 z "},"Ł":{"ha":885,"x_min":-50,"x_max":874,"o":"m 107 0 l 107 972 l 435 972 l 435 254 l 874 254 l 874 0 l 107 0 m 47 283 l -50 422 l 568 881 l 665 742 l 47 283 z "},"M":{"ha":1325,"x_min":79,"x_max":1246,"o":"m 79 0 l 79 972 l 349 972 l 738 338 l 596 338 l 974 972 l 1243 972 l 1246 0 l 947 0 l 944 522 l 992 522 l 733 88 l 589 88 l 319 522 l 378 522 l 378 0 l 79 0 z "},"Ṃ":{"ha":1325,"x_min":79,"x_max":1246,"o":"m 79 0 l 79 972 l 349 972 l 738 338 l 596 338 l 974 972 l 1243 972 l 1246 0 l 947 0 l 944 522 l 992 522 l 733 88 l 589 88 l 319 522 l 378 522 l 378 0 l 79 0 m 661 -314 q 572 -281 608 -314 q 536 -193 536 -249 q 572 -103 536 -137 q 661 -69 608 -69 q 750 -103 714 -69 q 786 -193 786 -137 q 750 -281 786 -249 q 661 -314 714 -314 z "},"N":{"ha":1117,"x_min":79,"x_max":1038,"o":"m 79 0 l 79 972 l 349 972 l 843 381 l 718 381 l 718 972 l 1038 972 l 1038 0 l 768 0 l 274 592 l 399 592 l 399 0 l 79 0 z "},"Ǌ":{"ha":1914,"x_min":79,"x_max":1843,"o":"m 79 0 l 79 972 l 349 972 l 843 381 l 718 381 l 718 972 l 1038 972 l 1038 0 l 768 0 l 274 592 l 399 592 l 399 0 l 79 0 m 1442 -22 q 1236 15 1328 -22 q 1083 122 1144 51 l 1260 331 q 1336 259 1299 283 q 1414 235 1374 235 q 1519 356 1519 235 l 1519 725 l 1189 725 l 1189 972 l 1843 972 l 1843 375 q 1740 76 1843 175 q 1442 -22 1638 -22 z "},"Ń":{"ha":1117,"x_min":79,"x_max":1038,"o":"m 79 0 l 79 972 l 349 972 l 843 381 l 718 381 l 718 972 l 1038 972 l 1038 0 l 768 0 l 274 592 l 399 592 l 399 0 l 79 0 z "},"Ň":{"ha":1117,"x_min":79,"x_max":1038,"o":"m 79 0 l 79 972 l 349 972 l 843 381 l 718 381 l 718 972 l 1038 972 l 1038 0 l 768 0 l 274 592 l 399 592 l 399 0 l 79 0 z "},"Ņ":{"ha":1117,"x_min":79,"x_max":1038,"o":"m 79 0 l 79 972 l 349 972 l 843 381 l 718 381 l 718 972 l 1038 972 l 1038 0 l 768 0 l 274 592 l 399 592 l 399 0 l 79 0 m 457 -375 l 524 -174 l 558 -275 q 465 -248 496 -275 q 433 -174 433 -221 q 467 -98 433 -126 q 558 -69 500 -69 q 650 -98 617 -69 q 683 -174 683 -126 q 677 -220 683 -193 q 649 -285 671 -247 l 594 -375 l 457 -375 z "},"Ṅ":{"ha":1117,"x_min":79,"x_max":1038,"o":"m 79 0 l 79 972 l 349 972 l 843 381 l 718 381 l 718 972 l 1038 972 l 1038 0 l 768 0 l 274 592 l 399 592 l 399 0 l 79 0 z "},"Ṇ":{"ha":1117,"x_min":79,"x_max":1038,"o":"m 79 0 l 79 972 l 349 972 l 843 381 l 718 381 l 718 972 l 1038 972 l 1038 0 l 768 0 l 274 592 l 399 592 l 399 0 l 79 0 m 558 -314 q 469 -281 506 -314 q 433 -193 433 -249 q 469 -103 433 -137 q 558 -69 506 -69 q 647 -103 611 -69 q 683 -193 683 -137 q 647 -281 683 -249 q 558 -314 611 -314 z "},"Ŋ":{"ha":1117,"x_min":79,"x_max":1038,"o":"m 79 0 l 79 972 l 349 972 l 843 381 l 768 0 l 274 592 l 399 592 l 399 0 l 79 0 m 640 -283 q 492 -267 561 -283 q 367 -212 424 -250 l 517 7 q 564 -19 540 -10 q 613 -28 588 -28 q 718 93 718 -28 l 718 972 l 1038 972 l 1038 142 q 937 -181 1038 -79 q 640 -283 836 -283 z "},"ǋ":{"ha":1581,"x_min":79,"x_max":1543,"o":"m 79 0 l 79 972 l 349 972 l 843 381 l 718 381 l 718 972 l 1038 972 l 1038 0 l 768 0 l 274 592 l 399 592 l 399 0 l 79 0 z "},"Ṉ":{"ha":1117,"x_min":79,"x_max":1038,"o":"m 79 0 l 79 972 l 349 972 l 843 381 l 718 381 l 718 972 l 1038 972 l 1038 0 l 768 0 l 274 592 l 399 592 l 399 0 l 79 0 m 267 -267 l 267 -103 l 850 -103 l 850 -267 l 267 -267 z "},"Ñ":{"ha":1117,"x_min":79,"x_max":1038,"o":"m 79 0 l 79 972 l 349 972 l 843 381 l 718 381 l 718 972 l 1038 972 l 1038 0 l 768 0 l 274 592 l 399 592 l 399 0 l 79 0 z "},"O":{"ha":1178,"x_min":40,"x_max":1138,"o":"m 590 -22 q 370 15 471 -22 q 196 122 269 53 q 81 283 122 190 q 40 486 40 376 q 81 690 40 597 q 196 851 122 782 q 370 957 269 919 q 589 994 471 994 q 808 957 708 994 q 982 851 908 919 q 1097 690 1056 782 q 1138 486 1138 597 q 1097 283 1138 376 q 982 122 1056 190 q 808 15 908 53 q 590 -22 708 -22 m 589 243 q 674 260 635 243 q 744 308 714 276 q 790 384 774 339 q 807 486 807 429 q 790 588 807 543 q 744 665 774 633 q 674 713 714 696 q 589 729 635 729 q 503 713 543 729 q 434 665 464 696 q 388 588 404 633 q 371 486 371 543 q 388 384 371 429 q 434 308 404 339 q 503 260 464 276 q 589 243 543 243 z "},"Ó":{"ha":1178,"x_min":40,"x_max":1138,"o":"m 590 -22 q 370 15 471 -22 q 196 122 269 53 q 81 283 122 190 q 40 486 40 376 q 81 690 40 597 q 196 851 122 782 q 370 957 269 919 q 589 994 471 994 q 808 957 708 994 q 982 851 908 919 q 1097 690 1056 782 q 1138 486 1138 597 q 1097 283 1138 376 q 982 122 1056 190 q 808 15 908 53 q 590 -22 708 -22 m 589 243 q 674 260 635 243 q 744 308 714 276 q 790 384 774 339 q 807 486 807 429 q 790 588 807 543 q 744 665 774 633 q 674 713 714 696 q 589 729 635 729 q 503 713 543 729 q 434 665 464 696 q 388 588 404 633 q 371 486 371 543 q 388 384 371 429 q 434 308 404 339 q 503 260 464 276 q 589 243 543 243 z "},"Ŏ":{"ha":1178,"x_min":40,"x_max":1138,"o":"m 590 -22 q 370 15 471 -22 q 196 122 269 53 q 81 283 122 190 q 40 486 40 376 q 81 690 40 597 q 196 851 122 782 q 370 957 269 919 q 589 994 471 994 q 808 957 708 994 q 982 851 908 919 q 1097 690 1056 782 q 1138 486 1138 597 q 1097 283 1138 376 q 982 122 1056 190 q 808 15 908 53 q 590 -22 708 -22 m 589 243 q 674 260 635 243 q 744 308 714 276 q 790 384 774 339 q 807 486 807 429 q 790 588 807 543 q 744 665 774 633 q 674 713 714 696 q 589 729 635 729 q 503 713 543 729 q 434 665 464 696 q 388 588 404 633 q 371 486 371 543 q 388 384 371 429 q 434 308 404 339 q 503 260 464 276 q 589 243 543 243 z "},"Ô":{"ha":1178,"x_min":40,"x_max":1138,"o":"m 590 -22 q 370 15 471 -22 q 196 122 269 53 q 81 283 122 190 q 40 486 40 376 q 81 690 40 597 q 196 851 122 782 q 370 957 269 919 q 589 994 471 994 q 808 957 708 994 q 982 851 908 919 q 1097 690 1056 782 q 1138 486 1138 597 q 1097 283 1138 376 q 982 122 1056 190 q 808 15 908 53 q 590 -22 708 -22 m 589 243 q 674 260 635 243 q 744 308 714 276 q 790 384 774 339 q 807 486 807 429 q 790 588 807 543 q 744 665 774 633 q 674 713 714 696 q 589 729 635 729 q 503 713 543 729 q 434 665 464 696 q 388 588 404 633 q 371 486 371 543 q 388 384 371 429 q 434 308 404 339 q 503 260 464 276 q 589 243 543 243 z "},"Ố":{"ha":1178,"x_min":40,"x_max":1231,"o":"m 590 -22 q 370 15 471 -22 q 196 122 269 53 q 81 283 122 190 q 40 486 40 376 q 81 690 40 597 q 196 851 122 782 q 370 957 269 919 q 589 994 471 994 q 808 957 708 994 q 982 851 908 919 q 1097 690 1056 782 q 1138 486 1138 597 q 1097 283 1138 376 q 982 122 1056 190 q 808 15 908 53 q 590 -22 708 -22 m 589 243 q 674 260 635 243 q 744 308 714 276 q 790 384 774 339 q 807 486 807 429 q 790 588 807 543 q 744 665 774 633 q 674 713 714 696 q 589 729 635 729 q 503 713 543 729 q 434 665 464 696 q 388 588 404 633 q 371 486 371 543 q 388 384 371 429 q 434 308 404 339 q 503 260 464 276 q 589 243 543 243 z "},"Ộ":{"ha":1178,"x_min":40,"x_max":1138,"o":"m 590 -22 q 370 15 471 -22 q 196 122 269 53 q 81 283 122 190 q 40 486 40 376 q 81 690 40 597 q 196 851 122 782 q 370 957 269 919 q 589 994 471 994 q 808 957 708 994 q 982 851 908 919 q 1097 690 1056 782 q 1138 486 1138 597 q 1097 283 1138 376 q 982 122 1056 190 q 808 15 908 53 q 590 -22 708 -22 m 589 243 q 674 260 635 243 q 744 308 714 276 q 790 384 774 339 q 807 486 807 429 q 790 588 807 543 q 744 665 774 633 q 674 713 714 696 q 589 729 635 729 q 503 713 543 729 q 434 665 464 696 q 388 588 404 633 q 371 486 371 543 q 388 384 371 429 q 434 308 404 339 q 503 260 464 276 q 589 243 543 243 m 589 -314 q 500 -281 536 -314 q 464 -193 464 -249 q 500 -103 464 -137 q 589 -69 536 -69 q 678 -103 642 -69 q 714 -193 714 -137 q 678 -281 714 -249 q 589 -314 642 -314 z "},"Ồ":{"ha":1178,"x_min":40,"x_max":1138,"o":"m 590 -22 q 370 15 471 -22 q 196 122 269 53 q 81 283 122 190 q 40 486 40 376 q 81 690 40 597 q 196 851 122 782 q 370 957 269 919 q 589 994 471 994 q 808 957 708 994 q 982 851 908 919 q 1097 690 1056 782 q 1138 486 1138 597 q 1097 283 1138 376 q 982 122 1056 190 q 808 15 908 53 q 590 -22 708 -22 m 589 243 q 674 260 635 243 q 744 308 714 276 q 790 384 774 339 q 807 486 807 429 q 790 588 807 543 q 744 665 774 633 q 674 713 714 696 q 589 729 635 729 q 503 713 543 729 q 434 665 464 696 q 388 588 404 633 q 371 486 371 543 q 388 384 371 429 q 434 308 404 339 q 503 260 464 276 q 589 243 543 243 z "},"Ổ":{"ha":1178,"x_min":40,"x_max":1138,"o":"m 590 -22 q 370 15 471 -22 q 196 122 269 53 q 81 283 122 190 q 40 486 40 376 q 81 690 40 597 q 196 851 122 782 q 370 957 269 919 q 589 994 471 994 q 808 957 708 994 q 982 851 908 919 q 1097 690 1056 782 q 1138 486 1138 597 q 1097 283 1138 376 q 982 122 1056 190 q 808 15 908 53 q 590 -22 708 -22 m 589 243 q 674 260 635 243 q 744 308 714 276 q 790 384 774 339 q 807 486 807 429 q 790 588 807 543 q 744 665 774 633 q 674 713 714 696 q 589 729 635 729 q 503 713 543 729 q 434 665 464 696 q 388 588 404 633 q 371 486 371 543 q 388 384 371 429 q 434 308 404 339 q 503 260 464 276 q 589 243 543 243 z "},"Ỗ":{"ha":1178,"x_min":40,"x_max":1138,"o":"m 590 -22 q 370 15 471 -22 q 196 122 269 53 q 81 283 122 190 q 40 486 40 376 q 81 690 40 597 q 196 851 122 782 q 370 957 269 919 q 589 994 471 994 q 808 957 708 994 q 982 851 908 919 q 1097 690 1056 782 q 1138 486 1138 597 q 1097 283 1138 376 q 982 122 1056 190 q 808 15 908 53 q 590 -22 708 -22 m 589 243 q 674 260 635 243 q 744 308 714 276 q 790 384 774 339 q 807 486 807 429 q 790 588 807 543 q 744 665 774 633 q 674 713 714 696 q 589 729 635 729 q 503 713 543 729 q 434 665 464 696 q 388 588 404 633 q 371 486 371 543 q 388 384 371 429 q 434 308 404 339 q 503 260 464 276 q 589 243 543 243 z "},"Ȍ":{"ha":1178,"x_min":40,"x_max":1138,"o":"m 590 -22 q 370 15 471 -22 q 196 122 269 53 q 81 283 122 190 q 40 486 40 376 q 81 690 40 597 q 196 851 122 782 q 370 957 269 919 q 589 994 471 994 q 808 957 708 994 q 982 851 908 919 q 1097 690 1056 782 q 1138 486 1138 597 q 1097 283 1138 376 q 982 122 1056 190 q 808 15 908 53 q 590 -22 708 -22 m 589 243 q 674 260 635 243 q 744 308 714 276 q 790 384 774 339 q 807 486 807 429 q 790 588 807 543 q 744 665 774 633 q 674 713 714 696 q 589 729 635 729 q 503 713 543 729 q 434 665 464 696 q 388 588 404 633 q 371 486 371 543 q 388 384 371 429 q 434 308 404 339 q 503 260 464 276 q 589 243 543 243 z "},"Ö":{"ha":1178,"x_min":40,"x_max":1138,"o":"m 590 -22 q 370 15 471 -22 q 196 122 269 53 q 81 283 122 190 q 40 486 40 376 q 81 690 40 597 q 196 851 122 782 q 370 957 269 919 q 589 994 471 994 q 808 957 708 994 q 982 851 908 919 q 1097 690 1056 782 q 1138 486 1138 597 q 1097 283 1138 376 q 982 122 1056 190 q 808 15 908 53 q 590 -22 708 -22 m 589 243 q 674 260 635 243 q 744 308 714 276 q 790 384 774 339 q 807 486 807 429 q 790 588 807 543 q 744 665 774 633 q 674 713 714 696 q 589 729 635 729 q 503 713 543 729 q 434 665 464 696 q 388 588 404 633 q 371 486 371 543 q 388 384 371 429 q 434 308 404 339 q 503 260 464 276 q 589 243 543 243 z "},"Ȫ":{"ha":1178,"x_min":40,"x_max":1138,"o":"m 590 -22 q 370 15 471 -22 q 196 122 269 53 q 81 283 122 190 q 40 486 40 376 q 81 690 40 597 q 196 851 122 782 q 370 957 269 919 q 589 994 471 994 q 808 957 708 994 q 982 851 908 919 q 1097 690 1056 782 q 1138 486 1138 597 q 1097 283 1138 376 q 982 122 1056 190 q 808 15 908 53 q 590 -22 708 -22 m 589 243 q 674 260 635 243 q 744 308 714 276 q 790 384 774 339 q 807 486 807 429 q 790 588 807 543 q 744 665 774 633 q 674 713 714 696 q 589 729 635 729 q 503 713 543 729 q 434 665 464 696 q 388 588 404 633 q 371 486 371 543 q 388 384 371 429 q 434 308 404 339 q 503 260 464 276 q 589 243 543 243 z "},"Ȱ":{"ha":1178,"x_min":40,"x_max":1138,"o":"m 590 -22 q 370 15 471 -22 q 196 122 269 53 q 81 283 122 190 q 40 486 40 376 q 81 690 40 597 q 196 851 122 782 q 370 957 269 919 q 589 994 471 994 q 808 957 708 994 q 982 851 908 919 q 1097 690 1056 782 q 1138 486 1138 597 q 1097 283 1138 376 q 982 122 1056 190 q 808 15 908 53 q 590 -22 708 -22 m 589 243 q 674 260 635 243 q 744 308 714 276 q 790 384 774 339 q 807 486 807 429 q 790 588 807 543 q 744 665 774 633 q 674 713 714 696 q 589 729 635 729 q 503 713 543 729 q 434 665 464 696 q 388 588 404 633 q 371 486 371 543 q 388 384 371 429 q 434 308 404 339 q 503 260 464 276 q 589 243 543 243 z "},"Ọ":{"ha":1178,"x_min":40,"x_max":1138,"o":"m 590 -22 q 370 15 471 -22 q 196 122 269 53 q 81 283 122 190 q 40 486 40 376 q 81 690 40 597 q 196 851 122 782 q 370 957 269 919 q 589 994 471 994 q 808 957 708 994 q 982 851 908 919 q 1097 690 1056 782 q 1138 486 1138 597 q 1097 283 1138 376 q 982 122 1056 190 q 808 15 908 53 q 590 -22 708 -22 m 589 243 q 674 260 635 243 q 744 308 714 276 q 790 384 774 339 q 807 486 807 429 q 790 588 807 543 q 744 665 774 633 q 674 713 714 696 q 589 729 635 729 q 503 713 543 729 q 434 665 464 696 q 388 588 404 633 q 371 486 371 543 q 388 384 371 429 q 434 308 404 339 q 503 260 464 276 q 589 243 543 243 m 589 -314 q 500 -281 536 -314 q 464 -193 464 -249 q 500 -103 464 -137 q 589 -69 536 -69 q 678 -103 642 -69 q 714 -193 714 -137 q 678 -281 714 -249 q 589 -314 642 -314 z "},"Ò":{"ha":1178,"x_min":40,"x_max":1138,"o":"m 590 -22 q 370 15 471 -22 q 196 122 269 53 q 81 283 122 190 q 40 486 40 376 q 81 690 40 597 q 196 851 122 782 q 370 957 269 919 q 589 994 471 994 q 808 957 708 994 q 982 851 908 919 q 1097 690 1056 782 q 1138 486 1138 597 q 1097 283 1138 376 q 982 122 1056 190 q 808 15 908 53 q 590 -22 708 -22 m 589 243 q 674 260 635 243 q 744 308 714 276 q 790 384 774 339 q 807 486 807 429 q 790 588 807 543 q 744 665 774 633 q 674 713 714 696 q 589 729 635 729 q 503 713 543 729 q 434 665 464 696 q 388 588 404 633 q 371 486 371 543 q 388 384 371 429 q 434 308 404 339 q 503 260 464 276 q 589 243 543 243 z "},"Ỏ":{"ha":1178,"x_min":40,"x_max":1138,"o":"m 590 -22 q 370 15 471 -22 q 196 122 269 53 q 81 283 122 190 q 40 486 40 376 q 81 690 40 597 q 196 851 122 782 q 370 957 269 919 q 589 994 471 994 q 808 957 708 994 q 982 851 908 919 q 1097 690 1056 782 q 1138 486 1138 597 q 1097 283 1138 376 q 982 122 1056 190 q 808 15 908 53 q 590 -22 708 -22 m 589 243 q 674 260 635 243 q 744 308 714 276 q 790 384 774 339 q 807 486 807 429 q 790 588 807 543 q 744 665 774 633 q 674 713 714 696 q 589 729 635 729 q 503 713 543 729 q 434 665 464 696 q 388 588 404 633 q 371 486 371 543 q 388 384 371 429 q 434 308 404 339 q 503 260 464 276 q 589 243 543 243 z "},"Ơ":{"ha":1178,"x_min":40,"x_max":1139,"o":"m 589 -22 q 370 15 471 -22 q 196 122 269 53 q 81 283 122 190 q 40 486 40 376 q 81 690 40 597 q 197 851 122 782 q 376 957 272 919 q 603 994 479 994 q 739 985 676 994 q 844 976 801 976 q 912 997 886 976 q 938 1057 938 1018 q 930 1101 938 1081 q 910 1136 922 1122 l 1088 1199 q 1125 1130 1111 1168 q 1139 1044 1139 1092 q 1055 859 1139 921 q 833 797 971 797 q 706 806 765 797 q 589 821 646 814 l 950 868 q 1049 768 1007 826 q 1115 639 1092 710 q 1138 486 1138 568 q 1097 283 1138 376 q 982 122 1056 190 q 808 15 908 53 q 589 -22 708 -22 m 589 243 q 674 260 635 243 q 744 308 714 276 q 790 384 774 339 q 807 486 807 429 q 790 588 807 543 q 744 665 774 633 q 674 713 714 696 q 589 729 635 729 q 503 713 543 729 q 434 665 464 696 q 388 588 404 633 q 371 486 371 543 q 388 384 371 429 q 434 308 404 339 q 503 260 464 276 q 589 243 543 243 z "},"Ớ":{"ha":1178,"x_min":40,"x_max":1139,"o":"m 589 -22 q 370 15 471 -22 q 196 122 269 53 q 81 283 122 190 q 40 486 40 376 q 81 690 40 597 q 197 851 122 782 q 376 957 272 919 q 603 994 479 994 q 739 985 676 994 q 844 976 801 976 q 912 997 886 976 q 938 1057 938 1018 q 930 1101 938 1081 q 910 1136 922 1122 l 1088 1199 q 1125 1130 1111 1168 q 1139 1044 1139 1092 q 1055 859 1139 921 q 833 797 971 797 q 706 806 765 797 q 589 821 646 814 l 950 868 q 1049 768 1007 826 q 1115 639 1092 710 q 1138 486 1138 568 q 1097 283 1138 376 q 982 122 1056 190 q 808 15 908 53 q 589 -22 708 -22 m 589 243 q 674 260 635 243 q 744 308 714 276 q 790 384 774 339 q 807 486 807 429 q 790 588 807 543 q 744 665 774 633 q 674 713 714 696 q 589 729 635 729 q 503 713 543 729 q 434 665 464 696 q 388 588 404 633 q 371 486 371 543 q 388 384 371 429 q 434 308 404 339 q 503 260 464 276 q 589 243 543 243 z "},"Ợ":{"ha":1178,"x_min":40,"x_max":1139,"o":"m 589 -22 q 370 15 471 -22 q 196 122 269 53 q 81 283 122 190 q 40 486 40 376 q 81 690 40 597 q 197 851 122 782 q 376 957 272 919 q 603 994 479 994 q 739 985 676 994 q 844 976 801 976 q 912 997 886 976 q 938 1057 938 1018 q 930 1101 938 1081 q 910 1136 922 1122 l 1088 1199 q 1125 1130 1111 1168 q 1139 1044 1139 1092 q 1055 859 1139 921 q 833 797 971 797 q 706 806 765 797 q 589 821 646 814 l 950 868 q 1049 768 1007 826 q 1115 639 1092 710 q 1138 486 1138 568 q 1097 283 1138 376 q 982 122 1056 190 q 808 15 908 53 q 589 -22 708 -22 m 589 243 q 674 260 635 243 q 744 308 714 276 q 790 384 774 339 q 807 486 807 429 q 790 588 807 543 q 744 665 774 633 q 674 713 714 696 q 589 729 635 729 q 503 713 543 729 q 434 665 464 696 q 388 588 404 633 q 371 486 371 543 q 388 384 371 429 q 434 308 404 339 q 503 260 464 276 q 589 243 543 243 m 589 -314 q 500 -281 536 -314 q 464 -193 464 -249 q 500 -103 464 -137 q 589 -69 536 -69 q 678 -103 642 -69 q 714 -193 714 -137 q 678 -281 714 -249 q 589 -314 642 -314 z "},"Ờ":{"ha":1178,"x_min":40,"x_max":1139,"o":"m 589 -22 q 370 15 471 -22 q 196 122 269 53 q 81 283 122 190 q 40 486 40 376 q 81 690 40 597 q 197 851 122 782 q 376 957 272 919 q 603 994 479 994 q 739 985 676 994 q 844 976 801 976 q 912 997 886 976 q 938 1057 938 1018 q 930 1101 938 1081 q 910 1136 922 1122 l 1088 1199 q 1125 1130 1111 1168 q 1139 1044 1139 1092 q 1055 859 1139 921 q 833 797 971 797 q 706 806 765 797 q 589 821 646 814 l 950 868 q 1049 768 1007 826 q 1115 639 1092 710 q 1138 486 1138 568 q 1097 283 1138 376 q 982 122 1056 190 q 808 15 908 53 q 589 -22 708 -22 m 589 243 q 674 260 635 243 q 744 308 714 276 q 790 384 774 339 q 807 486 807 429 q 790 588 807 543 q 744 665 774 633 q 674 713 714 696 q 589 729 635 729 q 503 713 543 729 q 434 665 464 696 q 388 588 404 633 q 371 486 371 543 q 388 384 371 429 q 434 308 404 339 q 503 260 464 276 q 589 243 543 243 z "},"Ở":{"ha":1178,"x_min":40,"x_max":1139,"o":"m 589 -22 q 370 15 471 -22 q 196 122 269 53 q 81 283 122 190 q 40 486 40 376 q 81 690 40 597 q 197 851 122 782 q 376 957 272 919 q 603 994 479 994 q 739 985 676 994 q 844 976 801 976 q 912 997 886 976 q 938 1057 938 1018 q 930 1101 938 1081 q 910 1136 922 1122 l 1088 1199 q 1125 1130 1111 1168 q 1139 1044 1139 1092 q 1055 859 1139 921 q 833 797 971 797 q 706 806 765 797 q 589 821 646 814 l 950 868 q 1049 768 1007 826 q 1115 639 1092 710 q 1138 486 1138 568 q 1097 283 1138 376 q 982 122 1056 190 q 808 15 908 53 q 589 -22 708 -22 m 589 243 q 674 260 635 243 q 744 308 714 276 q 790 384 774 339 q 807 486 807 429 q 790 588 807 543 q 744 665 774 633 q 674 713 714 696 q 589 729 635 729 q 503 713 543 729 q 434 665 464 696 q 388 588 404 633 q 371 486 371 543 q 388 384 371 429 q 434 308 404 339 q 503 260 464 276 q 589 243 543 243 z "},"Ỡ":{"ha":1178,"x_min":40,"x_max":1139,"o":"m 589 -22 q 370 15 471 -22 q 196 122 269 53 q 81 283 122 190 q 40 486 40 376 q 81 690 40 597 q 197 851 122 782 q 376 957 272 919 q 603 994 479 994 q 739 985 676 994 q 844 976 801 976 q 912 997 886 976 q 938 1057 938 1018 q 930 1101 938 1081 q 910 1136 922 1122 l 1088 1199 q 1125 1130 1111 1168 q 1139 1044 1139 1092 q 1055 859 1139 921 q 833 797 971 797 q 706 806 765 797 q 589 821 646 814 l 950 868 q 1049 768 1007 826 q 1115 639 1092 710 q 1138 486 1138 568 q 1097 283 1138 376 q 982 122 1056 190 q 808 15 908 53 q 589 -22 708 -22 m 589 243 q 674 260 635 243 q 744 308 714 276 q 790 384 774 339 q 807 486 807 429 q 790 588 807 543 q 744 665 774 633 q 674 713 714 696 q 589 729 635 729 q 503 713 543 729 q 434 665 464 696 q 388 588 404 633 q 371 486 371 543 q 388 384 371 429 q 434 308 404 339 q 503 260 464 276 q 589 243 543 243 z "},"Ő":{"ha":1178,"x_min":40,"x_max":1138,"o":"m 590 -22 q 370 15 471 -22 q 196 122 269 53 q 81 283 122 190 q 40 486 40 376 q 81 690 40 597 q 196 851 122 782 q 370 957 269 919 q 589 994 471 994 q 808 957 708 994 q 982 851 908 919 q 1097 690 1056 782 q 1138 486 1138 597 q 1097 283 1138 376 q 982 122 1056 190 q 808 15 908 53 q 590 -22 708 -22 m 589 243 q 674 260 635 243 q 744 308 714 276 q 790 384 774 339 q 807 486 807 429 q 790 588 807 543 q 744 665 774 633 q 674 713 714 696 q 589 729 635 729 q 503 713 543 729 q 434 665 464 696 q 388 588 404 633 q 371 486 371 543 q 388 384 371 429 q 434 308 404 339 q 503 260 464 276 q 589 243 543 243 z "},"Ȏ":{"ha":1178,"x_min":40,"x_max":1138,"o":"m 590 -22 q 370 15 471 -22 q 196 122 269 53 q 81 283 122 190 q 40 486 40 376 q 81 690 40 597 q 196 851 122 782 q 370 957 269 919 q 589 994 471 994 q 808 957 708 994 q 982 851 908 919 q 1097 690 1056 782 q 1138 486 1138 597 q 1097 283 1138 376 q 982 122 1056 190 q 808 15 908 53 q 590 -22 708 -22 m 589 243 q 674 260 635 243 q 744 308 714 276 q 790 384 774 339 q 807 486 807 429 q 790 588 807 543 q 744 665 774 633 q 674 713 714 696 q 589 729 635 729 q 503 713 543 729 q 434 665 464 696 q 388 588 404 633 q 371 486 371 543 q 388 384 371 429 q 434 308 404 339 q 503 260 464 276 q 589 243 543 243 z "},"Ō":{"ha":1178,"x_min":40,"x_max":1138,"o":"m 590 -22 q 370 15 471 -22 q 196 122 269 53 q 81 283 122 190 q 40 486 40 376 q 81 690 40 597 q 196 851 122 782 q 370 957 269 919 q 589 994 471 994 q 808 957 708 994 q 982 851 908 919 q 1097 690 1056 782 q 1138 486 1138 597 q 1097 283 1138 376 q 982 122 1056 190 q 808 15 908 53 q 590 -22 708 -22 m 589 243 q 674 260 635 243 q 744 308 714 276 q 790 384 774 339 q 807 486 807 429 q 790 588 807 543 q 744 665 774 633 q 674 713 714 696 q 589 729 635 729 q 503 713 543 729 q 434 665 464 696 q 388 588 404 633 q 371 486 371 543 q 388 384 371 429 q 434 308 404 339 q 503 260 464 276 q 589 243 543 243 z "},"Ṓ":{"ha":1178,"x_min":40,"x_max":1138,"o":"m 590 -22 q 370 15 471 -22 q 196 122 269 53 q 81 283 122 190 q 40 486 40 376 q 81 690 40 597 q 196 851 122 782 q 370 957 269 919 q 589 994 471 994 q 808 957 708 994 q 982 851 908 919 q 1097 690 1056 782 q 1138 486 1138 597 q 1097 283 1138 376 q 982 122 1056 190 q 808 15 908 53 q 590 -22 708 -22 m 589 243 q 674 260 635 243 q 744 308 714 276 q 790 384 774 339 q 807 486 807 429 q 790 588 807 543 q 744 665 774 633 q 674 713 714 696 q 589 729 635 729 q 503 713 543 729 q 434 665 464 696 q 388 588 404 633 q 371 486 371 543 q 388 384 371 429 q 434 308 404 339 q 503 260 464 276 q 589 243 543 243 z "},"Ṑ":{"ha":1178,"x_min":40,"x_max":1138,"o":"m 590 -22 q 370 15 471 -22 q 196 122 269 53 q 81 283 122 190 q 40 486 40 376 q 81 690 40 597 q 196 851 122 782 q 370 957 269 919 q 589 994 471 994 q 808 957 708 994 q 982 851 908 919 q 1097 690 1056 782 q 1138 486 1138 597 q 1097 283 1138 376 q 982 122 1056 190 q 808 15 908 53 q 590 -22 708 -22 m 589 243 q 674 260 635 243 q 744 308 714 276 q 790 384 774 339 q 807 486 807 429 q 790 588 807 543 q 744 665 774 633 q 674 713 714 696 q 589 729 635 729 q 503 713 543 729 q 434 665 464 696 q 388 588 404 633 q 371 486 371 543 q 388 384 371 429 q 434 308 404 339 q 503 260 464 276 q 589 243 543 243 z "},"Ǫ":{"ha":1178,"x_min":40,"x_max":1138,"o":"m 638 -333 q 476 -287 533 -333 q 418 -162 418 -240 q 445 -67 418 -111 q 524 11 472 -24 q 650 68 576 46 l 667 -18 q 622 -21 640 -19 q 589 -22 604 -22 q 370 15 471 -22 q 196 122 269 53 q 81 283 122 190 q 40 486 40 376 q 81 690 40 597 q 196 851 122 782 q 370 957 269 919 q 589 994 471 994 q 808 957 708 994 q 982 851 908 919 q 1097 690 1056 782 q 1138 486 1138 597 q 1091 271 1138 367 q 965 108 1044 175 q 783 7 885 42 q 674 -40 714 -17 q 617 -87 633 -64 q 601 -135 601 -111 q 619 -175 601 -158 q 675 -192 636 -192 q 720 -185 699 -192 q 757 -172 742 -179 l 794 -301 q 726 -324 769 -315 q 638 -333 682 -333 m 589 243 q 674 260 635 243 q 744 308 714 276 q 790 384 774 339 q 807 486 807 429 q 790 588 807 543 q 744 665 774 633 q 674 713 714 696 q 589 729 635 729 q 503 713 543 729 q 434 665 464 696 q 388 588 404 633 q 371 486 371 543 q 388 384 371 429 q 434 308 404 339 q 503 260 464 276 q 589 243 543 243 z "},"Ø":{"ha":1178,"x_min":40,"x_max":1138,"o":"m 590 -22 q 370 15 471 -22 q 196 122 269 53 q 81 283 122 190 q 40 486 40 376 q 81 690 40 597 q 196 851 122 782 q 370 957 269 919 q 589 994 471 994 q 808 957 708 994 q 982 851 908 919 q 1097 690 1056 782 q 1138 486 1138 597 q 1097 283 1138 376 q 982 122 1056 190 q 808 15 908 53 q 590 -22 708 -22 m 589 243 q 674 260 635 243 q 744 308 714 276 q 790 384 774 339 q 807 486 807 429 q 790 588 807 543 q 744 665 774 633 q 674 713 714 696 q 589 729 635 729 q 503 713 543 729 q 434 665 464 696 q 388 588 404 633 q 371 486 371 543 q 388 384 371 429 q 434 308 404 339 q 503 260 464 276 q 589 243 543 243 m 85 -97 l 913 1069 l 1093 1069 l 265 -97 l 85 -97 z "},"Ǿ":{"ha":1178,"x_min":40,"x_max":1138,"o":"m 590 -22 q 370 15 471 -22 q 196 122 269 53 q 81 283 122 190 q 40 486 40 376 q 81 690 40 597 q 196 851 122 782 q 370 957 269 919 q 589 994 471 994 q 808 957 708 994 q 982 851 908 919 q 1097 690 1056 782 q 1138 486 1138 597 q 1097 283 1138 376 q 982 122 1056 190 q 808 15 908 53 q 590 -22 708 -22 m 589 243 q 674 260 635 243 q 744 308 714 276 q 790 384 774 339 q 807 486 807 429 q 790 588 807 543 q 744 665 774 633 q 674 713 714 696 q 589 729 635 729 q 503 713 543 729 q 434 665 464 696 q 388 588 404 633 q 371 486 371 543 q 388 384 371 429 q 434 308 404 339 q 503 260 464 276 q 589 243 543 243 m 85 -97 l 913 1069 l 1093 1069 l 265 -97 l 85 -97 z "},"Õ":{"ha":1178,"x_min":40,"x_max":1138,"o":"m 590 -22 q 370 15 471 -22 q 196 122 269 53 q 81 283 122 190 q 40 486 40 376 q 81 690 40 597 q 196 851 122 782 q 370 957 269 919 q 589 994 471 994 q 808 957 708 994 q 982 851 908 919 q 1097 690 1056 782 q 1138 486 1138 597 q 1097 283 1138 376 q 982 122 1056 190 q 808 15 908 53 q 590 -22 708 -22 m 589 243 q 674 260 635 243 q 744 308 714 276 q 790 384 774 339 q 807 486 807 429 q 790 588 807 543 q 744 665 774 633 q 674 713 714 696 q 589 729 635 729 q 503 713 543 729 q 434 665 464 696 q 388 588 404 633 q 371 486 371 543 q 388 384 371 429 q 434 308 404 339 q 503 260 464 276 q 589 243 543 243 z "},"Ṍ":{"ha":1178,"x_min":40,"x_max":1138,"o":"m 590 -22 q 370 15 471 -22 q 196 122 269 53 q 81 283 122 190 q 40 486 40 376 q 81 690 40 597 q 196 851 122 782 q 370 957 269 919 q 589 994 471 994 q 808 957 708 994 q 982 851 908 919 q 1097 690 1056 782 q 1138 486 1138 597 q 1097 283 1138 376 q 982 122 1056 190 q 808 15 908 53 q 590 -22 708 -22 m 589 243 q 674 260 635 243 q 744 308 714 276 q 790 384 774 339 q 807 486 807 429 q 790 588 807 543 q 744 665 774 633 q 674 713 714 696 q 589 729 635 729 q 503 713 543 729 q 434 665 464 696 q 388 588 404 633 q 371 486 371 543 q 388 384 371 429 q 434 308 404 339 q 503 260 464 276 q 589 243 543 243 z "},"Ṏ":{"ha":1178,"x_min":40,"x_max":1138,"o":"m 590 -22 q 370 15 471 -22 q 196 122 269 53 q 81 283 122 190 q 40 486 40 376 q 81 690 40 597 q 196 851 122 782 q 370 957 269 919 q 589 994 471 994 q 808 957 708 994 q 982 851 908 919 q 1097 690 1056 782 q 1138 486 1138 597 q 1097 283 1138 376 q 982 122 1056 190 q 808 15 908 53 q 590 -22 708 -22 m 589 243 q 674 260 635 243 q 744 308 714 276 q 790 384 774 339 q 807 486 807 429 q 790 588 807 543 q 744 665 774 633 q 674 713 714 696 q 589 729 635 729 q 503 713 543 729 q 434 665 464 696 q 388 588 404 633 q 371 486 371 543 q 388 384 371 429 q 434 308 404 339 q 503 260 464 276 q 589 243 543 243 z "},"Ȭ":{"ha":1178,"x_min":40,"x_max":1138,"o":"m 590 -22 q 370 15 471 -22 q 196 122 269 53 q 81 283 122 190 q 40 486 40 376 q 81 690 40 597 q 196 851 122 782 q 370 957 269 919 q 589 994 471 994 q 808 957 708 994 q 982 851 908 919 q 1097 690 1056 782 q 1138 486 1138 597 q 1097 283 1138 376 q 982 122 1056 190 q 808 15 908 53 q 590 -22 708 -22 m 589 243 q 674 260 635 243 q 744 308 714 276 q 790 384 774 339 q 807 486 807 429 q 790 588 807 543 q 744 665 774 633 q 674 713 714 696 q 589 729 635 729 q 503 713 543 729 q 434 665 464 696 q 388 588 404 633 q 371 486 371 543 q 388 384 371 429 q 434 308 404 339 q 503 260 464 276 q 589 243 543 243 z "},"Œ":{"ha":1596,"x_min":40,"x_max":1549,"o":"m 589 0 q 303 59 426 0 q 110 227 179 118 q 40 488 40 336 q 110 746 40 638 q 303 913 179 854 q 589 972 426 972 l 824 972 l 824 717 l 603 717 q 482 690 535 717 q 400 613 429 664 q 371 488 371 561 q 400 360 371 413 q 482 282 429 308 q 603 256 535 256 l 824 256 l 824 0 l 589 0 m 1040 611 l 1474 611 l 1474 375 l 1040 375 l 1040 611 m 1063 247 l 1549 247 l 1549 0 l 740 0 l 740 972 l 1531 972 l 1531 725 l 1063 725 l 1063 247 z "},"P":{"ha":1032,"x_min":79,"x_max":990,"o":"m 79 0 l 79 972 l 547 972 q 783 928 683 972 q 936 801 882 883 q 990 606 990 718 q 936 411 990 493 q 783 284 882 329 q 547 239 683 239 l 261 239 l 407 379 l 407 0 l 79 0 m 407 343 l 261 492 l 526 492 q 627 522 594 492 q 660 606 660 553 q 627 689 660 658 q 526 719 594 719 l 261 719 l 407 868 l 407 343 z "},"Þ":{"ha":1032,"x_min":79,"x_max":990,"o":"m 340 146 l 340 399 l 526 399 q 627 429 594 399 q 660 513 660 460 q 627 596 660 565 q 526 626 594 626 l 340 626 l 340 879 l 547 879 q 783 835 683 879 q 936 708 882 790 q 990 513 990 625 q 936 317 990 400 q 783 190 882 235 q 547 146 683 146 l 340 146 m 79 0 l 79 974 l 407 974 l 407 0 l 79 0 z "},"Q":{"ha":1178,"x_min":40,"x_max":1190,"o":"m 589 -22 q 370 15 471 -22 q 196 122 269 53 q 81 283 122 190 q 40 486 40 376 q 81 690 40 597 q 196 851 122 782 q 370 957 269 919 q 589 994 471 994 q 808 957 708 994 q 982 851 908 919 q 1097 690 1056 782 q 1138 486 1138 597 q 1097 283 1138 376 q 982 122 1056 190 q 808 15 908 53 q 589 -22 708 -22 m 907 -246 q 781 -233 839 -246 q 667 -189 722 -219 q 553 -105 613 -158 q 419 28 493 -51 l 758 111 q 815 32 792 60 q 862 -7 839 4 q 914 -18 885 -18 q 1049 44 986 -18 l 1190 -122 q 907 -246 1086 -246 m 589 243 q 674 260 635 243 q 744 308 714 276 q 790 384 774 339 q 807 486 807 429 q 790 588 807 543 q 744 665 774 633 q 674 713 714 696 q 589 729 635 729 q 503 713 543 729 q 434 665 464 696 q 388 588 404 633 q 371 486 371 543 q 388 384 371 429 q 434 308 404 339 q 503 260 464 276 q 589 243 543 243 z "},"R":{"ha":1035,"x_min":79,"x_max":1011,"o":"m 79 0 l 79 972 l 547 972 q 783 928 683 972 q 936 801 882 883 q 990 606 990 718 q 936 412 990 493 q 783 288 882 331 q 547 244 683 244 l 261 244 l 407 379 l 407 0 l 79 0 m 661 0 l 422 354 l 769 354 l 1011 0 l 661 0 m 407 343 l 261 492 l 526 492 q 627 522 594 492 q 660 606 660 553 q 627 689 660 658 q 526 719 594 719 l 261 719 l 407 868 l 407 343 z "},"Ŕ":{"ha":1035,"x_min":79,"x_max":1011,"o":"m 79 0 l 79 972 l 547 972 q 783 928 683 972 q 936 801 882 883 q 990 606 990 718 q 936 412 990 493 q 783 288 882 331 q 547 244 683 244 l 261 244 l 407 379 l 407 0 l 79 0 m 661 0 l 422 354 l 769 354 l 1011 0 l 661 0 m 407 343 l 261 492 l 526 492 q 627 522 594 492 q 660 606 660 553 q 627 689 660 658 q 526 719 594 719 l 261 719 l 407 868 l 407 343 z "},"Ř":{"ha":1035,"x_min":79,"x_max":1011,"o":"m 79 0 l 79 972 l 547 972 q 783 928 683 972 q 936 801 882 883 q 990 606 990 718 q 936 412 990 493 q 783 288 882 331 q 547 244 683 244 l 261 244 l 407 379 l 407 0 l 79 0 m 661 0 l 422 354 l 769 354 l 1011 0 l 661 0 m 407 343 l 261 492 l 526 492 q 627 522 594 492 q 660 606 660 553 q 627 689 660 658 q 526 719 594 719 l 261 719 l 407 868 l 407 343 z "},"Ŗ":{"ha":1035,"x_min":79,"x_max":1011,"o":"m 79 0 l 79 972 l 547 972 q 783 928 683 972 q 936 801 882 883 q 990 606 990 718 q 936 412 990 493 q 783 288 882 331 q 547 244 683 244 l 261 244 l 407 379 l 407 0 l 79 0 m 661 0 l 422 354 l 769 354 l 1011 0 l 661 0 m 407 343 l 261 492 l 526 492 q 627 522 594 492 q 660 606 660 553 q 627 689 660 658 q 526 719 594 719 l 261 719 l 407 868 l 407 343 m 425 -375 l 492 -174 l 526 -275 q 433 -248 464 -275 q 401 -174 401 -221 q 435 -98 401 -126 q 526 -69 468 -69 q 618 -98 585 -69 q 651 -174 651 -126 q 645 -220 651 -193 q 617 -285 639 -247 l 563 -375 l 425 -375 z "},"Ȑ":{"ha":1035,"x_min":79,"x_max":1011,"o":"m 79 0 l 79 972 l 547 972 q 783 928 683 972 q 936 801 882 883 q 990 606 990 718 q 936 412 990 493 q 783 288 882 331 q 547 244 683 244 l 261 244 l 407 379 l 407 0 l 79 0 m 661 0 l 422 354 l 769 354 l 1011 0 l 661 0 m 407 343 l 261 492 l 526 492 q 627 522 594 492 q 660 606 660 553 q 627 689 660 658 q 526 719 594 719 l 261 719 l 407 868 l 407 343 z "},"Ṛ":{"ha":1035,"x_min":79,"x_max":1011,"o":"m 79 0 l 79 972 l 547 972 q 783 928 683 972 q 936 801 882 883 q 990 606 990 718 q 936 412 990 493 q 783 288 882 331 q 547 244 683 244 l 261 244 l 407 379 l 407 0 l 79 0 m 661 0 l 422 354 l 769 354 l 1011 0 l 661 0 m 407 343 l 261 492 l 526 492 q 627 522 594 492 q 660 606 660 553 q 627 689 660 658 q 526 719 594 719 l 261 719 l 407 868 l 407 343 m 526 -314 q 438 -281 474 -314 q 401 -193 401 -249 q 438 -103 401 -137 q 526 -69 474 -69 q 615 -103 579 -69 q 651 -193 651 -137 q 615 -281 651 -249 q 526 -314 579 -314 z "},"Ȓ":{"ha":1035,"x_min":79,"x_max":1011,"o":"m 79 0 l 79 972 l 547 972 q 783 928 683 972 q 936 801 882 883 q 990 606 990 718 q 936 412 990 493 q 783 288 882 331 q 547 244 683 244 l 261 244 l 407 379 l 407 0 l 79 0 m 661 0 l 422 354 l 769 354 l 1011 0 l 661 0 m 407 343 l 261 492 l 526 492 q 627 522 594 492 q 660 606 660 553 q 627 689 660 658 q 526 719 594 719 l 261 719 l 407 868 l 407 343 z "},"Ṟ":{"ha":1035,"x_min":79,"x_max":1011,"o":"m 79 0 l 79 972 l 547 972 q 783 928 683 972 q 936 801 882 883 q 990 606 990 718 q 936 412 990 493 q 783 288 882 331 q 547 244 683 244 l 261 244 l 407 379 l 407 0 l 79 0 m 661 0 l 422 354 l 769 354 l 1011 0 l 661 0 m 407 343 l 261 492 l 526 492 q 627 522 594 492 q 660 606 660 553 q 627 689 660 658 q 526 719 594 719 l 261 719 l 407 868 l 407 343 m 235 -267 l 235 -103 l 818 -103 l 818 -267 l 235 -267 z "},"S":{"ha":913,"x_min":18,"x_max":894,"o":"m 442 -22 q 206 6 319 -22 q 18 78 92 33 l 124 317 q 278 252 193 276 q 444 228 364 228 q 519 234 492 228 q 558 252 546 240 q 571 281 571 264 q 542 322 571 307 q 465 348 513 338 q 360 370 417 358 q 245 401 303 382 q 140 453 188 421 q 63 537 92 485 q 33 667 33 589 q 84 831 33 757 q 235 950 135 906 q 486 994 336 994 q 681 974 585 994 q 853 910 776 953 l 754 672 q 615 726 682 708 q 483 744 547 744 q 408 736 436 744 q 369 714 381 728 q 357 683 357 700 q 386 644 357 658 q 463 619 415 629 q 569 599 511 610 q 683 568 626 588 q 788 517 740 549 q 865 433 836 485 q 894 306 894 382 q 844 142 894 217 q 693 23 793 68 q 442 -22 593 -22 z "},"Ś":{"ha":913,"x_min":18,"x_max":894,"o":"m 442 -22 q 206 6 319 -22 q 18 78 92 33 l 124 317 q 278 252 193 276 q 444 228 364 228 q 519 234 492 228 q 558 252 546 240 q 571 281 571 264 q 542 322 571 307 q 465 348 513 338 q 360 370 417 358 q 245 401 303 382 q 140 453 188 421 q 63 537 92 485 q 33 667 33 589 q 84 831 33 757 q 235 950 135 906 q 486 994 336 994 q 681 974 585 994 q 853 910 776 953 l 754 672 q 615 726 682 708 q 483 744 547 744 q 408 736 436 744 q 369 714 381 728 q 357 683 357 700 q 386 644 357 658 q 463 619 415 629 q 569 599 511 610 q 683 568 626 588 q 788 517 740 549 q 865 433 836 485 q 894 306 894 382 q 844 142 894 217 q 693 23 793 68 q 442 -22 593 -22 z "},"Ṥ":{"ha":913,"x_min":18,"x_max":894,"o":"m 442 -22 q 206 6 319 -22 q 18 78 92 33 l 124 317 q 278 252 193 276 q 444 228 364 228 q 519 234 492 228 q 558 252 546 240 q 571 281 571 264 q 542 322 571 307 q 465 348 513 338 q 360 370 417 358 q 245 401 303 382 q 140 453 188 421 q 63 537 92 485 q 33 667 33 589 q 84 831 33 757 q 235 950 135 906 q 486 994 336 994 q 681 974 585 994 q 853 910 776 953 l 754 672 q 615 726 682 708 q 483 744 547 744 q 408 736 436 744 q 369 714 381 728 q 357 683 357 700 q 386 644 357 658 q 463 619 415 629 q 569 599 511 610 q 683 568 626 588 q 788 517 740 549 q 865 433 836 485 q 894 306 894 382 q 844 142 894 217 q 693 23 793 68 q 442 -22 593 -22 z "},"Ꞌ":{"ha":475,"x_min":76,"x_max":399,"o":"m 76 411 l 76 974 l 399 974 l 357 411 l 76 411 z "},"Š":{"ha":913,"x_min":18,"x_max":894,"o":"m 442 -22 q 206 6 319 -22 q 18 78 92 33 l 124 317 q 278 252 193 276 q 444 228 364 228 q 519 234 492 228 q 558 252 546 240 q 571 281 571 264 q 542 322 571 307 q 465 348 513 338 q 360 370 417 358 q 245 401 303 382 q 140 453 188 421 q 63 537 92 485 q 33 667 33 589 q 84 831 33 757 q 235 950 135 906 q 486 994 336 994 q 681 974 585 994 q 853 910 776 953 l 754 672 q 615 726 682 708 q 483 744 547 744 q 408 736 436 744 q 369 714 381 728 q 357 683 357 700 q 386 644 357 658 q 463 619 415 629 q 569 599 511 610 q 683 568 626 588 q 788 517 740 549 q 865 433 836 485 q 894 306 894 382 q 844 142 894 217 q 693 23 793 68 q 442 -22 593 -22 z "},"Ṧ":{"ha":913,"x_min":18,"x_max":894,"o":"m 442 -22 q 206 6 319 -22 q 18 78 92 33 l 124 317 q 278 252 193 276 q 444 228 364 228 q 519 234 492 228 q 558 252 546 240 q 571 281 571 264 q 542 322 571 307 q 465 348 513 338 q 360 370 417 358 q 245 401 303 382 q 140 453 188 421 q 63 537 92 485 q 33 667 33 589 q 84 831 33 757 q 235 950 135 906 q 486 994 336 994 q 681 974 585 994 q 853 910 776 953 l 754 672 q 615 726 682 708 q 483 744 547 744 q 408 736 436 744 q 369 714 381 728 q 357 683 357 700 q 386 644 357 658 q 463 619 415 629 q 569 599 511 610 q 683 568 626 588 q 788 517 740 549 q 865 433 836 485 q 894 306 894 382 q 844 142 894 217 q 693 23 793 68 q 442 -22 593 -22 z "},"Ş":{"ha":913,"x_min":18,"x_max":894,"o":"m 442 -22 q 206 6 319 -22 q 18 78 92 33 l 124 317 q 278 252 193 276 q 444 228 364 228 q 519 234 492 228 q 558 252 546 240 q 571 281 571 264 q 542 322 571 307 q 465 348 513 338 q 360 370 417 358 q 245 401 303 382 q 140 453 188 421 q 63 537 92 485 q 33 667 33 589 q 84 831 33 757 q 235 950 135 906 q 486 994 336 994 q 681 974 585 994 q 853 910 776 953 l 754 672 q 615 726 682 708 q 483 744 547 744 q 408 736 436 744 q 369 714 381 728 q 357 683 357 700 q 386 644 357 658 q 463 619 415 629 q 569 599 511 610 q 683 568 626 588 q 788 517 740 549 q 865 433 836 485 q 894 306 894 382 q 844 142 894 217 q 693 23 793 68 q 442 -22 593 -22 m 400 -333 q 326 -325 365 -333 q 264 -304 288 -317 l 303 -189 q 340 -200 318 -194 q 386 -206 361 -206 q 438 -196 422 -206 q 453 -172 453 -186 q 440 -152 453 -160 q 396 -144 426 -144 l 339 -144 l 376 14 l 538 14 l 518 -72 q 610 -114 583 -81 q 636 -183 636 -147 q 572 -293 636 -253 q 400 -333 507 -333 z "},"Ŝ":{"ha":913,"x_min":18,"x_max":894,"o":"m 442 -22 q 206 6 319 -22 q 18 78 92 33 l 124 317 q 278 252 193 276 q 444 228 364 228 q 519 234 492 228 q 558 252 546 240 q 571 281 571 264 q 542 322 571 307 q 465 348 513 338 q 360 370 417 358 q 245 401 303 382 q 140 453 188 421 q 63 537 92 485 q 33 667 33 589 q 84 831 33 757 q 235 950 135 906 q 486 994 336 994 q 681 974 585 994 q 853 910 776 953 l 754 672 q 615 726 682 708 q 483 744 547 744 q 408 736 436 744 q 369 714 381 728 q 357 683 357 700 q 386 644 357 658 q 463 619 415 629 q 569 599 511 610 q 683 568 626 588 q 788 517 740 549 q 865 433 836 485 q 894 306 894 382 q 844 142 894 217 q 693 23 793 68 q 442 -22 593 -22 z "},"Ș":{"ha":913,"x_min":18,"x_max":894,"o":"m 442 -22 q 206 6 319 -22 q 18 78 92 33 l 124 317 q 278 252 193 276 q 444 228 364 228 q 519 234 492 228 q 558 252 546 240 q 571 281 571 264 q 542 322 571 307 q 465 348 513 338 q 360 370 417 358 q 245 401 303 382 q 140 453 188 421 q 63 537 92 485 q 33 667 33 589 q 84 831 33 757 q 235 950 135 906 q 486 994 336 994 q 681 974 585 994 q 853 910 776 953 l 754 672 q 615 726 682 708 q 483 744 547 744 q 408 736 436 744 q 369 714 381 728 q 357 683 357 700 q 386 644 357 658 q 463 619 415 629 q 569 599 511 610 q 683 568 626 588 q 788 517 740 549 q 865 433 836 485 q 894 306 894 382 q 844 142 894 217 q 693 23 793 68 q 442 -22 593 -22 m 356 -375 l 422 -174 l 457 -275 q 363 -248 394 -275 q 332 -174 332 -221 q 365 -98 332 -126 q 457 -69 399 -69 q 549 -98 515 -69 q 582 -174 582 -126 q 576 -220 582 -193 q 547 -285 569 -247 l 493 -375 l 356 -375 z "},"Ṡ":{"ha":913,"x_min":18,"x_max":894,"o":"m 442 -22 q 206 6 319 -22 q 18 78 92 33 l 124 317 q 278 252 193 276 q 444 228 364 228 q 519 234 492 228 q 558 252 546 240 q 571 281 571 264 q 542 322 571 307 q 465 348 513 338 q 360 370 417 358 q 245 401 303 382 q 140 453 188 421 q 63 537 92 485 q 33 667 33 589 q 84 831 33 757 q 235 950 135 906 q 486 994 336 994 q 681 974 585 994 q 853 910 776 953 l 754 672 q 615 726 682 708 q 483 744 547 744 q 408 736 436 744 q 369 714 381 728 q 357 683 357 700 q 386 644 357 658 q 463 619 415 629 q 569 599 511 610 q 683 568 626 588 q 788 517 740 549 q 865 433 836 485 q 894 306 894 382 q 844 142 894 217 q 693 23 793 68 q 442 -22 593 -22 z "},"Ṣ":{"ha":913,"x_min":18,"x_max":894,"o":"m 442 -22 q 206 6 319 -22 q 18 78 92 33 l 124 317 q 278 252 193 276 q 444 228 364 228 q 519 234 492 228 q 558 252 546 240 q 571 281 571 264 q 542 322 571 307 q 465 348 513 338 q 360 370 417 358 q 245 401 303 382 q 140 453 188 421 q 63 537 92 485 q 33 667 33 589 q 84 831 33 757 q 235 950 135 906 q 486 994 336 994 q 681 974 585 994 q 853 910 776 953 l 754 672 q 615 726 682 708 q 483 744 547 744 q 408 736 436 744 q 369 714 381 728 q 357 683 357 700 q 386 644 357 658 q 463 619 415 629 q 569 599 511 610 q 683 568 626 588 q 788 517 740 549 q 865 433 836 485 q 894 306 894 382 q 844 142 894 217 q 693 23 793 68 q 442 -22 593 -22 m 457 -314 q 368 -281 404 -314 q 332 -193 332 -249 q 368 -103 332 -137 q 457 -69 404 -69 q 546 -103 510 -69 q 582 -193 582 -137 q 546 -281 582 -249 q 457 -314 510 -314 z "},"Ṩ":{"ha":913,"x_min":18,"x_max":894,"o":"m 442 -22 q 206 6 319 -22 q 18 78 92 33 l 124 317 q 278 252 193 276 q 444 228 364 228 q 519 234 492 228 q 558 252 546 240 q 571 281 571 264 q 542 322 571 307 q 465 348 513 338 q 360 370 417 358 q 245 401 303 382 q 140 453 188 421 q 63 537 92 485 q 33 667 33 589 q 84 831 33 757 q 235 950 135 906 q 486 994 336 994 q 681 974 585 994 q 853 910 776 953 l 754 672 q 615 726 682 708 q 483 744 547 744 q 408 736 436 744 q 369 714 381 728 q 357 683 357 700 q 386 644 357 658 q 463 619 415 629 q 569 599 511 610 q 683 568 626 588 q 788 517 740 549 q 865 433 836 485 q 894 306 894 382 q 844 142 894 217 q 693 23 793 68 q 442 -22 593 -22 m 457 -314 q 368 -281 404 -314 q 332 -193 332 -249 q 368 -103 332 -137 q 457 -69 404 -69 q 546 -103 510 -69 q 582 -193 582 -137 q 546 -281 582 -249 q 457 -314 510 -314 z "},"ẞ":{"ha":1108,"x_min":71,"x_max":1072,"o":"m 686 -22 q 565 -14 618 -22 q 468 10 511 -6 l 513 254 q 570 235 538 243 q 631 228 603 228 q 715 248 688 228 q 742 307 742 268 q 715 366 742 346 q 635 386 689 386 q 589 383 611 386 q 549 372 567 379 l 493 504 l 817 882 l 838 676 q 728 726 783 708 q 603 744 672 744 q 450 685 501 744 q 399 519 399 626 l 399 0 l 71 0 l 71 526 q 132 776 71 671 q 311 938 193 881 q 599 994 429 994 q 728 984 660 994 q 860 953 796 974 q 969 903 924 932 l 969 715 l 724 428 l 601 597 q 649 606 624 603 q 704 608 674 608 q 884 571 800 608 q 1020 463 968 533 q 1072 293 1072 393 q 1020 124 1072 194 q 881 15 968 53 q 686 -22 793 -22 z "},"Ə":{"ha":1136,"x_min":40,"x_max":1096,"o":"m 568 -22 q 354 15 451 -22 q 187 120 257 51 q 78 285 117 189 q 40 500 40 382 l 40 553 l 800 553 l 800 372 l 265 372 l 371 431 q 383 342 371 381 q 421 275 396 303 q 483 233 446 247 q 568 218 519 218 q 653 233 617 218 q 715 275 690 247 q 753 342 740 303 q 765 431 765 381 l 765 500 q 749 592 765 550 q 702 665 732 635 q 631 713 672 696 q 538 729 589 729 q 453 716 500 729 q 363 677 407 703 q 289 615 319 651 l 96 814 q 213 905 142 864 q 368 970 283 946 q 540 994 453 994 q 765 958 663 994 q 941 853 867 921 q 1056 692 1015 785 q 1096 486 1096 599 q 1056 280 1096 374 q 946 119 1017 186 q 778 15 875 51 q 568 -22 682 -22 z "},"T":{"ha":908,"x_min":6,"x_max":903,"o":"m 290 0 l 290 718 l 6 718 l 6 972 l 903 972 l 903 718 l 618 718 l 618 0 l 290 0 z "},"Ŧ":{"ha":908,"x_min":6,"x_max":903,"o":"m 290 0 l 290 718 l 6 718 l 6 972 l 903 972 l 903 718 l 618 718 l 618 0 l 290 0 m 128 343 l 128 532 l 781 532 l 781 343 l 128 343 z "},"Ť":{"ha":908,"x_min":6,"x_max":903,"o":"m 290 0 l 290 718 l 6 718 l 6 972 l 903 972 l 903 718 l 618 718 l 618 0 l 290 0 z "},"Ţ":{"ha":908,"x_min":6,"x_max":903,"o":"m 290 0 l 290 718 l 6 718 l 6 972 l 903 972 l 903 718 l 618 718 l 618 0 l 290 0 m 397 -333 q 324 -325 363 -333 q 261 -304 285 -317 l 300 -189 q 337 -200 315 -194 q 383 -206 358 -206 q 435 -196 419 -206 q 450 -172 450 -186 q 437 -152 450 -160 q 393 -144 424 -144 l 336 -144 l 374 14 l 535 14 l 515 -72 q 607 -114 581 -81 q 633 -183 633 -147 q 569 -293 633 -253 q 397 -333 504 -333 z "},"Ț":{"ha":908,"x_min":6,"x_max":903,"o":"m 290 0 l 290 718 l 6 718 l 6 972 l 903 972 l 903 718 l 618 718 l 618 0 l 290 0 m 353 -375 l 419 -174 l 454 -275 q 360 -248 392 -275 q 329 -174 329 -221 q 363 -98 329 -126 q 454 -69 396 -69 q 546 -98 513 -69 q 579 -174 579 -126 q 573 -220 579 -193 q 544 -285 567 -247 l 490 -375 l 353 -375 z "},"Ṭ":{"ha":908,"x_min":6,"x_max":903,"o":"m 290 0 l 290 718 l 6 718 l 6 972 l 903 972 l 903 718 l 618 718 l 618 0 l 290 0 m 454 -314 q 365 -281 401 -314 q 329 -193 329 -249 q 365 -103 329 -137 q 454 -69 401 -69 q 543 -103 507 -69 q 579 -193 579 -137 q 543 -281 579 -249 q 454 -314 507 -314 z "},"Ṯ":{"ha":908,"x_min":6,"x_max":903,"o":"m 290 0 l 290 718 l 6 718 l 6 972 l 903 972 l 903 718 l 618 718 l 618 0 l 290 0 m 163 -267 l 163 -103 l 746 -103 l 746 -267 l 163 -267 z "},"U":{"ha":1089,"x_min":71,"x_max":1018,"o":"m 544 -22 q 196 99 321 -22 q 71 438 71 219 l 71 972 l 399 972 l 399 447 q 439 290 399 336 q 547 243 479 243 q 656 290 617 243 q 696 447 696 336 l 696 972 l 1018 972 l 1018 438 q 893 99 1018 219 q 544 -22 768 -22 z "},"Ú":{"ha":1089,"x_min":71,"x_max":1018,"o":"m 544 -22 q 196 99 321 -22 q 71 438 71 219 l 71 972 l 399 972 l 399 447 q 439 290 399 336 q 547 243 479 243 q 656 290 617 243 q 696 447 696 336 l 696 972 l 1018 972 l 1018 438 q 893 99 1018 219 q 544 -22 768 -22 z "},"Ŭ":{"ha":1089,"x_min":71,"x_max":1018,"o":"m 544 -22 q 196 99 321 -22 q 71 438 71 219 l 71 972 l 399 972 l 399 447 q 439 290 399 336 q 547 243 479 243 q 656 290 617 243 q 696 447 696 336 l 696 972 l 1018 972 l 1018 438 q 893 99 1018 219 q 544 -22 768 -22 z "},"Ǔ":{"ha":1089,"x_min":71,"x_max":1018,"o":"m 544 -22 q 196 99 321 -22 q 71 438 71 219 l 71 972 l 399 972 l 399 447 q 439 290 399 336 q 547 243 479 243 q 656 290 617 243 q 696 447 696 336 l 696 972 l 1018 972 l 1018 438 q 893 99 1018 219 q 544 -22 768 -22 z "},"Û":{"ha":1089,"x_min":71,"x_max":1018,"o":"m 544 -22 q 196 99 321 -22 q 71 438 71 219 l 71 972 l 399 972 l 399 447 q 439 290 399 336 q 547 243 479 243 q 656 290 617 243 q 696 447 696 336 l 696 972 l 1018 972 l 1018 438 q 893 99 1018 219 q 544 -22 768 -22 z "},"Ȕ":{"ha":1089,"x_min":71,"x_max":1018,"o":"m 544 -22 q 196 99 321 -22 q 71 438 71 219 l 71 972 l 399 972 l 399 447 q 439 290 399 336 q 547 243 479 243 q 656 290 617 243 q 696 447 696 336 l 696 972 l 1018 972 l 1018 438 q 893 99 1018 219 q 544 -22 768 -22 z "},"Ü":{"ha":1089,"x_min":71,"x_max":1018,"o":"m 544 -22 q 196 99 321 -22 q 71 438 71 219 l 71 972 l 399 972 l 399 447 q 439 290 399 336 q 547 243 479 243 q 656 290 617 243 q 696 447 696 336 l 696 972 l 1018 972 l 1018 438 q 893 99 1018 219 q 544 -22 768 -22 z "},"Ụ":{"ha":1089,"x_min":71,"x_max":1018,"o":"m 544 -22 q 196 99 321 -22 q 71 438 71 219 l 71 972 l 399 972 l 399 447 q 439 290 399 336 q 547 243 479 243 q 656 290 617 243 q 696 447 696 336 l 696 972 l 1018 972 l 1018 438 q 893 99 1018 219 q 544 -22 768 -22 m 547 -314 q 458 -281 494 -314 q 422 -193 422 -249 q 458 -103 422 -137 q 547 -69 494 -69 q 636 -103 600 -69 q 672 -193 672 -137 q 636 -281 672 -249 q 547 -314 600 -314 z "},"Ù":{"ha":1089,"x_min":71,"x_max":1018,"o":"m 544 -22 q 196 99 321 -22 q 71 438 71 219 l 71 972 l 399 972 l 399 447 q 439 290 399 336 q 547 243 479 243 q 656 290 617 243 q 696 447 696 336 l 696 972 l 1018 972 l 1018 438 q 893 99 1018 219 q 544 -22 768 -22 z "},"Ủ":{"ha":1089,"x_min":71,"x_max":1018,"o":"m 544 -22 q 196 99 321 -22 q 71 438 71 219 l 71 972 l 399 972 l 399 447 q 439 290 399 336 q 547 243 479 243 q 656 290 617 243 q 696 447 696 336 l 696 972 l 1018 972 l 1018 438 q 893 99 1018 219 q 544 -22 768 -22 z "},"Ư":{"ha":1117,"x_min":71,"x_max":1181,"o":"m 544 -22 q 196 99 321 -22 q 71 438 71 219 l 71 972 l 399 972 l 399 447 q 439 290 399 336 q 547 243 479 243 q 656 290 617 243 q 696 447 696 336 l 696 972 l 1018 972 l 1018 438 q 893 99 1018 219 q 544 -22 768 -22 m 847 781 l 847 972 l 903 972 q 956 995 932 972 q 979 1057 979 1018 q 972 1101 979 1081 q 951 1136 964 1122 l 1129 1199 q 1167 1130 1153 1168 q 1181 1044 1181 1092 q 1103 849 1181 918 q 889 781 1026 781 l 847 781 z "},"Ứ":{"ha":1117,"x_min":71,"x_max":1181,"o":"m 544 -22 q 196 99 321 -22 q 71 438 71 219 l 71 972 l 399 972 l 399 447 q 439 290 399 336 q 547 243 479 243 q 656 290 617 243 q 696 447 696 336 l 696 972 l 1018 972 l 1018 438 q 893 99 1018 219 q 544 -22 768 -22 m 847 781 l 847 972 l 903 972 q 956 995 932 972 q 979 1057 979 1018 q 972 1101 979 1081 q 951 1136 964 1122 l 1129 1199 q 1167 1130 1153 1168 q 1181 1044 1181 1092 q 1103 849 1181 918 q 889 781 1026 781 l 847 781 z "},"Ự":{"ha":1117,"x_min":71,"x_max":1181,"o":"m 544 -22 q 196 99 321 -22 q 71 438 71 219 l 71 972 l 399 972 l 399 447 q 439 290 399 336 q 547 243 479 243 q 656 290 617 243 q 696 447 696 336 l 696 972 l 1018 972 l 1018 438 q 893 99 1018 219 q 544 -22 768 -22 m 847 781 l 847 972 l 903 972 q 956 995 932 972 q 979 1057 979 1018 q 972 1101 979 1081 q 951 1136 964 1122 l 1129 1199 q 1167 1130 1153 1168 q 1181 1044 1181 1092 q 1103 849 1181 918 q 889 781 1026 781 l 847 781 m 547 -314 q 458 -281 494 -314 q 422 -193 422 -249 q 458 -103 422 -137 q 547 -69 494 -69 q 636 -103 600 -69 q 672 -193 672 -137 q 636 -281 672 -249 q 547 -314 600 -314 z "},"Ừ":{"ha":1117,"x_min":71,"x_max":1181,"o":"m 544 -22 q 196 99 321 -22 q 71 438 71 219 l 71 972 l 399 972 l 399 447 q 439 290 399 336 q 547 243 479 243 q 656 290 617 243 q 696 447 696 336 l 696 972 l 1018 972 l 1018 438 q 893 99 1018 219 q 544 -22 768 -22 m 847 781 l 847 972 l 903 972 q 956 995 932 972 q 979 1057 979 1018 q 972 1101 979 1081 q 951 1136 964 1122 l 1129 1199 q 1167 1130 1153 1168 q 1181 1044 1181 1092 q 1103 849 1181 918 q 889 781 1026 781 l 847 781 z "},"Ử":{"ha":1117,"x_min":71,"x_max":1181,"o":"m 544 -22 q 196 99 321 -22 q 71 438 71 219 l 71 972 l 399 972 l 399 447 q 439 290 399 336 q 547 243 479 243 q 656 290 617 243 q 696 447 696 336 l 696 972 l 1018 972 l 1018 438 q 893 99 1018 219 q 544 -22 768 -22 m 847 781 l 847 972 l 903 972 q 956 995 932 972 q 979 1057 979 1018 q 972 1101 979 1081 q 951 1136 964 1122 l 1129 1199 q 1167 1130 1153 1168 q 1181 1044 1181 1092 q 1103 849 1181 918 q 889 781 1026 781 l 847 781 z "},"Ữ":{"ha":1117,"x_min":71,"x_max":1181,"o":"m 544 -22 q 196 99 321 -22 q 71 438 71 219 l 71 972 l 399 972 l 399 447 q 439 290 399 336 q 547 243 479 243 q 656 290 617 243 q 696 447 696 336 l 696 972 l 1018 972 l 1018 438 q 893 99 1018 219 q 544 -22 768 -22 m 847 781 l 847 972 l 903 972 q 956 995 932 972 q 979 1057 979 1018 q 972 1101 979 1081 q 951 1136 964 1122 l 1129 1199 q 1167 1130 1153 1168 q 1181 1044 1181 1092 q 1103 849 1181 918 q 889 781 1026 781 l 847 781 z "},"Ű":{"ha":1089,"x_min":71,"x_max":1018,"o":"m 544 -22 q 196 99 321 -22 q 71 438 71 219 l 71 972 l 399 972 l 399 447 q 439 290 399 336 q 547 243 479 243 q 656 290 617 243 q 696 447 696 336 l 696 972 l 1018 972 l 1018 438 q 893 99 1018 219 q 544 -22 768 -22 z "},"Ȗ":{"ha":1089,"x_min":71,"x_max":1018,"o":"m 544 -22 q 196 99 321 -22 q 71 438 71 219 l 71 972 l 399 972 l 399 447 q 439 290 399 336 q 547 243 479 243 q 656 290 617 243 q 696 447 696 336 l 696 972 l 1018 972 l 1018 438 q 893 99 1018 219 q 544 -22 768 -22 z "},"Ū":{"ha":1089,"x_min":71,"x_max":1018,"o":"m 544 -22 q 196 99 321 -22 q 71 438 71 219 l 71 972 l 399 972 l 399 447 q 439 290 399 336 q 547 243 479 243 q 656 290 617 243 q 696 447 696 336 l 696 972 l 1018 972 l 1018 438 q 893 99 1018 219 q 544 -22 768 -22 z "},"Ṻ":{"ha":1089,"x_min":71,"x_max":1018,"o":"m 544 -22 q 196 99 321 -22 q 71 438 71 219 l 71 972 l 399 972 l 399 447 q 439 290 399 336 q 547 243 479 243 q 656 290 617 243 q 696 447 696 336 l 696 972 l 1018 972 l 1018 438 q 893 99 1018 219 q 544 -22 768 -22 z "},"Ų":{"ha":1089,"x_min":71,"x_max":1018,"o":"m 696 972 l 1018 972 l 1018 438 q 944 161 1018 265 q 750 10 869 57 q 634 -44 676 -19 q 575 -91 592 -69 q 558 -135 558 -112 q 576 -175 558 -158 q 632 -192 593 -192 q 677 -185 656 -192 q 714 -172 699 -179 l 751 -301 q 683 -324 726 -315 q 594 -333 639 -333 q 433 -287 490 -333 q 375 -162 375 -240 q 402 -67 375 -111 q 481 11 429 -24 q 607 68 533 46 l 614 -19 q 579 -22 596 -21 q 544 -22 563 -22 q 196 99 321 -22 q 71 438 71 219 l 71 972 l 399 972 l 399 447 q 439 290 399 336 q 547 243 479 243 q 656 290 617 243 q 696 447 696 336 l 696 972 z "},"Ů":{"ha":1089,"x_min":71,"x_max":1018,"o":"m 544 -22 q 196 99 321 -22 q 71 438 71 219 l 71 972 l 399 972 l 399 447 q 439 290 399 336 q 547 243 479 243 q 656 290 617 243 q 696 447 696 336 l 696 972 l 1018 972 l 1018 438 q 893 99 1018 219 q 544 -22 768 -22 m 547 1032 q 449 1057 493 1032 q 378 1124 404 1082 q 353 1218 353 1167 q 378 1313 353 1271 q 449 1379 404 1354 q 547 1404 493 1404 q 647 1379 603 1404 q 716 1313 690 1354 q 742 1218 742 1271 q 716 1124 742 1167 q 647 1057 690 1082 q 547 1032 603 1032 m 547 1143 q 601 1164 579 1143 q 622 1218 622 1185 q 601 1272 622 1251 q 547 1293 579 1293 q 494 1272 517 1293 q 472 1218 472 1251 q 494 1164 472 1185 q 547 1143 517 1143 z "},"Ũ":{"ha":1089,"x_min":71,"x_max":1018,"o":"m 544 -22 q 196 99 321 -22 q 71 438 71 219 l 71 972 l 399 972 l 399 447 q 439 290 399 336 q 547 243 479 243 q 656 290 617 243 q 696 447 696 336 l 696 972 l 1018 972 l 1018 438 q 893 99 1018 219 q 544 -22 768 -22 z "},"Ṹ":{"ha":1089,"x_min":71,"x_max":1018,"o":"m 544 -22 q 196 99 321 -22 q 71 438 71 219 l 71 972 l 399 972 l 399 447 q 439 290 399 336 q 547 243 479 243 q 656 290 617 243 q 696 447 696 336 l 696 972 l 1018 972 l 1018 438 q 893 99 1018 219 q 544 -22 768 -22 z "},"V":{"ha":1092,"x_min":-26,"x_max":1118,"o":"m 385 0 l -26 972 l 326 972 l 661 151 l 451 151 l 796 972 l 1118 972 l 707 0 l 385 0 z "},"W":{"ha":1675,"x_min":14,"x_max":1661,"o":"m 325 0 l 14 972 l 351 972 l 603 151 l 433 151 l 700 972 l 1001 972 l 1250 151 l 1088 151 l 1350 972 l 1661 972 l 1350 0 l 999 0 l 796 672 l 890 672 l 676 0 l 325 0 z "},"Ẃ":{"ha":1675,"x_min":14,"x_max":1661,"o":"m 325 0 l 14 972 l 351 972 l 603 151 l 433 151 l 700 972 l 1001 972 l 1250 151 l 1088 151 l 1350 972 l 1661 972 l 1350 0 l 999 0 l 796 672 l 890 672 l 676 0 l 325 0 z "},"Ŵ":{"ha":1675,"x_min":14,"x_max":1661,"o":"m 325 0 l 14 972 l 351 972 l 603 151 l 433 151 l 700 972 l 1001 972 l 1250 151 l 1088 151 l 1350 972 l 1661 972 l 1350 0 l 999 0 l 796 672 l 890 672 l 676 0 l 325 0 z "},"Ẅ":{"ha":1675,"x_min":14,"x_max":1661,"o":"m 325 0 l 14 972 l 351 972 l 603 151 l 433 151 l 700 972 l 1001 972 l 1250 151 l 1088 151 l 1350 972 l 1661 972 l 1350 0 l 999 0 l 796 672 l 890 672 l 676 0 l 325 0 z "},"Ẁ":{"ha":1675,"x_min":14,"x_max":1661,"o":"m 325 0 l 14 972 l 351 972 l 603 151 l 433 151 l 700 972 l 1001 972 l 1250 151 l 1088 151 l 1350 972 l 1661 972 l 1350 0 l 999 0 l 796 672 l 890 672 l 676 0 l 325 0 z "},"X":{"ha":1058,"x_min":-11,"x_max":1069,"o":"m -11 0 l 422 606 l 421 376 l 1 972 l 369 972 l 614 611 l 457 610 l 696 972 l 1049 972 l 629 389 l 629 617 l 1069 0 l 694 0 l 450 378 l 601 379 l 363 0 l -11 0 z "},"Y":{"ha":986,"x_min":-37,"x_max":1024,"o":"m 329 0 l 329 426 l 404 231 l -37 972 l 308 972 l 607 465 l 406 465 l 707 972 l 1024 972 l 585 231 l 657 426 l 657 0 l 329 0 z "},"Ý":{"ha":986,"x_min":-37,"x_max":1024,"o":"m 329 0 l 329 426 l 404 231 l -37 972 l 308 972 l 607 465 l 406 465 l 707 972 l 1024 972 l 585 231 l 657 426 l 657 0 l 329 0 z "},"Ŷ":{"ha":986,"x_min":-37,"x_max":1024,"o":"m 329 0 l 329 426 l 404 231 l -37 972 l 308 972 l 607 465 l 406 465 l 707 972 l 1024 972 l 585 231 l 657 426 l 657 0 l 329 0 z "},"Ÿ":{"ha":986,"x_min":-37,"x_max":1024,"o":"m 329 0 l 329 426 l 404 231 l -37 972 l 308 972 l 607 465 l 406 465 l 707 972 l 1024 972 l 585 231 l 657 426 l 657 0 l 329 0 z "},"Ẏ":{"ha":986,"x_min":-37,"x_max":1024,"o":"m 329 0 l 329 426 l 404 231 l -37 972 l 308 972 l 607 465 l 406 465 l 707 972 l 1024 972 l 585 231 l 657 426 l 657 0 l 329 0 z "},"Ỵ":{"ha":986,"x_min":-37,"x_max":1024,"o":"m 329 0 l 329 426 l 404 231 l -37 972 l 308 972 l 607 465 l 406 465 l 707 972 l 1024 972 l 585 231 l 657 426 l 657 0 l 329 0 m 493 -314 q 404 -281 440 -314 q 368 -193 368 -249 q 404 -103 368 -137 q 493 -69 440 -69 q 582 -103 546 -69 q 618 -193 618 -137 q 582 -281 618 -249 q 493 -314 546 -314 z "},"Ỳ":{"ha":986,"x_min":-37,"x_max":1024,"o":"m 329 0 l 329 426 l 404 231 l -37 972 l 308 972 l 607 465 l 406 465 l 707 972 l 1024 972 l 585 231 l 657 426 l 657 0 l 329 0 z "},"Ỷ":{"ha":986,"x_min":-37,"x_max":1024,"o":"m 329 0 l 329 426 l 404 231 l -37 972 l 308 972 l 607 465 l 406 465 l 707 972 l 1024 972 l 585 231 l 657 426 l 657 0 l 329 0 z "},"Ȳ":{"ha":986,"x_min":-37,"x_max":1024,"o":"m 329 0 l 329 426 l 404 231 l -37 972 l 308 972 l 607 465 l 406 465 l 707 972 l 1024 972 l 585 231 l 657 426 l 657 0 l 329 0 z "},"Ỹ":{"ha":986,"x_min":-37,"x_max":1024,"o":"m 329 0 l 329 426 l 404 231 l -37 972 l 308 972 l 607 465 l 406 465 l 707 972 l 1024 972 l 585 231 l 657 426 l 657 0 l 329 0 z "},"Z":{"ha":954,"x_min":44,"x_max":938,"o":"m 44 0 l 44 201 l 586 832 l 626 718 l 58 718 l 58 972 l 915 972 l 915 771 l 374 140 l 333 254 l 938 254 l 938 0 l 44 0 z "},"Ź":{"ha":954,"x_min":44,"x_max":938,"o":"m 44 0 l 44 201 l 586 832 l 626 718 l 58 718 l 58 972 l 915 972 l 915 771 l 374 140 l 333 254 l 938 254 l 938 0 l 44 0 z "},"Ž":{"ha":954,"x_min":44,"x_max":938,"o":"m 44 0 l 44 201 l 586 832 l 626 718 l 58 718 l 58 972 l 915 972 l 915 771 l 374 140 l 333 254 l 938 254 l 938 0 l 44 0 z "},"Ż":{"ha":954,"x_min":44,"x_max":938,"o":"m 44 0 l 44 201 l 586 832 l 626 718 l 58 718 l 58 972 l 915 972 l 915 771 l 374 140 l 333 254 l 938 254 l 938 0 l 44 0 z "},"Ẓ":{"ha":954,"x_min":44,"x_max":938,"o":"m 44 0 l 44 201 l 586 832 l 626 718 l 58 718 l 58 972 l 915 972 l 915 771 l 374 140 l 333 254 l 938 254 l 938 0 l 44 0 m 492 -314 q 403 -281 439 -314 q 367 -193 367 -249 q 403 -103 367 -137 q 492 -69 439 -69 q 581 -103 544 -69 q 617 -193 617 -137 q 581 -281 617 -249 q 492 -314 544 -314 z "},"a":{"ha":888,"x_min":32,"x_max":821,"o":"m 529 0 l 529 135 l 507 171 l 507 426 q 473 511 507 482 q 363 540 439 540 q 258 524 311 540 q 168 481 206 508 l 68 688 q 228 751 135 729 q 410 774 321 774 q 713 686 606 774 q 821 408 821 599 l 821 0 l 529 0 m 314 -14 q 158 18 221 -14 q 64 103 96 50 q 32 222 32 157 q 69 347 32 296 q 184 425 107 399 q 379 451 261 451 l 538 451 l 538 300 l 429 300 q 356 284 379 300 q 333 236 333 268 q 353 192 333 210 q 408 175 374 175 q 467 192 440 175 q 507 247 494 210 l 547 154 q 471 28 529 69 q 314 -14 413 -14 z "},"á":{"ha":888,"x_min":32,"x_max":821,"o":"m 529 0 l 529 135 l 507 171 l 507 426 q 473 511 507 482 q 363 540 439 540 q 258 524 311 540 q 168 481 206 508 l 68 688 q 228 751 135 729 q 410 774 321 774 q 713 686 606 774 q 821 408 821 599 l 821 0 l 529 0 m 314 -14 q 158 18 221 -14 q 64 103 96 50 q 32 222 32 157 q 69 347 32 296 q 184 425 107 399 q 379 451 261 451 l 538 451 l 538 300 l 429 300 q 356 284 379 300 q 333 236 333 268 q 353 192 333 210 q 408 175 374 175 q 467 192 440 175 q 507 247 494 210 l 547 154 q 471 28 529 69 q 314 -14 413 -14 m 300 843 l 483 1065 l 782 1065 l 508 843 l 300 843 z "},"ă":{"ha":888,"x_min":32,"x_max":821,"o":"m 529 0 l 529 135 l 507 171 l 507 426 q 473 511 507 482 q 363 540 439 540 q 258 524 311 540 q 168 481 206 508 l 68 688 q 228 751 135 729 q 410 774 321 774 q 713 686 606 774 q 821 408 821 599 l 821 0 l 529 0 m 314 -14 q 158 18 221 -14 q 64 103 96 50 q 32 222 32 157 q 69 347 32 296 q 184 425 107 399 q 379 451 261 451 l 538 451 l 538 300 l 429 300 q 356 284 379 300 q 333 236 333 268 q 353 192 333 210 q 408 175 374 175 q 467 192 440 175 q 507 247 494 210 l 547 154 q 471 28 529 69 q 314 -14 413 -14 m 446 829 q 241 892 321 829 q 156 1065 161 956 l 343 1065 q 374 1003 346 1026 q 446 981 403 981 q 517 1003 489 981 q 549 1065 546 1026 l 736 1065 q 651 892 731 956 q 446 829 571 829 z "},"ắ":{"ha":888,"x_min":32,"x_max":821,"o":"m 529 0 l 529 135 l 507 171 l 507 426 q 473 511 507 482 q 363 540 439 540 q 258 524 311 540 q 168 481 206 508 l 68 688 q 228 751 135 729 q 410 774 321 774 q 713 686 606 774 q 821 408 821 599 l 821 0 l 529 0 m 314 -14 q 158 18 221 -14 q 64 103 96 50 q 32 222 32 157 q 69 347 32 296 q 184 425 107 399 q 379 451 261 451 l 538 451 l 538 300 l 429 300 q 356 284 379 300 q 333 236 333 268 q 353 192 333 210 q 408 175 374 175 q 467 192 440 175 q 507 247 494 210 l 547 154 q 471 28 529 69 q 314 -14 413 -14 z "},"ặ":{"ha":888,"x_min":32,"x_max":821,"o":"m 529 0 l 529 135 l 507 171 l 507 426 q 473 511 507 482 q 363 540 439 540 q 258 524 311 540 q 168 481 206 508 l 68 688 q 228 751 135 729 q 410 774 321 774 q 713 686 606 774 q 821 408 821 599 l 821 0 l 529 0 m 314 -14 q 158 18 221 -14 q 64 103 96 50 q 32 222 32 157 q 69 347 32 296 q 184 425 107 399 q 379 451 261 451 l 538 451 l 538 300 l 429 300 q 356 284 379 300 q 333 236 333 268 q 353 192 333 210 q 408 175 374 175 q 467 192 440 175 q 507 247 494 210 l 547 154 q 471 28 529 69 q 314 -14 413 -14 m 414 -314 q 325 -281 361 -314 q 289 -193 289 -249 q 325 -103 289 -137 q 414 -69 361 -69 q 503 -103 467 -69 q 539 -193 539 -137 q 503 -281 539 -249 q 414 -314 467 -314 m 446 829 q 241 892 321 829 q 156 1065 161 956 l 343 1065 q 374 1003 346 1026 q 446 981 403 981 q 517 1003 489 981 q 549 1065 546 1026 l 736 1065 q 651 892 731 956 q 446 829 571 829 z "},"ằ":{"ha":888,"x_min":32,"x_max":821,"o":"m 529 0 l 529 135 l 507 171 l 507 426 q 473 511 507 482 q 363 540 439 540 q 258 524 311 540 q 168 481 206 508 l 68 688 q 228 751 135 729 q 410 774 321 774 q 713 686 606 774 q 821 408 821 599 l 821 0 l 529 0 m 314 -14 q 158 18 221 -14 q 64 103 96 50 q 32 222 32 157 q 69 347 32 296 q 184 425 107 399 q 379 451 261 451 l 538 451 l 538 300 l 429 300 q 356 284 379 300 q 333 236 333 268 q 353 192 333 210 q 408 175 374 175 q 467 192 440 175 q 507 247 494 210 l 547 154 q 471 28 529 69 q 314 -14 413 -14 z "},"ẳ":{"ha":888,"x_min":32,"x_max":821,"o":"m 529 0 l 529 135 l 507 171 l 507 426 q 473 511 507 482 q 363 540 439 540 q 258 524 311 540 q 168 481 206 508 l 68 688 q 228 751 135 729 q 410 774 321 774 q 713 686 606 774 q 821 408 821 599 l 821 0 l 529 0 m 314 -14 q 158 18 221 -14 q 64 103 96 50 q 32 222 32 157 q 69 347 32 296 q 184 425 107 399 q 379 451 261 451 l 538 451 l 538 300 l 429 300 q 356 284 379 300 q 333 236 333 268 q 353 192 333 210 q 408 175 374 175 q 467 192 440 175 q 507 247 494 210 l 547 154 q 471 28 529 69 q 314 -14 413 -14 z "},"ẵ":{"ha":888,"x_min":32,"x_max":821,"o":"m 529 0 l 529 135 l 507 171 l 507 426 q 473 511 507 482 q 363 540 439 540 q 258 524 311 540 q 168 481 206 508 l 68 688 q 228 751 135 729 q 410 774 321 774 q 713 686 606 774 q 821 408 821 599 l 821 0 l 529 0 m 314 -14 q 158 18 221 -14 q 64 103 96 50 q 32 222 32 157 q 69 347 32 296 q 184 425 107 399 q 379 451 261 451 l 538 451 l 538 300 l 429 300 q 356 284 379 300 q 333 236 333 268 q 353 192 333 210 q 408 175 374 175 q 467 192 440 175 q 507 247 494 210 l 547 154 q 471 28 529 69 q 314 -14 413 -14 z "},"ǎ":{"ha":888,"x_min":32,"x_max":821,"o":"m 529 0 l 529 135 l 507 171 l 507 426 q 473 511 507 482 q 363 540 439 540 q 258 524 311 540 q 168 481 206 508 l 68 688 q 228 751 135 729 q 410 774 321 774 q 713 686 606 774 q 821 408 821 599 l 821 0 l 529 0 m 314 -14 q 158 18 221 -14 q 64 103 96 50 q 32 222 32 157 q 69 347 32 296 q 184 425 107 399 q 379 451 261 451 l 538 451 l 538 300 l 429 300 q 356 284 379 300 q 333 236 333 268 q 353 192 333 210 q 408 175 374 175 q 467 192 440 175 q 507 247 494 210 l 547 154 q 471 28 529 69 q 314 -14 413 -14 m 313 843 l 135 1065 l 329 1065 l 526 885 l 365 885 l 563 1065 l 757 1065 l 579 843 l 313 843 z "},"â":{"ha":888,"x_min":32,"x_max":821,"o":"m 529 0 l 529 135 l 507 171 l 507 426 q 473 511 507 482 q 363 540 439 540 q 258 524 311 540 q 168 481 206 508 l 68 688 q 228 751 135 729 q 410 774 321 774 q 713 686 606 774 q 821 408 821 599 l 821 0 l 529 0 m 314 -14 q 158 18 221 -14 q 64 103 96 50 q 32 222 32 157 q 69 347 32 296 q 184 425 107 399 q 379 451 261 451 l 538 451 l 538 300 l 429 300 q 356 284 379 300 q 333 236 333 268 q 353 192 333 210 q 408 175 374 175 q 467 192 440 175 q 507 247 494 210 l 547 154 q 471 28 529 69 q 314 -14 413 -14 m 135 843 l 313 1065 l 579 1065 l 757 843 l 563 843 l 365 1024 l 526 1024 l 329 843 l 135 843 z "},"ấ":{"ha":888,"x_min":32,"x_max":1088,"o":"m 529 0 l 529 135 l 507 171 l 507 426 q 473 511 507 482 q 363 540 439 540 q 258 524 311 540 q 168 481 206 508 l 68 688 q 228 751 135 729 q 410 774 321 774 q 713 686 606 774 q 821 408 821 599 l 821 0 l 529 0 m 314 -14 q 158 18 221 -14 q 64 103 96 50 q 32 222 32 157 q 69 347 32 296 q 184 425 107 399 q 379 451 261 451 l 538 451 l 538 300 l 429 300 q 356 284 379 300 q 333 236 333 268 q 353 192 333 210 q 408 175 374 175 q 467 192 440 175 q 507 247 494 210 l 547 154 q 471 28 529 69 q 314 -14 413 -14 z "},"ậ":{"ha":888,"x_min":32,"x_max":821,"o":"m 529 0 l 529 135 l 507 171 l 507 426 q 473 511 507 482 q 363 540 439 540 q 258 524 311 540 q 168 481 206 508 l 68 688 q 228 751 135 729 q 410 774 321 774 q 713 686 606 774 q 821 408 821 599 l 821 0 l 529 0 m 314 -14 q 158 18 221 -14 q 64 103 96 50 q 32 222 32 157 q 69 347 32 296 q 184 425 107 399 q 379 451 261 451 l 538 451 l 538 300 l 429 300 q 356 284 379 300 q 333 236 333 268 q 353 192 333 210 q 408 175 374 175 q 467 192 440 175 q 507 247 494 210 l 547 154 q 471 28 529 69 q 314 -14 413 -14 m 414 -314 q 325 -281 361 -314 q 289 -193 289 -249 q 325 -103 289 -137 q 414 -69 361 -69 q 503 -103 467 -69 q 539 -193 539 -137 q 503 -281 539 -249 q 414 -314 467 -314 m 135 843 l 313 1065 l 579 1065 l 757 843 l 563 843 l 365 1024 l 526 1024 l 329 843 l 135 843 z "},"ầ":{"ha":888,"x_min":32,"x_max":939,"o":"m 529 0 l 529 135 l 507 171 l 507 426 q 473 511 507 482 q 363 540 439 540 q 258 524 311 540 q 168 481 206 508 l 68 688 q 228 751 135 729 q 410 774 321 774 q 713 686 606 774 q 821 408 821 599 l 821 0 l 529 0 m 314 -14 q 158 18 221 -14 q 64 103 96 50 q 32 222 32 157 q 69 347 32 296 q 184 425 107 399 q 379 451 261 451 l 538 451 l 538 300 l 429 300 q 356 284 379 300 q 333 236 333 268 q 353 192 333 210 q 408 175 374 175 q 467 192 440 175 q 507 247 494 210 l 547 154 q 471 28 529 69 q 314 -14 413 -14 z "},"ẩ":{"ha":888,"x_min":32,"x_max":854,"o":"m 529 0 l 529 135 l 507 171 l 507 426 q 473 511 507 482 q 363 540 439 540 q 258 524 311 540 q 168 481 206 508 l 68 688 q 228 751 135 729 q 410 774 321 774 q 713 686 606 774 q 821 408 821 599 l 821 0 l 529 0 m 314 -14 q 158 18 221 -14 q 64 103 96 50 q 32 222 32 157 q 69 347 32 296 q 184 425 107 399 q 379 451 261 451 l 538 451 l 538 300 l 429 300 q 356 284 379 300 q 333 236 333 268 q 353 192 333 210 q 408 175 374 175 q 467 192 440 175 q 507 247 494 210 l 547 154 q 471 28 529 69 q 314 -14 413 -14 z "},"ẫ":{"ha":888,"x_min":32,"x_max":821,"o":"m 529 0 l 529 135 l 507 171 l 507 426 q 473 511 507 482 q 363 540 439 540 q 258 524 311 540 q 168 481 206 508 l 68 688 q 228 751 135 729 q 410 774 321 774 q 713 686 606 774 q 821 408 821 599 l 821 0 l 529 0 m 314 -14 q 158 18 221 -14 q 64 103 96 50 q 32 222 32 157 q 69 347 32 296 q 184 425 107 399 q 379 451 261 451 l 538 451 l 538 300 l 429 300 q 356 284 379 300 q 333 236 333 268 q 353 192 333 210 q 408 175 374 175 q 467 192 440 175 q 507 247 494 210 l 547 154 q 471 28 529 69 q 314 -14 413 -14 z "},"ȁ":{"ha":888,"x_min":32,"x_max":821,"o":"m 529 0 l 529 135 l 507 171 l 507 426 q 473 511 507 482 q 363 540 439 540 q 258 524 311 540 q 168 481 206 508 l 68 688 q 228 751 135 729 q 410 774 321 774 q 713 686 606 774 q 821 408 821 599 l 821 0 l 529 0 m 314 -14 q 158 18 221 -14 q 64 103 96 50 q 32 222 32 157 q 69 347 32 296 q 184 425 107 399 q 379 451 261 451 l 538 451 l 538 300 l 429 300 q 356 284 379 300 q 333 236 333 268 q 353 192 333 210 q 408 175 374 175 q 467 192 440 175 q 507 247 494 210 l 547 154 q 471 28 529 69 q 314 -14 413 -14 m 504 843 l 369 1065 l 640 1065 l 713 843 l 504 843 m 179 843 l 44 1065 l 315 1065 l 388 843 l 179 843 z "},"ä":{"ha":888,"x_min":32,"x_max":821,"o":"m 529 0 l 529 135 l 507 171 l 507 426 q 473 511 507 482 q 363 540 439 540 q 258 524 311 540 q 168 481 206 508 l 68 688 q 228 751 135 729 q 410 774 321 774 q 713 686 606 774 q 821 408 821 599 l 821 0 l 529 0 m 314 -14 q 158 18 221 -14 q 64 103 96 50 q 32 222 32 157 q 69 347 32 296 q 184 425 107 399 q 379 451 261 451 l 538 451 l 538 300 l 429 300 q 356 284 379 300 q 333 236 333 268 q 353 192 333 210 q 408 175 374 175 q 467 192 440 175 q 507 247 494 210 l 547 154 q 471 28 529 69 q 314 -14 413 -14 m 600 832 q 511 865 547 832 q 475 954 475 899 q 511 1044 475 1010 q 600 1078 547 1078 q 689 1044 653 1078 q 725 954 725 1010 q 689 865 725 899 q 600 832 653 832 m 292 832 q 203 865 239 832 q 167 954 167 899 q 203 1044 167 1010 q 292 1078 239 1078 q 381 1044 344 1078 q 417 954 417 1010 q 381 865 417 899 q 292 832 344 832 z "},"ạ":{"ha":888,"x_min":32,"x_max":821,"o":"m 529 0 l 529 135 l 507 171 l 507 426 q 473 511 507 482 q 363 540 439 540 q 258 524 311 540 q 168 481 206 508 l 68 688 q 228 751 135 729 q 410 774 321 774 q 713 686 606 774 q 821 408 821 599 l 821 0 l 529 0 m 314 -14 q 158 18 221 -14 q 64 103 96 50 q 32 222 32 157 q 69 347 32 296 q 184 425 107 399 q 379 451 261 451 l 538 451 l 538 300 l 429 300 q 356 284 379 300 q 333 236 333 268 q 353 192 333 210 q 408 175 374 175 q 467 192 440 175 q 507 247 494 210 l 547 154 q 471 28 529 69 q 314 -14 413 -14 m 414 -314 q 325 -281 361 -314 q 289 -193 289 -249 q 325 -103 289 -137 q 414 -69 361 -69 q 503 -103 467 -69 q 539 -193 539 -137 q 503 -281 539 -249 q 414 -314 467 -314 z "},"à":{"ha":888,"x_min":32,"x_max":821,"o":"m 529 0 l 529 135 l 507 171 l 507 426 q 473 511 507 482 q 363 540 439 540 q 258 524 311 540 q 168 481 206 508 l 68 688 q 228 751 135 729 q 410 774 321 774 q 713 686 606 774 q 821 408 821 599 l 821 0 l 529 0 m 314 -14 q 158 18 221 -14 q 64 103 96 50 q 32 222 32 157 q 69 347 32 296 q 184 425 107 399 q 379 451 261 451 l 538 451 l 538 300 l 429 300 q 356 284 379 300 q 333 236 333 268 q 353 192 333 210 q 408 175 374 175 q 467 192 440 175 q 507 247 494 210 l 547 154 q 471 28 529 69 q 314 -14 413 -14 m 383 843 l 110 1065 l 408 1065 l 592 843 l 383 843 z "},"ả":{"ha":888,"x_min":32,"x_max":821,"o":"m 529 0 l 529 135 l 507 171 l 507 426 q 473 511 507 482 q 363 540 439 540 q 258 524 311 540 q 168 481 206 508 l 68 688 q 228 751 135 729 q 410 774 321 774 q 713 686 606 774 q 821 408 821 599 l 821 0 l 529 0 m 314 -14 q 158 18 221 -14 q 64 103 96 50 q 32 222 32 157 q 69 347 32 296 q 184 425 107 399 q 379 451 261 451 l 538 451 l 538 300 l 429 300 q 356 284 379 300 q 333 236 333 268 q 353 192 333 210 q 408 175 374 175 q 467 192 440 175 q 507 247 494 210 l 547 154 q 471 28 529 69 q 314 -14 413 -14 m 506 829 l 411 919 q 463 958 451 939 q 475 994 475 976 q 459 1033 475 1019 q 417 1047 443 1047 q 338 1019 378 1047 l 274 1136 q 356 1178 310 1164 q 453 1192 403 1192 q 594 1144 540 1192 q 649 1021 649 1097 q 612 907 649 953 q 506 829 575 861 z "},"ȃ":{"ha":888,"x_min":32,"x_max":821,"o":"m 529 0 l 529 135 l 507 171 l 507 426 q 473 511 507 482 q 363 540 439 540 q 258 524 311 540 q 168 481 206 508 l 68 688 q 228 751 135 729 q 410 774 321 774 q 713 686 606 774 q 821 408 821 599 l 821 0 l 529 0 m 314 -14 q 158 18 221 -14 q 64 103 96 50 q 32 222 32 157 q 69 347 32 296 q 184 425 107 399 q 379 451 261 451 l 538 451 l 538 300 l 429 300 q 356 284 379 300 q 333 236 333 268 q 353 192 333 210 q 408 175 374 175 q 467 192 440 175 q 507 247 494 210 l 547 154 q 471 28 529 69 q 314 -14 413 -14 m 156 843 q 241 1016 161 953 q 446 1079 321 1079 q 651 1016 571 1079 q 736 843 731 953 l 549 843 q 517 905 546 882 q 446 928 489 928 q 374 905 403 928 q 343 843 346 882 l 156 843 z "},"ā":{"ha":888,"x_min":32,"x_max":821,"o":"m 529 0 l 529 135 l 507 171 l 507 426 q 473 511 507 482 q 363 540 439 540 q 258 524 311 540 q 168 481 206 508 l 68 688 q 228 751 135 729 q 410 774 321 774 q 713 686 606 774 q 821 408 821 599 l 821 0 l 529 0 m 314 -14 q 158 18 221 -14 q 64 103 96 50 q 32 222 32 157 q 69 347 32 296 q 184 425 107 399 q 379 451 261 451 l 538 451 l 538 300 l 429 300 q 356 284 379 300 q 333 236 333 268 q 353 192 333 210 q 408 175 374 175 q 467 192 440 175 q 507 247 494 210 l 547 154 q 471 28 529 69 q 314 -14 413 -14 m 154 872 l 154 1036 l 738 1036 l 738 872 l 154 872 z "},"ą":{"ha":888,"x_min":32,"x_max":856,"o":"m 529 0 l 529 135 l 507 171 l 507 426 q 473 511 507 482 q 363 540 439 540 q 258 524 311 540 q 168 481 206 508 l 68 688 q 228 751 135 729 q 410 774 321 774 q 713 686 606 774 q 821 408 821 599 l 821 0 l 529 0 m 314 -14 q 158 18 221 -14 q 64 103 96 50 q 32 222 32 157 q 69 347 32 296 q 184 425 107 399 q 379 451 261 451 l 538 451 l 538 300 l 429 300 q 356 284 379 300 q 333 236 333 268 q 353 192 333 210 q 408 175 374 175 q 467 192 440 175 q 507 247 494 210 l 547 154 q 471 28 529 69 q 314 -14 413 -14 m 699 -333 q 537 -287 594 -333 q 479 -162 479 -240 q 506 -67 479 -111 q 585 11 533 -24 q 711 68 638 46 l 821 0 q 726 -49 761 -26 q 677 -92 692 -71 q 663 -135 663 -112 q 680 -175 663 -158 q 736 -192 697 -192 q 781 -185 760 -192 q 818 -172 803 -179 l 856 -301 q 787 -324 831 -315 q 699 -333 743 -333 z "},"å":{"ha":888,"x_min":32,"x_max":821,"o":"m 529 0 l 529 135 l 507 171 l 507 426 q 473 511 507 482 q 363 540 439 540 q 258 524 311 540 q 168 481 206 508 l 68 688 q 228 751 135 729 q 410 774 321 774 q 713 686 606 774 q 821 408 821 599 l 821 0 l 529 0 m 314 -14 q 158 18 221 -14 q 64 103 96 50 q 32 222 32 157 q 69 347 32 296 q 184 425 107 399 q 379 451 261 451 l 538 451 l 538 300 l 429 300 q 356 284 379 300 q 333 236 333 268 q 353 192 333 210 q 408 175 374 175 q 467 192 440 175 q 507 247 494 210 l 547 154 q 471 28 529 69 q 314 -14 413 -14 m 446 819 q 347 844 392 819 q 277 912 303 869 q 251 1006 251 954 q 277 1100 251 1058 q 347 1167 303 1142 q 446 1192 392 1192 q 545 1167 501 1192 q 615 1100 589 1142 q 640 1006 640 1058 q 615 912 640 954 q 545 844 589 869 q 446 819 501 819 m 446 931 q 499 951 478 931 q 521 1006 521 972 q 499 1060 521 1039 q 446 1081 478 1081 q 393 1060 415 1081 q 371 1006 371 1039 q 393 951 371 972 q 446 931 415 931 z "},"ǻ":{"ha":888,"x_min":32,"x_max":821,"o":"m 529 0 l 529 135 l 507 171 l 507 426 q 473 511 507 482 q 363 540 439 540 q 258 524 311 540 q 168 481 206 508 l 68 688 q 228 751 135 729 q 410 774 321 774 q 713 686 606 774 q 821 408 821 599 l 821 0 l 529 0 m 314 -14 q 158 18 221 -14 q 64 103 96 50 q 32 222 32 157 q 69 347 32 296 q 184 425 107 399 q 379 451 261 451 l 538 451 l 538 300 l 429 300 q 356 284 379 300 q 333 236 333 268 q 353 192 333 210 q 408 175 374 175 q 467 192 440 175 q 507 247 494 210 l 547 154 q 471 28 529 69 q 314 -14 413 -14 m 446 819 q 347 844 392 819 q 277 912 303 869 q 251 1006 251 954 q 277 1100 251 1058 q 347 1167 303 1142 q 446 1192 392 1192 q 545 1167 501 1192 q 615 1100 589 1142 q 640 1006 640 1058 q 615 912 640 954 q 545 844 589 869 q 446 819 501 819 m 446 931 q 499 951 478 931 q 521 1006 521 972 q 499 1060 521 1039 q 446 1081 478 1081 q 393 1060 415 1081 q 371 1006 371 1039 q 393 951 371 972 q 446 931 415 931 m 592 1075 l 450 1118 l 639 1317 l 790 1204 l 592 1075 z "},"ã":{"ha":888,"x_min":32,"x_max":821,"o":"m 529 0 l 529 135 l 507 171 l 507 426 q 473 511 507 482 q 363 540 439 540 q 258 524 311 540 q 168 481 206 508 l 68 688 q 228 751 135 729 q 410 774 321 774 q 713 686 606 774 q 821 408 821 599 l 821 0 l 529 0 m 314 -14 q 158 18 221 -14 q 64 103 96 50 q 32 222 32 157 q 69 347 32 296 q 184 425 107 399 q 379 451 261 451 l 538 451 l 538 300 l 429 300 q 356 284 379 300 q 333 236 333 268 q 353 192 333 210 q 408 175 374 175 q 467 192 440 175 q 507 247 494 210 l 547 154 q 471 28 529 69 q 314 -14 413 -14 m 558 829 q 490 842 519 829 q 435 870 460 854 q 392 899 411 886 q 353 911 372 911 q 310 893 326 911 q 290 843 293 875 l 142 843 q 194 1018 144 953 q 333 1083 244 1083 q 402 1071 372 1083 q 456 1042 432 1058 q 501 1014 481 1026 q 539 1001 521 1001 q 583 1019 567 1001 q 601 1065 600 1036 l 750 1065 q 698 894 749 960 q 558 829 647 829 z "},"æ":{"ha":1393,"x_min":32,"x_max":1364,"o":"m 375 -14 q 123 54 214 -14 q 32 233 32 122 q 69 352 32 303 q 184 428 107 401 q 379 456 261 456 l 529 456 l 529 304 l 429 304 q 356 287 378 304 q 333 240 333 269 q 353 193 333 211 q 411 175 372 175 q 482 203 457 175 q 507 278 507 231 l 507 426 q 473 510 507 479 q 364 540 439 540 q 258 524 310 540 q 168 481 206 508 l 68 688 q 226 751 135 729 q 408 774 318 774 q 606 738 519 774 q 739 626 692 703 l 617 626 q 762 735 674 696 q 951 774 850 774 q 1106 748 1032 774 q 1238 673 1179 722 q 1330 551 1296 624 q 1364 383 1364 478 q 1363 341 1364 361 q 1358 304 1361 321 l 800 304 l 800 456 l 1125 456 l 1067 418 q 1051 494 1067 463 q 1009 542 1036 525 q 946 560 982 560 q 881 542 910 560 q 837 494 853 525 q 821 418 821 463 l 821 371 q 840 288 821 322 q 894 235 858 253 q 982 218 931 218 q 1065 232 1028 218 q 1142 274 1103 246 l 1306 108 q 1165 17 1249 49 q 978 -14 1082 -14 q 815 9 893 -14 q 675 82 738 32 q 572 215 613 132 l 715 215 q 633 75 683 125 q 517 6 582 25 q 375 -14 451 -14 z "},"ǽ":{"ha":1393,"x_min":32,"x_max":1364,"o":"m 375 -14 q 123 54 214 -14 q 32 233 32 122 q 69 352 32 303 q 184 428 107 401 q 379 456 261 456 l 529 456 l 529 304 l 429 304 q 356 287 378 304 q 333 240 333 269 q 353 193 333 211 q 411 175 372 175 q 482 203 457 175 q 507 278 507 231 l 507 426 q 473 510 507 479 q 364 540 439 540 q 258 524 310 540 q 168 481 206 508 l 68 688 q 226 751 135 729 q 408 774 318 774 q 606 738 519 774 q 739 626 692 703 l 617 626 q 762 735 674 696 q 951 774 850 774 q 1106 748 1032 774 q 1238 673 1179 722 q 1330 551 1296 624 q 1364 383 1364 478 q 1363 341 1364 361 q 1358 304 1361 321 l 800 304 l 800 456 l 1125 456 l 1067 418 q 1051 494 1067 463 q 1009 542 1036 525 q 946 560 982 560 q 881 542 910 560 q 837 494 853 525 q 821 418 821 463 l 821 371 q 840 288 821 322 q 894 235 858 253 q 982 218 931 218 q 1065 232 1028 218 q 1142 274 1103 246 l 1306 108 q 1165 17 1249 49 q 978 -14 1082 -14 q 815 9 893 -14 q 675 82 738 32 q 572 215 613 132 l 715 215 q 633 75 683 125 q 517 6 582 25 q 375 -14 451 -14 m 518 843 l 701 1065 l 1000 1065 l 726 843 l 518 843 z "},"b":{"ha":972,"x_min":69,"x_max":943,"o":"m 576 -14 q 408 28 472 -14 q 316 157 344 69 q 288 381 288 244 q 318 602 288 515 q 413 731 349 689 q 576 774 478 774 q 760 726 676 774 q 893 591 843 679 q 943 381 943 503 q 893 170 943 258 q 760 34 843 82 q 576 -14 676 -14 m 69 0 l 69 1031 l 383 1031 l 383 658 l 369 381 l 368 103 l 368 0 l 69 0 m 501 231 q 564 247 536 231 q 608 298 592 264 q 625 381 625 332 q 608 463 625 431 q 564 513 592 496 q 501 529 536 529 q 439 513 467 529 q 394 463 411 496 q 378 381 378 431 q 394 298 378 332 q 439 247 411 264 q 501 231 467 231 z "},"c":{"ha":854,"x_min":29,"x_max":851,"o":"m 478 -14 q 246 36 347 -14 q 87 176 144 86 q 29 381 29 265 q 87 585 29 496 q 246 724 144 674 q 478 774 347 774 q 715 714 617 774 q 851 549 814 654 l 608 429 q 551 506 585 482 q 476 529 517 529 q 412 513 442 529 q 365 463 382 496 q 347 381 347 431 q 365 297 347 331 q 412 247 382 264 q 476 231 442 231 q 551 254 517 231 q 608 331 585 278 l 851 211 q 715 46 814 106 q 478 -14 617 -14 z "},"ć":{"ha":854,"x_min":29,"x_max":851,"o":"m 478 -14 q 246 36 347 -14 q 87 176 144 86 q 29 381 29 265 q 87 585 29 496 q 246 724 144 674 q 478 774 347 774 q 715 714 617 774 q 851 549 814 654 l 608 429 q 551 506 585 482 q 476 529 517 529 q 412 513 442 529 q 365 463 382 496 q 347 381 347 431 q 365 297 347 331 q 412 247 382 264 q 476 231 442 231 q 551 254 517 231 q 608 331 585 278 l 851 211 q 715 46 814 106 q 478 -14 617 -14 m 304 843 l 488 1065 l 786 1065 l 513 843 l 304 843 z "},"č":{"ha":854,"x_min":29,"x_max":851,"o":"m 478 -14 q 246 36 347 -14 q 87 176 144 86 q 29 381 29 265 q 87 585 29 496 q 246 724 144 674 q 478 774 347 774 q 715 714 617 774 q 851 549 814 654 l 608 429 q 551 506 585 482 q 476 529 517 529 q 412 513 442 529 q 365 463 382 496 q 347 381 347 431 q 365 297 347 331 q 412 247 382 264 q 476 231 442 231 q 551 254 517 231 q 608 331 585 278 l 851 211 q 715 46 814 106 q 478 -14 617 -14 m 317 843 l 139 1065 l 333 1065 l 531 885 l 369 885 l 567 1065 l 761 1065 l 583 843 l 317 843 z "},"ç":{"ha":854,"x_min":29,"x_max":851,"o":"m 478 -14 q 246 36 347 -14 q 87 176 144 86 q 29 381 29 265 q 87 585 29 496 q 246 724 144 674 q 478 774 347 774 q 715 714 617 774 q 851 549 814 654 l 608 429 q 551 506 585 482 q 476 529 517 529 q 412 513 442 529 q 365 463 382 496 q 347 381 347 431 q 365 297 347 331 q 412 247 382 264 q 476 231 442 231 q 551 254 517 231 q 608 331 585 278 l 851 211 q 715 46 814 106 q 478 -14 617 -14 m 382 -333 q 308 -325 347 -333 q 246 -304 269 -317 l 285 -189 q 322 -200 300 -194 q 368 -206 343 -206 q 419 -196 404 -206 q 435 -172 435 -186 q 422 -152 435 -160 q 378 -144 408 -144 l 321 -144 l 358 14 l 519 14 l 500 -72 q 592 -114 565 -81 q 618 -183 618 -147 q 553 -293 618 -253 q 382 -333 489 -333 z "},"ḉ":{"ha":854,"x_min":29,"x_max":851,"o":"m 478 -14 q 246 36 347 -14 q 87 176 144 86 q 29 381 29 265 q 87 585 29 496 q 246 724 144 674 q 478 774 347 774 q 715 714 617 774 q 851 549 814 654 l 608 429 q 551 506 585 482 q 476 529 517 529 q 412 513 442 529 q 365 463 382 496 q 347 381 347 431 q 365 297 347 331 q 412 247 382 264 q 476 231 442 231 q 551 254 517 231 q 608 331 585 278 l 851 211 q 715 46 814 106 q 478 -14 617 -14 m 382 -333 q 308 -325 347 -333 q 246 -304 269 -317 l 285 -189 q 322 -200 300 -194 q 368 -206 343 -206 q 419 -196 404 -206 q 435 -172 435 -186 q 422 -152 435 -160 q 378 -144 408 -144 l 321 -144 l 358 14 l 519 14 l 500 -72 q 592 -114 565 -81 q 618 -183 618 -147 q 553 -293 618 -253 q 382 -333 489 -333 m 304 843 l 488 1065 l 786 1065 l 513 843 l 304 843 z "},"ĉ":{"ha":854,"x_min":29,"x_max":851,"o":"m 478 -14 q 246 36 347 -14 q 87 176 144 86 q 29 381 29 265 q 87 585 29 496 q 246 724 144 674 q 478 774 347 774 q 715 714 617 774 q 851 549 814 654 l 608 429 q 551 506 585 482 q 476 529 517 529 q 412 513 442 529 q 365 463 382 496 q 347 381 347 431 q 365 297 347 331 q 412 247 382 264 q 476 231 442 231 q 551 254 517 231 q 608 331 585 278 l 851 211 q 715 46 814 106 q 478 -14 617 -14 m 139 843 l 317 1065 l 583 1065 l 761 843 l 567 843 l 369 1024 l 531 1024 l 333 843 l 139 843 z "},"ċ":{"ha":854,"x_min":29,"x_max":851,"o":"m 478 -14 q 246 36 347 -14 q 87 176 144 86 q 29 381 29 265 q 87 585 29 496 q 246 724 144 674 q 478 774 347 774 q 715 714 617 774 q 851 549 814 654 l 608 429 q 551 506 585 482 q 476 529 517 529 q 412 513 442 529 q 365 463 382 496 q 347 381 347 431 q 365 297 347 331 q 412 247 382 264 q 476 231 442 231 q 551 254 517 231 q 608 331 585 278 l 851 211 q 715 46 814 106 q 478 -14 617 -14 m 450 829 q 336 874 381 829 q 292 988 292 918 q 336 1101 292 1057 q 450 1146 381 1146 q 564 1101 519 1146 q 608 988 608 1057 q 564 874 608 918 q 450 829 519 829 z "},"d":{"ha":979,"x_min":36,"x_max":910,"o":"m 403 -14 q 220 34 304 -14 q 86 170 136 82 q 36 381 36 258 q 86 591 36 503 q 220 726 136 679 q 403 774 304 774 q 567 731 503 774 q 661 602 631 689 q 692 381 692 515 q 663 157 692 244 q 572 28 635 69 q 403 -14 508 -14 m 478 231 q 540 247 513 231 q 585 298 568 264 q 601 381 601 332 q 585 463 601 431 q 540 513 568 496 q 478 529 513 529 q 415 513 443 529 q 371 463 388 496 q 354 381 354 431 q 371 298 354 332 q 415 247 388 264 q 478 231 443 231 m 611 0 l 611 103 l 610 381 l 596 658 l 596 1031 l 910 1031 l 910 0 l 611 0 z "},"ð":{"ha":939,"x_min":29,"x_max":910,"o":"m 431 -22 q 227 20 318 -22 q 83 139 136 63 q 29 318 29 215 q 76 482 29 413 q 201 590 122 551 q 372 629 279 629 q 496 612 443 629 q 588 561 549 594 q 653 479 626 528 l 578 428 q 578 472 578 449 q 578 538 578 496 q 548 699 578 635 q 458 796 518 764 q 303 828 397 828 q 221 822 265 828 q 135 803 176 817 l 106 1029 q 211 1047 160 1040 q 322 1053 263 1053 q 637 987 506 1053 q 839 792 768 921 q 910 469 910 663 q 850 204 910 314 q 683 36 790 94 q 431 -22 575 -22 m 456 204 q 510 216 486 204 q 548 250 533 228 q 563 303 563 272 q 548 356 563 333 q 510 390 533 378 q 456 403 486 403 q 380 376 411 403 q 349 303 349 349 q 363 250 349 272 q 402 216 378 228 q 456 204 426 204 m 200 625 l 151 751 l 828 997 l 876 871 l 200 625 z "},"ď":{"ha":979,"x_min":36,"x_max":1231,"o":"m 403 -14 q 220 34 304 -14 q 86 170 136 82 q 36 381 36 258 q 86 591 36 503 q 220 726 136 679 q 403 774 304 774 q 567 731 503 774 q 661 602 631 689 q 692 381 692 515 q 663 157 692 244 q 572 28 635 69 q 403 -14 508 -14 m 478 231 q 540 247 513 231 q 585 298 568 264 q 601 381 601 332 q 585 463 601 431 q 540 513 568 496 q 478 529 513 529 q 415 513 443 529 q 371 463 388 496 q 354 381 354 431 q 371 298 354 332 q 415 247 388 264 q 478 231 443 231 m 611 0 l 611 103 l 610 381 l 596 658 l 596 1031 l 910 1031 l 910 0 l 611 0 m 1011 808 l 1011 1100 l 1231 1100 l 1189 808 l 1011 808 z "},"đ":{"ha":979,"x_min":36,"x_max":981,"o":"m 403 -14 q 220 34 304 -14 q 86 170 136 82 q 36 381 36 258 q 86 591 36 503 q 220 726 136 679 q 403 774 304 774 q 567 731 503 774 q 661 602 631 689 q 692 381 692 515 q 663 157 692 244 q 572 28 635 69 q 403 -14 508 -14 m 478 231 q 540 247 513 231 q 585 298 568 264 q 601 381 601 332 q 585 463 601 431 q 540 513 568 496 q 478 529 513 529 q 415 513 443 529 q 371 463 388 496 q 354 381 354 431 q 371 298 354 332 q 415 247 388 264 q 478 231 443 231 m 611 0 l 611 103 l 610 381 l 596 658 l 596 1031 l 910 1031 l 910 0 l 611 0 m 386 813 l 386 965 l 981 965 l 981 813 l 386 813 z "},"ḍ":{"ha":979,"x_min":36,"x_max":910,"o":"m 403 -14 q 220 34 304 -14 q 86 170 136 82 q 36 381 36 258 q 86 591 36 503 q 220 726 136 679 q 403 774 304 774 q 567 731 503 774 q 661 602 631 689 q 692 381 692 515 q 663 157 692 244 q 572 28 635 69 q 403 -14 508 -14 m 478 231 q 540 247 513 231 q 585 298 568 264 q 601 381 601 332 q 585 463 601 431 q 540 513 568 496 q 478 529 513 529 q 415 513 443 529 q 371 463 388 496 q 354 381 354 431 q 371 298 354 332 q 415 247 388 264 q 478 231 443 231 m 611 0 l 611 103 l 610 381 l 596 658 l 596 1031 l 910 1031 l 910 0 l 611 0 m 531 -314 q 442 -281 478 -314 q 406 -193 406 -249 q 442 -103 406 -137 q 531 -69 478 -69 q 619 -103 583 -69 q 656 -193 656 -137 q 619 -281 656 -249 q 531 -314 583 -314 z "},"ḏ":{"ha":979,"x_min":36,"x_max":910,"o":"m 403 -14 q 220 34 304 -14 q 86 170 136 82 q 36 381 36 258 q 86 591 36 503 q 220 726 136 679 q 403 774 304 774 q 567 731 503 774 q 661 602 631 689 q 692 381 692 515 q 663 157 692 244 q 572 28 635 69 q 403 -14 508 -14 m 478 231 q 540 247 513 231 q 585 298 568 264 q 601 381 601 332 q 585 463 601 431 q 540 513 568 496 q 478 529 513 529 q 415 513 443 529 q 371 463 388 496 q 354 381 354 431 q 371 298 354 332 q 415 247 388 264 q 478 231 443 231 m 611 0 l 611 103 l 610 381 l 596 658 l 596 1031 l 910 1031 l 910 0 l 611 0 m 239 -267 l 239 -103 l 822 -103 l 822 -267 l 239 -267 z "},"ǆ":{"ha":1747,"x_min":36,"x_max":1725,"o":"m 403 -14 q 220 34 304 -14 q 86 170 136 82 q 36 381 36 258 q 86 591 36 503 q 220 726 136 679 q 403 774 304 774 q 567 731 503 774 q 661 602 631 689 q 692 381 692 515 q 663 157 692 244 q 572 28 635 69 q 403 -14 508 -14 m 478 231 q 540 247 513 231 q 585 298 568 264 q 601 381 601 332 q 585 463 601 431 q 540 513 568 496 q 478 529 513 529 q 415 513 443 529 q 371 463 388 496 q 354 381 354 431 q 371 298 354 332 q 415 247 388 264 q 478 231 443 231 m 611 0 l 611 103 l 610 381 l 596 658 l 596 1031 l 910 1031 l 910 0 l 611 0 z "},"e":{"ha":907,"x_min":29,"x_max":878,"o":"m 489 -14 q 247 38 350 -14 q 86 178 143 89 q 29 381 29 268 q 85 585 29 496 q 240 724 142 674 q 460 774 338 774 q 667 729 572 774 q 820 597 763 685 q 878 381 878 510 q 876 344 878 364 q 874 307 875 324 l 289 307 l 289 458 l 707 458 l 589 418 q 573 494 589 463 q 529 542 557 525 q 463 560 501 560 q 395 542 424 560 q 351 494 367 525 q 336 418 336 463 l 336 371 q 356 288 336 322 q 411 235 375 253 q 499 218 447 218 q 585 232 551 218 q 657 274 619 246 l 821 108 q 684 17 765 49 q 489 -14 603 -14 z "},"é":{"ha":907,"x_min":29,"x_max":878,"o":"m 489 -14 q 247 38 350 -14 q 86 178 143 89 q 29 381 29 268 q 85 585 29 496 q 240 724 142 674 q 460 774 338 774 q 667 729 572 774 q 820 597 763 685 q 878 381 878 510 q 876 344 878 364 q 874 307 875 324 l 289 307 l 289 458 l 707 458 l 589 418 q 573 494 589 463 q 529 542 557 525 q 463 560 501 560 q 395 542 424 560 q 351 494 367 525 q 336 418 336 463 l 336 371 q 356 288 336 322 q 411 235 375 253 q 499 218 447 218 q 585 232 551 218 q 657 274 619 246 l 821 108 q 684 17 765 49 q 489 -14 603 -14 m 308 843 l 492 1065 l 790 1065 l 517 843 l 308 843 z "},"ĕ":{"ha":907,"x_min":29,"x_max":878,"o":"m 489 -14 q 247 38 350 -14 q 86 178 143 89 q 29 381 29 268 q 85 585 29 496 q 240 724 142 674 q 460 774 338 774 q 667 729 572 774 q 820 597 763 685 q 878 381 878 510 q 876 344 878 364 q 874 307 875 324 l 289 307 l 289 458 l 707 458 l 589 418 q 573 494 589 463 q 529 542 557 525 q 463 560 501 560 q 395 542 424 560 q 351 494 367 525 q 336 418 336 463 l 336 371 q 356 288 336 322 q 411 235 375 253 q 499 218 447 218 q 585 232 551 218 q 657 274 619 246 l 821 108 q 684 17 765 49 q 489 -14 603 -14 m 454 829 q 249 892 329 829 q 164 1065 169 956 l 351 1065 q 383 1003 354 1026 q 454 981 411 981 q 526 1003 497 981 q 557 1065 554 1026 l 744 1065 q 659 892 739 956 q 454 829 579 829 z "},"ě":{"ha":907,"x_min":29,"x_max":878,"o":"m 489 -14 q 247 38 350 -14 q 86 178 143 89 q 29 381 29 268 q 85 585 29 496 q 240 724 142 674 q 460 774 338 774 q 667 729 572 774 q 820 597 763 685 q 878 381 878 510 q 876 344 878 364 q 874 307 875 324 l 289 307 l 289 458 l 707 458 l 589 418 q 573 494 589 463 q 529 542 557 525 q 463 560 501 560 q 395 542 424 560 q 351 494 367 525 q 336 418 336 463 l 336 371 q 356 288 336 322 q 411 235 375 253 q 499 218 447 218 q 585 232 551 218 q 657 274 619 246 l 821 108 q 684 17 765 49 q 489 -14 603 -14 m 321 843 l 143 1065 l 338 1065 l 535 885 l 374 885 l 571 1065 l 765 1065 l 588 843 l 321 843 z "},"ḝ":{"ha":907,"x_min":29,"x_max":878,"o":"m 489 -14 q 247 38 350 -14 q 86 178 143 89 q 29 381 29 268 q 85 585 29 496 q 240 724 142 674 q 460 774 338 774 q 667 729 572 774 q 820 597 763 685 q 878 381 878 510 q 876 344 878 364 q 874 307 875 324 l 289 307 l 289 458 l 707 458 l 589 418 q 573 494 589 463 q 529 542 557 525 q 463 560 501 560 q 395 542 424 560 q 351 494 367 525 q 336 418 336 463 l 336 371 q 356 288 336 322 q 411 235 375 253 q 499 218 447 218 q 585 232 551 218 q 657 274 619 246 l 821 108 q 684 17 765 49 q 489 -14 603 -14 m 397 -333 q 324 -325 363 -333 q 261 -304 285 -317 l 300 -189 q 337 -200 315 -194 q 383 -206 358 -206 q 435 -196 419 -206 q 450 -172 450 -186 q 437 -152 450 -160 q 393 -144 424 -144 l 336 -144 l 374 14 l 535 14 l 515 -72 q 607 -114 581 -81 q 633 -183 633 -147 q 569 -293 633 -253 q 397 -333 504 -333 m 454 829 q 249 892 329 829 q 164 1065 169 956 l 351 1065 q 383 1003 354 1026 q 454 981 411 981 q 526 1003 497 981 q 557 1065 554 1026 l 744 1065 q 659 892 739 956 q 454 829 579 829 z "},"ê":{"ha":907,"x_min":29,"x_max":878,"o":"m 489 -14 q 247 38 350 -14 q 86 178 143 89 q 29 381 29 268 q 85 585 29 496 q 240 724 142 674 q 460 774 338 774 q 667 729 572 774 q 820 597 763 685 q 878 381 878 510 q 876 344 878 364 q 874 307 875 324 l 289 307 l 289 458 l 707 458 l 589 418 q 573 494 589 463 q 529 542 557 525 q 463 560 501 560 q 395 542 424 560 q 351 494 367 525 q 336 418 336 463 l 336 371 q 356 288 336 322 q 411 235 375 253 q 499 218 447 218 q 585 232 551 218 q 657 274 619 246 l 821 108 q 684 17 765 49 q 489 -14 603 -14 m 143 843 l 321 1065 l 588 1065 l 765 843 l 571 843 l 374 1024 l 535 1024 l 338 843 l 143 843 z "},"ế":{"ha":907,"x_min":29,"x_max":1096,"o":"m 489 -14 q 247 38 350 -14 q 86 178 143 89 q 29 381 29 268 q 85 585 29 496 q 240 724 142 674 q 460 774 338 774 q 667 729 572 774 q 820 597 763 685 q 878 381 878 510 q 876 344 878 364 q 874 307 875 324 l 289 307 l 289 458 l 707 458 l 589 418 q 573 494 589 463 q 529 542 557 525 q 463 560 501 560 q 395 542 424 560 q 351 494 367 525 q 336 418 336 463 l 336 371 q 356 288 336 322 q 411 235 375 253 q 499 218 447 218 q 585 232 551 218 q 657 274 619 246 l 821 108 q 684 17 765 49 q 489 -14 603 -14 z "},"ệ":{"ha":907,"x_min":29,"x_max":878,"o":"m 489 -14 q 247 38 350 -14 q 86 178 143 89 q 29 381 29 268 q 85 585 29 496 q 240 724 142 674 q 460 774 338 774 q 667 729 572 774 q 820 597 763 685 q 878 381 878 510 q 876 344 878 364 q 874 307 875 324 l 289 307 l 289 458 l 707 458 l 589 418 q 573 494 589 463 q 529 542 557 525 q 463 560 501 560 q 395 542 424 560 q 351 494 367 525 q 336 418 336 463 l 336 371 q 356 288 336 322 q 411 235 375 253 q 499 218 447 218 q 585 232 551 218 q 657 274 619 246 l 821 108 q 684 17 765 49 q 489 -14 603 -14 m 454 -314 q 365 -281 401 -314 q 329 -193 329 -249 q 365 -103 329 -137 q 454 -69 401 -69 q 543 -103 507 -69 q 579 -193 579 -137 q 543 -281 579 -249 q 454 -314 507 -314 m 143 843 l 321 1065 l 588 1065 l 765 843 l 571 843 l 374 1024 l 535 1024 l 338 843 l 143 843 z "},"ề":{"ha":907,"x_min":29,"x_max":947,"o":"m 489 -14 q 247 38 350 -14 q 86 178 143 89 q 29 381 29 268 q 85 585 29 496 q 240 724 142 674 q 460 774 338 774 q 667 729 572 774 q 820 597 763 685 q 878 381 878 510 q 876 344 878 364 q 874 307 875 324 l 289 307 l 289 458 l 707 458 l 589 418 q 573 494 589 463 q 529 542 557 525 q 463 560 501 560 q 395 542 424 560 q 351 494 367 525 q 336 418 336 463 l 336 371 q 356 288 336 322 q 411 235 375 253 q 499 218 447 218 q 585 232 551 218 q 657 274 619 246 l 821 108 q 684 17 765 49 q 489 -14 603 -14 z "},"ể":{"ha":907,"x_min":29,"x_max":878,"o":"m 489 -14 q 247 38 350 -14 q 86 178 143 89 q 29 381 29 268 q 85 585 29 496 q 240 724 142 674 q 460 774 338 774 q 667 729 572 774 q 820 597 763 685 q 878 381 878 510 q 876 344 878 364 q 874 307 875 324 l 289 307 l 289 458 l 707 458 l 589 418 q 573 494 589 463 q 529 542 557 525 q 463 560 501 560 q 395 542 424 560 q 351 494 367 525 q 336 418 336 463 l 336 371 q 356 288 336 322 q 411 235 375 253 q 499 218 447 218 q 585 232 551 218 q 657 274 619 246 l 821 108 q 684 17 765 49 q 489 -14 603 -14 z "},"ễ":{"ha":907,"x_min":29,"x_max":878,"o":"m 489 -14 q 247 38 350 -14 q 86 178 143 89 q 29 381 29 268 q 85 585 29 496 q 240 724 142 674 q 460 774 338 774 q 667 729 572 774 q 820 597 763 685 q 878 381 878 510 q 876 344 878 364 q 874 307 875 324 l 289 307 l 289 458 l 707 458 l 589 418 q 573 494 589 463 q 529 542 557 525 q 463 560 501 560 q 395 542 424 560 q 351 494 367 525 q 336 418 336 463 l 336 371 q 356 288 336 322 q 411 235 375 253 q 499 218 447 218 q 585 232 551 218 q 657 274 619 246 l 821 108 q 684 17 765 49 q 489 -14 603 -14 z "},"ȅ":{"ha":907,"x_min":29,"x_max":878,"o":"m 489 -14 q 247 38 350 -14 q 86 178 143 89 q 29 381 29 268 q 85 585 29 496 q 240 724 142 674 q 460 774 338 774 q 667 729 572 774 q 820 597 763 685 q 878 381 878 510 q 876 344 878 364 q 874 307 875 324 l 289 307 l 289 458 l 707 458 l 589 418 q 573 494 589 463 q 529 542 557 525 q 463 560 501 560 q 395 542 424 560 q 351 494 367 525 q 336 418 336 463 l 336 371 q 356 288 336 322 q 411 235 375 253 q 499 218 447 218 q 585 232 551 218 q 657 274 619 246 l 821 108 q 684 17 765 49 q 489 -14 603 -14 m 513 843 l 378 1065 l 649 1065 l 721 843 l 513 843 m 188 843 l 53 1065 l 324 1065 l 396 843 l 188 843 z "},"ë":{"ha":907,"x_min":29,"x_max":878,"o":"m 489 -14 q 247 38 350 -14 q 86 178 143 89 q 29 381 29 268 q 85 585 29 496 q 240 724 142 674 q 460 774 338 774 q 667 729 572 774 q 820 597 763 685 q 878 381 878 510 q 876 344 878 364 q 874 307 875 324 l 289 307 l 289 458 l 707 458 l 589 418 q 573 494 589 463 q 529 542 557 525 q 463 560 501 560 q 395 542 424 560 q 351 494 367 525 q 336 418 336 463 l 336 371 q 356 288 336 322 q 411 235 375 253 q 499 218 447 218 q 585 232 551 218 q 657 274 619 246 l 821 108 q 684 17 765 49 q 489 -14 603 -14 m 608 832 q 519 865 556 832 q 483 954 483 899 q 519 1044 483 1010 q 608 1078 556 1078 q 697 1044 661 1078 q 733 954 733 1010 q 697 865 733 899 q 608 832 661 832 m 300 832 q 211 865 247 832 q 175 954 175 899 q 211 1044 175 1010 q 300 1078 247 1078 q 389 1044 353 1078 q 425 954 425 1010 q 389 865 425 899 q 300 832 353 832 z "},"ė":{"ha":907,"x_min":29,"x_max":878,"o":"m 489 -14 q 247 38 350 -14 q 86 178 143 89 q 29 381 29 268 q 85 585 29 496 q 240 724 142 674 q 460 774 338 774 q 667 729 572 774 q 820 597 763 685 q 878 381 878 510 q 876 344 878 364 q 874 307 875 324 l 289 307 l 289 458 l 707 458 l 589 418 q 573 494 589 463 q 529 542 557 525 q 463 560 501 560 q 395 542 424 560 q 351 494 367 525 q 336 418 336 463 l 336 371 q 356 288 336 322 q 411 235 375 253 q 499 218 447 218 q 585 232 551 218 q 657 274 619 246 l 821 108 q 684 17 765 49 q 489 -14 603 -14 m 454 829 q 340 874 385 829 q 296 988 296 918 q 340 1101 296 1057 q 454 1146 385 1146 q 568 1101 524 1146 q 613 988 613 1057 q 568 874 613 918 q 454 829 524 829 z "},"ẹ":{"ha":907,"x_min":29,"x_max":878,"o":"m 489 -14 q 247 38 350 -14 q 86 178 143 89 q 29 381 29 268 q 85 585 29 496 q 240 724 142 674 q 460 774 338 774 q 667 729 572 774 q 820 597 763 685 q 878 381 878 510 q 876 344 878 364 q 874 307 875 324 l 289 307 l 289 458 l 707 458 l 589 418 q 573 494 589 463 q 529 542 557 525 q 463 560 501 560 q 395 542 424 560 q 351 494 367 525 q 336 418 336 463 l 336 371 q 356 288 336 322 q 411 235 375 253 q 499 218 447 218 q 585 232 551 218 q 657 274 619 246 l 821 108 q 684 17 765 49 q 489 -14 603 -14 m 454 -314 q 365 -281 401 -314 q 329 -193 329 -249 q 365 -103 329 -137 q 454 -69 401 -69 q 543 -103 507 -69 q 579 -193 579 -137 q 543 -281 579 -249 q 454 -314 507 -314 z "},"è":{"ha":907,"x_min":29,"x_max":878,"o":"m 489 -14 q 247 38 350 -14 q 86 178 143 89 q 29 381 29 268 q 85 585 29 496 q 240 724 142 674 q 460 774 338 774 q 667 729 572 774 q 820 597 763 685 q 878 381 878 510 q 876 344 878 364 q 874 307 875 324 l 289 307 l 289 458 l 707 458 l 589 418 q 573 494 589 463 q 529 542 557 525 q 463 560 501 560 q 395 542 424 560 q 351 494 367 525 q 336 418 336 463 l 336 371 q 356 288 336 322 q 411 235 375 253 q 499 218 447 218 q 585 232 551 218 q 657 274 619 246 l 821 108 q 684 17 765 49 q 489 -14 603 -14 m 392 843 l 118 1065 l 417 1065 l 600 843 l 392 843 z "},"ẻ":{"ha":907,"x_min":29,"x_max":878,"o":"m 489 -14 q 247 38 350 -14 q 86 178 143 89 q 29 381 29 268 q 85 585 29 496 q 240 724 142 674 q 460 774 338 774 q 667 729 572 774 q 820 597 763 685 q 878 381 878 510 q 876 344 878 364 q 874 307 875 324 l 289 307 l 289 458 l 707 458 l 589 418 q 573 494 589 463 q 529 542 557 525 q 463 560 501 560 q 395 542 424 560 q 351 494 367 525 q 336 418 336 463 l 336 371 q 356 288 336 322 q 411 235 375 253 q 499 218 447 218 q 585 232 551 218 q 657 274 619 246 l 821 108 q 684 17 765 49 q 489 -14 603 -14 m 514 829 l 419 919 q 472 958 460 939 q 483 994 483 976 q 467 1033 483 1019 q 425 1047 451 1047 q 346 1019 386 1047 l 282 1136 q 365 1178 318 1164 q 461 1192 411 1192 q 603 1144 549 1192 q 657 1021 657 1097 q 620 907 657 953 q 514 829 583 861 z "},"ȇ":{"ha":907,"x_min":29,"x_max":878,"o":"m 489 -14 q 247 38 350 -14 q 86 178 143 89 q 29 381 29 268 q 85 585 29 496 q 240 724 142 674 q 460 774 338 774 q 667 729 572 774 q 820 597 763 685 q 878 381 878 510 q 876 344 878 364 q 874 307 875 324 l 289 307 l 289 458 l 707 458 l 589 418 q 573 494 589 463 q 529 542 557 525 q 463 560 501 560 q 395 542 424 560 q 351 494 367 525 q 336 418 336 463 l 336 371 q 356 288 336 322 q 411 235 375 253 q 499 218 447 218 q 585 232 551 218 q 657 274 619 246 l 821 108 q 684 17 765 49 q 489 -14 603 -14 m 164 843 q 249 1016 169 953 q 454 1079 329 1079 q 659 1016 579 1079 q 744 843 739 953 l 557 843 q 526 905 554 882 q 454 928 497 928 q 383 905 411 928 q 351 843 354 882 l 164 843 z "},"ē":{"ha":907,"x_min":29,"x_max":878,"o":"m 489 -14 q 247 38 350 -14 q 86 178 143 89 q 29 381 29 268 q 85 585 29 496 q 240 724 142 674 q 460 774 338 774 q 667 729 572 774 q 820 597 763 685 q 878 381 878 510 q 876 344 878 364 q 874 307 875 324 l 289 307 l 289 458 l 707 458 l 589 418 q 573 494 589 463 q 529 542 557 525 q 463 560 501 560 q 395 542 424 560 q 351 494 367 525 q 336 418 336 463 l 336 371 q 356 288 336 322 q 411 235 375 253 q 499 218 447 218 q 585 232 551 218 q 657 274 619 246 l 821 108 q 684 17 765 49 q 489 -14 603 -14 m 163 872 l 163 1036 l 746 1036 l 746 872 l 163 872 z "},"ḗ":{"ha":907,"x_min":29,"x_max":878,"o":"m 489 -14 q 247 38 350 -14 q 86 178 143 89 q 29 381 29 268 q 85 585 29 496 q 240 724 142 674 q 460 774 338 774 q 667 729 572 774 q 820 597 763 685 q 878 381 878 510 q 876 344 878 364 q 874 307 875 324 l 289 307 l 289 458 l 707 458 l 589 418 q 573 494 589 463 q 529 542 557 525 q 463 560 501 560 q 395 542 424 560 q 351 494 367 525 q 336 418 336 463 l 336 371 q 356 288 336 322 q 411 235 375 253 q 499 218 447 218 q 585 232 551 218 q 657 274 619 246 l 821 108 q 684 17 765 49 q 489 -14 603 -14 z "},"ḕ":{"ha":907,"x_min":29,"x_max":878,"o":"m 489 -14 q 247 38 350 -14 q 86 178 143 89 q 29 381 29 268 q 85 585 29 496 q 240 724 142 674 q 460 774 338 774 q 667 729 572 774 q 820 597 763 685 q 878 381 878 510 q 876 344 878 364 q 874 307 875 324 l 289 307 l 289 458 l 707 458 l 589 418 q 573 494 589 463 q 529 542 557 525 q 463 560 501 560 q 395 542 424 560 q 351 494 367 525 q 336 418 336 463 l 336 371 q 356 288 336 322 q 411 235 375 253 q 499 218 447 218 q 585 232 551 218 q 657 274 619 246 l 821 108 q 684 17 765 49 q 489 -14 603 -14 z "},"ę":{"ha":907,"x_min":29,"x_max":878,"o":"m 644 -333 q 483 -286 540 -333 q 425 -158 425 -239 q 468 -43 425 -97 q 579 33 511 11 l 610 -3 q 552 -11 582 -8 q 489 -14 522 -14 q 247 38 350 -14 q 86 178 143 89 q 29 381 29 268 q 85 585 29 496 q 240 724 142 674 q 460 774 338 774 q 667 729 572 774 q 820 597 763 685 q 878 381 878 510 q 876 344 878 364 q 874 307 875 324 l 289 307 l 289 458 l 707 458 l 589 418 q 573 494 589 463 q 529 542 557 525 q 463 560 501 560 q 395 542 424 560 q 351 494 367 525 q 336 418 336 463 l 336 371 q 356 288 336 322 q 411 235 375 253 q 499 218 447 218 q 585 232 551 218 q 657 274 619 246 l 822 108 q 794 81 808 94 q 763 57 779 68 q 664 -15 697 17 q 619 -73 631 -47 q 608 -124 608 -99 q 628 -172 608 -153 q 685 -192 649 -192 q 727 -185 706 -192 q 764 -172 749 -179 l 801 -301 q 733 -324 776 -315 q 644 -333 689 -333 z "},"ẽ":{"ha":907,"x_min":29,"x_max":878,"o":"m 489 -14 q 247 38 350 -14 q 86 178 143 89 q 29 381 29 268 q 85 585 29 496 q 240 724 142 674 q 460 774 338 774 q 667 729 572 774 q 820 597 763 685 q 878 381 878 510 q 876 344 878 364 q 874 307 875 324 l 289 307 l 289 458 l 707 458 l 589 418 q 573 494 589 463 q 529 542 557 525 q 463 560 501 560 q 395 542 424 560 q 351 494 367 525 q 336 418 336 463 l 336 371 q 356 288 336 322 q 411 235 375 253 q 499 218 447 218 q 585 232 551 218 q 657 274 619 246 l 821 108 q 684 17 765 49 q 489 -14 603 -14 m 567 829 q 498 842 528 829 q 444 870 468 854 q 400 899 419 886 q 361 911 381 911 q 318 893 335 911 q 299 843 301 875 l 150 843 q 203 1018 153 953 q 342 1083 253 1083 q 410 1071 381 1083 q 465 1042 440 1058 q 509 1014 489 1026 q 547 1001 529 1001 q 592 1019 575 1001 q 610 1065 608 1036 l 758 1065 q 706 894 757 960 q 567 829 656 829 z "},"ə":{"ha":907,"x_min":29,"x_max":878,"o":"m 418 774 q 661 722 558 774 q 821 582 764 671 q 878 379 878 493 q 822 175 878 264 q 668 36 765 86 q 447 -14 571 -14 q 240 31 335 -14 q 87 163 144 75 q 29 379 29 251 q 31 416 29 396 q 33 453 32 436 l 618 453 l 618 301 l 200 301 l 318 342 q 334 267 318 299 q 378 217 350 235 q 444 200 407 200 q 512 217 483 200 q 556 267 540 235 q 571 342 571 299 l 571 389 q 551 473 571 439 q 496 524 532 507 q 408 542 460 542 q 322 528 357 542 q 250 486 288 514 l 86 651 q 223 743 142 713 q 418 774 304 774 z "},"ʒ":{"ha":813,"x_min":-24,"x_max":793,"o":"m 354 -283 q 155 -260 256 -283 q -24 -189 54 -236 l 82 53 q 213 -6 144 14 q 343 -25 282 -25 q 434 -3 399 -25 q 469 63 469 19 q 443 122 469 100 q 354 143 417 143 l 225 143 l 225 344 l 471 622 l 500 513 l 21 513 l 21 760 l 740 760 l 740 558 l 494 281 l 338 369 l 422 369 q 699 284 604 369 q 793 63 793 199 q 747 -104 793 -25 q 605 -233 701 -183 q 354 -283 508 -283 z "},"ǯ":{"ha":813,"x_min":-24,"x_max":793,"o":"m 354 -283 q 155 -260 256 -283 q -24 -189 54 -236 l 82 53 q 213 -6 144 14 q 343 -25 282 -25 q 434 -3 399 -25 q 469 63 469 19 q 443 122 469 100 q 354 143 417 143 l 225 143 l 225 344 l 471 622 l 500 513 l 21 513 l 21 760 l 740 760 l 740 558 l 494 281 l 338 369 l 422 369 q 699 284 604 369 q 793 63 793 199 q 747 -104 793 -25 q 605 -233 701 -183 q 354 -283 508 -283 m 244 843 l 67 1065 l 261 1065 l 458 885 l 297 885 l 494 1065 l 689 1065 l 511 843 l 244 843 z "},"f":{"ha":592,"x_min":0,"x_max":629,"o":"m 104 0 l 104 722 q 192 957 104 869 q 443 1044 281 1044 q 544 1035 493 1044 q 629 1007 594 1026 l 554 789 q 521 801 539 796 q 483 807 503 807 q 429 786 450 807 q 408 719 408 765 l 408 683 l 418 554 l 418 0 l 104 0 m 0 489 l 0 718 l 574 718 l 574 489 l 0 489 z "},"g":{"ha":988,"x_min":29,"x_max":918,"o":"m 456 -283 q 244 -260 343 -283 q 75 -189 146 -236 l 181 25 q 294 -30 225 -10 q 424 -50 363 -50 q 563 -9 521 -50 q 604 108 604 32 l 604 172 l 618 408 l 619 644 l 619 760 l 918 760 l 918 151 q 796 -176 918 -69 q 456 -283 674 -283 m 394 42 q 215 87 299 42 q 81 214 132 132 q 29 408 29 296 q 81 603 29 521 q 215 729 132 685 q 394 774 299 774 q 556 735 493 774 q 650 615 619 696 q 681 408 681 533 q 650 202 681 283 q 556 81 619 121 q 394 42 493 42 m 478 286 q 544 301 515 286 q 590 344 574 317 q 607 408 607 372 q 590 473 607 446 q 544 515 574 500 q 478 529 515 529 q 412 515 442 529 q 365 473 382 500 q 347 408 347 446 q 365 344 347 372 q 412 301 382 317 q 478 286 442 286 z "},"ğ":{"ha":988,"x_min":29,"x_max":918,"o":"m 456 -283 q 244 -260 343 -283 q 75 -189 146 -236 l 181 25 q 294 -30 225 -10 q 424 -50 363 -50 q 563 -9 521 -50 q 604 108 604 32 l 604 172 l 618 408 l 619 644 l 619 760 l 918 760 l 918 151 q 796 -176 918 -69 q 456 -283 674 -283 m 394 42 q 215 87 299 42 q 81 214 132 132 q 29 408 29 296 q 81 603 29 521 q 215 729 132 685 q 394 774 299 774 q 556 735 493 774 q 650 615 619 696 q 681 408 681 533 q 650 202 681 283 q 556 81 619 121 q 394 42 493 42 m 478 286 q 544 301 515 286 q 590 344 574 317 q 607 408 607 372 q 590 473 607 446 q 544 515 574 500 q 478 529 515 529 q 412 515 442 529 q 365 473 382 500 q 347 408 347 446 q 365 344 347 372 q 412 301 382 317 q 478 286 442 286 m 493 829 q 288 892 368 829 q 203 1065 208 956 l 390 1065 q 422 1003 393 1026 q 493 981 450 981 q 565 1003 536 981 q 596 1065 593 1026 l 783 1065 q 698 892 778 956 q 493 829 618 829 z "},"ǧ":{"ha":988,"x_min":29,"x_max":918,"o":"m 456 -283 q 244 -260 343 -283 q 75 -189 146 -236 l 181 25 q 294 -30 225 -10 q 424 -50 363 -50 q 563 -9 521 -50 q 604 108 604 32 l 604 172 l 618 408 l 619 644 l 619 760 l 918 760 l 918 151 q 796 -176 918 -69 q 456 -283 674 -283 m 394 42 q 215 87 299 42 q 81 214 132 132 q 29 408 29 296 q 81 603 29 521 q 215 729 132 685 q 394 774 299 774 q 556 735 493 774 q 650 615 619 696 q 681 408 681 533 q 650 202 681 283 q 556 81 619 121 q 394 42 493 42 m 478 286 q 544 301 515 286 q 590 344 574 317 q 607 408 607 372 q 590 473 607 446 q 544 515 574 500 q 478 529 515 529 q 412 515 442 529 q 365 473 382 500 q 347 408 347 446 q 365 344 347 372 q 412 301 382 317 q 478 286 442 286 m 360 843 l 182 1065 l 376 1065 l 574 885 l 413 885 l 610 1065 l 804 1065 l 626 843 l 360 843 z "},"ĝ":{"ha":988,"x_min":29,"x_max":918,"o":"m 456 -283 q 244 -260 343 -283 q 75 -189 146 -236 l 181 25 q 294 -30 225 -10 q 424 -50 363 -50 q 563 -9 521 -50 q 604 108 604 32 l 604 172 l 618 408 l 619 644 l 619 760 l 918 760 l 918 151 q 796 -176 918 -69 q 456 -283 674 -283 m 394 42 q 215 87 299 42 q 81 214 132 132 q 29 408 29 296 q 81 603 29 521 q 215 729 132 685 q 394 774 299 774 q 556 735 493 774 q 650 615 619 696 q 681 408 681 533 q 650 202 681 283 q 556 81 619 121 q 394 42 493 42 m 478 286 q 544 301 515 286 q 590 344 574 317 q 607 408 607 372 q 590 473 607 446 q 544 515 574 500 q 478 529 515 529 q 412 515 442 529 q 365 473 382 500 q 347 408 347 446 q 365 344 347 372 q 412 301 382 317 q 478 286 442 286 m 182 843 l 360 1065 l 626 1065 l 804 843 l 610 843 l 413 1024 l 574 1024 l 376 843 l 182 843 z "},"ģ":{"ha":988,"x_min":29,"x_max":918,"o":"m 456 -283 q 244 -260 343 -283 q 75 -189 146 -236 l 181 25 q 294 -30 225 -10 q 424 -50 363 -50 q 563 -9 521 -50 q 604 108 604 32 l 604 172 l 618 408 l 619 644 l 619 760 l 918 760 l 918 151 q 796 -176 918 -69 q 456 -283 674 -283 m 394 42 q 215 87 299 42 q 81 214 132 132 q 29 408 29 296 q 81 603 29 521 q 215 729 132 685 q 394 774 299 774 q 556 735 493 774 q 650 615 619 696 q 681 408 681 533 q 650 202 681 283 q 556 81 619 121 q 394 42 493 42 m 478 286 q 544 301 515 286 q 590 344 574 317 q 607 408 607 372 q 590 473 607 446 q 544 515 574 500 q 478 529 515 529 q 412 515 442 529 q 365 473 382 500 q 347 408 347 446 q 365 344 347 372 q 412 301 382 317 q 478 286 442 286 m 493 829 q 381 858 418 829 q 344 933 344 886 q 353 979 344 953 q 386 1044 361 1006 l 461 1163 l 625 1163 l 535 933 l 493 1035 q 604 1008 567 1035 q 642 933 642 982 q 605 858 642 886 q 493 829 568 829 z "},"ġ":{"ha":988,"x_min":29,"x_max":918,"o":"m 456 -283 q 244 -260 343 -283 q 75 -189 146 -236 l 181 25 q 294 -30 225 -10 q 424 -50 363 -50 q 563 -9 521 -50 q 604 108 604 32 l 604 172 l 618 408 l 619 644 l 619 760 l 918 760 l 918 151 q 796 -176 918 -69 q 456 -283 674 -283 m 394 42 q 215 87 299 42 q 81 214 132 132 q 29 408 29 296 q 81 603 29 521 q 215 729 132 685 q 394 774 299 774 q 556 735 493 774 q 650 615 619 696 q 681 408 681 533 q 650 202 681 283 q 556 81 619 121 q 394 42 493 42 m 478 286 q 544 301 515 286 q 590 344 574 317 q 607 408 607 372 q 590 473 607 446 q 544 515 574 500 q 478 529 515 529 q 412 515 442 529 q 365 473 382 500 q 347 408 347 446 q 365 344 347 372 q 412 301 382 317 q 478 286 442 286 m 493 829 q 379 874 424 829 q 335 988 335 918 q 379 1101 335 1057 q 493 1146 424 1146 q 607 1101 563 1146 q 651 988 651 1057 q 607 874 651 918 q 493 829 563 829 z "},"ḡ":{"ha":988,"x_min":29,"x_max":918,"o":"m 456 -283 q 244 -260 343 -283 q 75 -189 146 -236 l 181 25 q 294 -30 225 -10 q 424 -50 363 -50 q 563 -9 521 -50 q 604 108 604 32 l 604 172 l 618 408 l 619 644 l 619 760 l 918 760 l 918 151 q 796 -176 918 -69 q 456 -283 674 -283 m 394 42 q 215 87 299 42 q 81 214 132 132 q 29 408 29 296 q 81 603 29 521 q 215 729 132 685 q 394 774 299 774 q 556 735 493 774 q 650 615 619 696 q 681 408 681 533 q 650 202 681 283 q 556 81 619 121 q 394 42 493 42 m 478 286 q 544 301 515 286 q 590 344 574 317 q 607 408 607 372 q 590 473 607 446 q 544 515 574 500 q 478 529 515 529 q 412 515 442 529 q 365 473 382 500 q 347 408 347 446 q 365 344 347 372 q 412 301 382 317 q 478 286 442 286 m 201 872 l 201 1036 l 785 1036 l 785 872 l 201 872 z "},"ǥ":{"ha":1007,"x_min":29,"x_max":1006,"o":"m 450 -283 q 242 -258 340 -283 q 75 -189 143 -233 l 181 11 q 290 -43 222 -22 q 426 -64 358 -64 q 560 -24 517 -64 q 604 94 604 15 l 604 158 l 618 408 l 619 644 l 619 760 l 918 760 l 918 151 q 799 -173 918 -62 q 450 -283 681 -283 m 364 -15 l 364 96 l 1006 97 l 1006 -14 l 364 -15 m 381 128 q 194 169 274 128 q 72 284 115 211 q 29 450 29 357 q 72 616 29 543 q 194 731 115 689 q 379 772 272 772 q 541 736 474 772 q 644 628 608 700 q 681 447 681 557 q 645 268 681 339 q 542 163 610 197 q 381 128 475 128 m 478 338 q 547 351 518 338 q 592 390 576 364 q 607 450 607 415 q 592 511 607 486 q 547 549 576 536 q 478 563 518 563 q 408 549 438 563 q 363 511 378 536 q 347 450 347 486 q 363 390 347 415 q 408 351 378 364 q 478 338 438 338 z "},"h":{"ha":975,"x_min":69,"x_max":908,"o":"m 597 774 q 756 738 685 774 q 867 628 826 703 q 908 433 908 553 l 908 0 l 594 0 l 594 379 q 569 480 594 450 q 501 510 544 510 q 442 495 469 510 q 399 447 415 481 q 383 357 383 414 l 383 0 l 69 0 l 69 1031 l 383 1031 l 383 538 l 308 601 q 428 731 353 688 q 597 774 504 774 z "},"ħ":{"ha":975,"x_min":0,"x_max":908,"o":"m 597 774 q 756 738 685 774 q 867 628 826 703 q 908 433 908 553 l 908 0 l 594 0 l 594 379 q 569 480 594 450 q 501 510 544 510 q 442 495 469 510 q 399 447 415 481 q 383 357 383 414 l 383 0 l 69 0 l 69 1031 l 383 1031 l 383 538 l 308 601 q 428 731 353 688 q 597 774 504 774 m 0 813 l 0 965 l 594 965 l 594 813 l 0 813 z "},"ḫ":{"ha":975,"x_min":69,"x_max":908,"o":"m 597 774 q 756 738 685 774 q 867 628 826 703 q 908 433 908 553 l 908 0 l 594 0 l 594 379 q 569 480 594 450 q 501 510 544 510 q 442 495 469 510 q 399 447 415 481 q 383 357 383 414 l 383 0 l 69 0 l 69 1031 l 383 1031 l 383 538 l 308 601 q 428 731 353 688 q 597 774 504 774 m 493 -312 q 289 -252 368 -312 q 203 -93 210 -192 l 379 -93 q 415 -150 383 -128 q 493 -172 446 -172 q 572 -150 542 -172 q 607 -93 603 -128 l 783 -93 q 698 -252 778 -192 q 493 -312 618 -312 z "},"ȟ":{"ha":975,"x_min":-85,"x_max":908,"o":"m 597 774 q 756 738 685 774 q 867 628 826 703 q 908 433 908 553 l 908 0 l 594 0 l 594 379 q 569 480 594 450 q 501 510 544 510 q 442 495 469 510 q 399 447 415 481 q 383 357 383 414 l 383 0 l 69 0 l 69 1031 l 383 1031 l 383 538 l 308 601 q 428 731 353 688 q 597 774 504 774 m 93 1114 l -85 1336 l 110 1336 l 307 1156 l 146 1156 l 343 1336 l 538 1336 l 360 1114 l 93 1114 z "},"ĥ":{"ha":975,"x_min":-85,"x_max":908,"o":"m 597 774 q 756 738 685 774 q 867 628 826 703 q 908 433 908 553 l 908 0 l 594 0 l 594 379 q 569 480 594 450 q 501 510 544 510 q 442 495 469 510 q 399 447 415 481 q 383 357 383 414 l 383 0 l 69 0 l 69 1031 l 383 1031 l 383 538 l 308 601 q 428 731 353 688 q 597 774 504 774 z "},"ḥ":{"ha":975,"x_min":69,"x_max":908,"o":"m 597 774 q 756 738 685 774 q 867 628 826 703 q 908 433 908 553 l 908 0 l 594 0 l 594 379 q 569 480 594 450 q 501 510 544 510 q 442 495 469 510 q 399 447 415 481 q 383 357 383 414 l 383 0 l 69 0 l 69 1031 l 383 1031 l 383 538 l 308 601 q 428 731 353 688 q 597 774 504 774 m 493 -314 q 404 -281 440 -314 q 368 -193 368 -249 q 404 -103 368 -137 q 493 -69 440 -69 q 582 -103 546 -69 q 618 -193 618 -137 q 582 -281 618 -249 q 493 -314 546 -314 z "},"i":{"ha":453,"x_min":38,"x_max":415,"o":"m 69 0 l 69 760 l 383 760 l 383 0 l 69 0 m 226 821 q 89 867 140 821 q 38 981 38 913 q 89 1094 38 1049 q 226 1140 140 1140 q 364 1097 313 1140 q 415 986 415 1054 q 364 867 415 914 q 226 821 313 821 z "},"ı":{"ha":453,"x_min":69,"x_max":383,"o":"m 69 0 l 69 760 l 383 760 l 383 0 l 69 0 z "},"í":{"ha":453,"x_min":69,"x_max":563,"o":"m 69 0 l 69 760 l 383 760 l 383 0 l 69 0 m 81 843 l 264 1065 l 563 1065 l 289 843 l 81 843 z "},"ĭ":{"ha":453,"x_min":-29,"x_max":482,"o":"m 69 0 l 69 760 l 383 760 l 383 0 l 69 0 m 226 829 q 45 892 117 829 q -29 1065 -26 956 l 151 1065 q 171 1002 151 1026 q 226 978 190 978 q 282 1002 263 978 q 301 1065 301 1026 l 482 1065 q 409 892 481 956 q 226 829 338 829 z "},"î":{"ha":453,"x_min":-50,"x_max":503,"o":"m 69 0 l 69 760 l 383 760 l 383 0 l 69 0 m -50 843 l 96 1065 l 357 1065 l 503 843 l 308 843 l 149 1024 l 304 1024 l 144 843 l -50 843 z "},"ȉ":{"ha":453,"x_min":-175,"x_max":493,"o":"m 69 0 l 69 760 l 383 760 l 383 0 l 69 0 m 285 843 l 150 1065 l 421 1065 l 493 843 l 285 843 m -40 843 l -175 1065 l 96 1065 l 168 843 l -40 843 z "},"ï":{"ha":453,"x_min":-18,"x_max":471,"o":"m 69 0 l 69 760 l 383 760 l 383 0 l 69 0 m 357 832 q 275 865 308 832 q 242 954 242 899 q 275 1044 242 1010 q 357 1078 308 1078 q 438 1044 406 1078 q 471 954 471 1010 q 438 865 471 899 q 357 832 406 832 m 97 832 q 15 865 49 832 q -18 954 -18 899 q 15 1044 -18 1010 q 97 1078 49 1078 q 178 1044 146 1078 q 211 954 211 1010 q 178 865 211 899 q 97 832 146 832 z "},"ḯ":{"ha":453,"x_min":-39,"x_max":521,"o":"m 69 0 l 69 760 l 383 760 l 383 0 l 69 0 z "},"ị":{"ha":453,"x_min":38,"x_max":415,"o":"m 69 0 l 69 760 l 383 760 l 383 0 l 69 0 m 226 821 q 89 867 140 821 q 38 981 38 913 q 89 1094 38 1049 q 226 1140 140 1140 q 364 1097 313 1140 q 415 986 415 1054 q 364 867 415 914 q 226 821 313 821 m 226 -314 q 138 -281 174 -314 q 101 -193 101 -249 q 138 -103 101 -137 q 226 -69 174 -69 q 315 -103 279 -69 q 351 -193 351 -137 q 315 -281 351 -249 q 226 -314 279 -314 z "},"ì":{"ha":453,"x_min":-110,"x_max":383,"o":"m 69 0 l 69 760 l 383 760 l 383 0 l 69 0 m 164 843 l -110 1065 l 189 1065 l 372 843 l 164 843 z "},"ỉ":{"ha":453,"x_min":54,"x_max":429,"o":"m 69 0 l 69 760 l 383 760 l 383 0 l 69 0 m 286 829 l 192 919 q 244 958 232 939 q 256 994 256 976 q 240 1033 256 1019 q 197 1047 224 1047 q 118 1019 158 1047 l 54 1136 q 137 1178 90 1164 q 233 1192 183 1192 q 375 1144 321 1192 q 429 1021 429 1097 q 392 907 429 953 q 286 829 356 861 z "},"ȋ":{"ha":453,"x_min":-29,"x_max":482,"o":"m 69 0 l 69 760 l 383 760 l 383 0 l 69 0 m -29 843 q 45 1016 -26 953 q 226 1079 117 1079 q 409 1016 338 1079 q 482 843 481 953 l 301 843 q 282 906 301 882 q 226 931 263 931 q 171 906 190 931 q 151 843 151 882 l -29 843 z "},"ĳ":{"ha":917,"x_min":38,"x_max":879,"o":"m 69 0 l 69 760 l 383 760 l 383 0 l 69 0 m 226 821 q 89 867 140 821 q 38 981 38 913 q 89 1094 38 1049 q 226 1140 140 1140 q 364 1097 313 1140 q 415 986 415 1054 q 364 867 415 914 q 226 821 313 821 z "},"ī":{"ha":453,"x_min":-10,"x_max":463,"o":"m 69 0 l 69 760 l 383 760 l 383 0 l 69 0 m -10 872 l -10 1036 l 463 1036 l 463 872 l -10 872 z "},"į":{"ha":453,"x_min":38,"x_max":418,"o":"m 69 0 l 69 760 l 383 760 l 383 0 l 69 0 m 226 821 q 89 867 140 821 q 38 981 38 913 q 89 1094 38 1049 q 226 1140 140 1140 q 364 1097 313 1140 q 415 986 415 1054 q 364 867 415 914 q 226 821 313 821 m 300 -333 q 155 -286 210 -333 q 100 -160 100 -239 q 153 -22 100 -82 q 300 71 207 39 l 383 0 q 306 -65 328 -35 q 285 -132 285 -96 q 300 -175 285 -158 q 338 -192 315 -192 q 361 -187 350 -192 q 382 -176 372 -183 l 418 -301 q 300 -333 371 -333 z "},"ĩ":{"ha":453,"x_min":-36,"x_max":489,"o":"m 69 0 l 69 760 l 383 760 l 383 0 l 69 0 m 328 829 q 264 842 292 829 q 215 874 236 856 q 178 905 194 892 q 149 918 161 918 q 119 899 129 918 q 110 843 110 879 l -36 843 q 5 1023 -36 963 q 125 1083 46 1083 q 189 1070 161 1083 q 238 1039 217 1057 q 275 1008 258 1021 q 304 994 292 994 q 333 1013 324 994 q 343 1065 343 1031 l 489 1065 q 448 889 489 949 q 328 829 407 829 z "},"j":{"ha":464,"x_min":-131,"x_max":426,"o":"m 63 -283 q -44 -274 7 -283 q -131 -246 -94 -264 l -56 -28 q 15 -46 -22 -46 q 62 -25 43 -46 q 81 42 81 -4 l 81 760 l 394 760 l 394 39 q 307 -196 394 -108 q 63 -283 219 -283 m 238 821 q 100 867 151 821 q 49 981 49 913 q 100 1094 49 1049 q 238 1140 151 1140 q 375 1097 324 1140 q 426 986 426 1054 q 375 867 426 914 q 238 821 324 821 z "},"ȷ":{"ha":464,"x_min":-131,"x_max":394,"o":"m 63 -283 q -44 -274 7 -283 q -131 -246 -94 -264 l -56 -28 q 15 -46 -22 -46 q 62 -25 43 -46 q 81 42 81 -4 l 81 760 l 394 760 l 394 39 q 307 -196 394 -108 q 63 -283 219 -283 z "},"ĵ":{"ha":464,"x_min":-131,"x_max":514,"o":"m 63 -283 q -44 -274 7 -283 q -131 -246 -94 -264 l -56 -28 q 15 -46 -22 -46 q 62 -25 43 -46 q 81 42 81 -4 l 81 760 l 394 760 l 394 39 q 307 -196 394 -108 q 63 -283 219 -283 m -39 843 l 107 1065 l 368 1065 l 514 843 l 319 843 l 160 1024 l 315 1024 l 156 843 l -39 843 z "},"k":{"ha":990,"x_min":69,"x_max":997,"o":"m 332 125 l 339 494 l 601 760 l 972 760 l 625 396 l 468 269 l 332 125 m 69 0 l 69 1031 l 383 1031 l 383 0 l 69 0 m 618 0 l 410 264 l 603 501 l 997 0 l 618 0 z "},"ǩ":{"ha":990,"x_min":-85,"x_max":997,"o":"m 332 125 l 339 494 l 601 760 l 972 760 l 625 396 l 468 269 l 332 125 m 69 0 l 69 1031 l 383 1031 l 383 0 l 69 0 m 618 0 l 410 264 l 603 501 l 997 0 l 618 0 m 93 1114 l -85 1336 l 110 1336 l 307 1156 l 146 1156 l 343 1336 l 538 1336 l 360 1114 l 93 1114 z "},"ķ":{"ha":990,"x_min":69,"x_max":997,"o":"m 332 125 l 339 494 l 601 760 l 972 760 l 625 396 l 468 269 l 332 125 m 69 0 l 69 1031 l 383 1031 l 383 0 l 69 0 m 618 0 l 410 264 l 603 501 l 997 0 l 618 0 m 347 -375 l 414 -174 l 449 -275 q 355 -248 386 -275 q 324 -174 324 -221 q 357 -98 324 -126 q 449 -69 390 -69 q 540 -98 507 -69 q 574 -174 574 -126 q 567 -220 574 -193 q 539 -285 561 -247 l 485 -375 l 347 -375 z "},"ĸ":{"ha":958,"x_min":69,"x_max":997,"o":"m 332 125 l 339 494 l 601 760 l 972 760 l 625 396 l 468 269 l 332 125 m 69 0 l 69 760 l 383 760 l 383 0 l 69 0 m 618 0 l 410 264 l 603 501 l 997 0 l 618 0 z "},"l":{"ha":453,"x_min":69,"x_max":383,"o":"m 69 0 l 69 1031 l 383 1031 l 383 0 l 69 0 z "},"ĺ":{"ha":453,"x_min":69,"x_max":563,"o":"m 69 0 l 69 1031 l 383 1031 l 383 0 l 69 0 m 81 1114 l 264 1336 l 563 1336 l 289 1114 l 81 1114 z "},"ľ":{"ha":453,"x_min":69,"x_max":700,"o":"m 69 0 l 69 1031 l 383 1031 l 383 0 l 69 0 m 481 808 l 481 1100 l 700 1100 l 658 808 l 481 808 z "},"ļ":{"ha":453,"x_min":69,"x_max":383,"o":"m 69 0 l 69 1031 l 383 1031 l 383 0 l 69 0 m 125 -375 l 192 -174 l 226 -275 q 133 -248 164 -275 q 101 -174 101 -221 q 135 -98 101 -126 q 226 -69 168 -69 q 318 -98 285 -69 q 351 -174 351 -126 q 345 -220 351 -193 q 317 -285 339 -247 l 263 -375 l 125 -375 z "},"ŀ":{"ha":703,"x_min":69,"x_max":721,"o":"m 69 0 l 69 1031 l 383 1031 l 383 0 l 69 0 m 578 371 q 476 410 515 371 q 436 514 436 450 q 476 616 436 576 q 578 656 515 656 q 681 616 642 656 q 721 514 721 576 q 681 410 721 450 q 578 371 642 371 z "},"ḷ":{"ha":453,"x_min":69,"x_max":383,"o":"m 69 0 l 69 1031 l 383 1031 l 383 0 l 69 0 m 226 -314 q 138 -281 174 -314 q 101 -193 101 -249 q 138 -103 101 -137 q 226 -69 174 -69 q 315 -103 279 -69 q 351 -193 351 -137 q 315 -281 351 -249 q 226 -314 279 -314 z "},"ǉ":{"ha":917,"x_min":69,"x_max":879,"o":"m 69 0 l 69 1031 l 383 1031 l 383 0 l 69 0 m 515 -283 q 409 -274 460 -283 q 322 -246 358 -264 l 397 -28 q 468 -46 431 -46 q 515 -25 496 -46 q 533 42 533 -4 l 533 760 l 847 760 l 847 39 q 760 -196 847 -108 q 515 -283 672 -283 m 690 821 q 553 867 604 821 q 501 981 501 913 q 553 1094 501 1049 q 690 1140 604 1140 q 828 1097 776 1140 q 879 986 879 1054 q 828 867 879 914 q 690 821 776 821 z "},"ḻ":{"ha":453,"x_min":-65,"x_max":518,"o":"m 69 0 l 69 1031 l 383 1031 l 383 0 l 69 0 m -65 -267 l -65 -103 l 518 -103 l 518 -267 l -65 -267 z "},"ł":{"ha":508,"x_min":-67,"x_max":575,"o":"m 97 0 l 97 1031 l 411 1031 l 411 0 l 97 0 m 31 242 l -67 381 l 478 783 l 575 644 l 31 242 z "},"m":{"ha":1444,"x_min":69,"x_max":1378,"o":"m 1075 774 q 1230 738 1161 774 q 1338 628 1299 703 q 1378 433 1378 553 l 1378 0 l 1064 0 l 1064 379 q 1040 480 1064 450 q 979 510 1017 510 q 929 496 951 510 q 894 452 907 482 q 881 371 881 422 l 881 0 l 567 0 l 567 379 q 544 480 567 450 q 482 510 522 510 q 432 496 454 510 q 397 452 410 482 q 383 371 383 422 l 383 0 l 69 0 l 69 760 l 368 760 l 368 542 l 307 603 q 422 731 350 689 q 583 774 494 774 q 760 722 683 774 q 864 557 838 669 l 768 572 q 890 720 810 667 q 1075 774 969 774 z "},"ṃ":{"ha":1444,"x_min":69,"x_max":1378,"o":"m 1075 774 q 1230 738 1161 774 q 1338 628 1299 703 q 1378 433 1378 553 l 1378 0 l 1064 0 l 1064 379 q 1040 480 1064 450 q 979 510 1017 510 q 929 496 951 510 q 894 452 907 482 q 881 371 881 422 l 881 0 l 567 0 l 567 379 q 544 480 567 450 q 482 510 522 510 q 432 496 454 510 q 397 452 410 482 q 383 371 383 422 l 383 0 l 69 0 l 69 760 l 368 760 l 368 542 l 307 603 q 422 731 350 689 q 583 774 494 774 q 760 722 683 774 q 864 557 838 669 l 768 572 q 890 720 810 667 q 1075 774 969 774 m 721 -314 q 632 -281 668 -314 q 596 -193 596 -249 q 632 -103 596 -137 q 721 -69 668 -69 q 810 -103 774 -69 q 846 -193 846 -137 q 810 -281 846 -249 q 721 -314 774 -314 z "},"n":{"ha":975,"x_min":69,"x_max":908,"o":"m 597 774 q 756 738 685 774 q 867 628 826 703 q 908 433 908 553 l 908 0 l 594 0 l 594 379 q 569 480 594 450 q 501 510 544 510 q 442 495 469 510 q 399 447 415 481 q 383 357 383 414 l 383 0 l 69 0 l 69 760 l 368 760 l 368 538 l 308 601 q 428 731 353 688 q 597 774 504 774 z "},"ń":{"ha":975,"x_min":69,"x_max":908,"o":"m 597 774 q 756 738 685 774 q 867 628 826 703 q 908 433 908 553 l 908 0 l 594 0 l 594 379 q 569 480 594 450 q 501 510 544 510 q 442 495 469 510 q 399 447 415 481 q 383 357 383 414 l 383 0 l 69 0 l 69 760 l 368 760 l 368 538 l 308 601 q 428 731 353 688 q 597 774 504 774 m 347 843 l 531 1065 l 829 1065 l 556 843 l 347 843 z "},"ŉ":{"ha":1228,"x_min":-42,"x_max":1161,"o":"m 850 774 q 1008 738 938 774 q 1120 628 1079 703 q 1161 433 1161 553 l 1161 0 l 847 0 l 847 379 q 822 480 847 450 q 754 510 797 510 q 695 495 722 510 q 652 447 668 481 q 636 357 636 414 l 636 0 l 322 0 l 322 760 l 621 760 l 621 538 l 561 601 q 681 731 606 688 q 850 774 757 774 z "},"ň":{"ha":975,"x_min":69,"x_max":908,"o":"m 597 774 q 756 738 685 774 q 867 628 826 703 q 908 433 908 553 l 908 0 l 594 0 l 594 379 q 569 480 594 450 q 501 510 544 510 q 442 495 469 510 q 399 447 415 481 q 383 357 383 414 l 383 0 l 69 0 l 69 760 l 368 760 l 368 538 l 308 601 q 428 731 353 688 q 597 774 504 774 m 360 843 l 182 1065 l 376 1065 l 574 885 l 413 885 l 610 1065 l 804 1065 l 626 843 l 360 843 z "},"ņ":{"ha":975,"x_min":69,"x_max":908,"o":"m 597 774 q 756 738 685 774 q 867 628 826 703 q 908 433 908 553 l 908 0 l 594 0 l 594 379 q 569 480 594 450 q 501 510 544 510 q 442 495 469 510 q 399 447 415 481 q 383 357 383 414 l 383 0 l 69 0 l 69 760 l 368 760 l 368 538 l 308 601 q 428 731 353 688 q 597 774 504 774 m 392 -375 l 458 -174 l 493 -275 q 399 -248 431 -275 q 368 -174 368 -221 q 401 -98 368 -126 q 493 -69 435 -69 q 585 -98 551 -69 q 618 -174 618 -126 q 612 -220 618 -193 q 583 -285 606 -247 l 529 -375 l 392 -375 z "},"ṅ":{"ha":975,"x_min":69,"x_max":908,"o":"m 597 774 q 756 738 685 774 q 867 628 826 703 q 908 433 908 553 l 908 0 l 594 0 l 594 379 q 569 480 594 450 q 501 510 544 510 q 442 495 469 510 q 399 447 415 481 q 383 357 383 414 l 383 0 l 69 0 l 69 760 l 368 760 l 368 538 l 308 601 q 428 731 353 688 q 597 774 504 774 m 493 829 q 379 874 424 829 q 335 988 335 918 q 379 1101 335 1057 q 493 1146 424 1146 q 607 1101 563 1146 q 651 988 651 1057 q 607 874 651 918 q 493 829 563 829 z "},"ṇ":{"ha":975,"x_min":69,"x_max":908,"o":"m 597 774 q 756 738 685 774 q 867 628 826 703 q 908 433 908 553 l 908 0 l 594 0 l 594 379 q 569 480 594 450 q 501 510 544 510 q 442 495 469 510 q 399 447 415 481 q 383 357 383 414 l 383 0 l 69 0 l 69 760 l 368 760 l 368 538 l 308 601 q 428 731 353 688 q 597 774 504 774 m 493 -314 q 404 -281 440 -314 q 368 -193 368 -249 q 404 -103 368 -137 q 493 -69 440 -69 q 582 -103 546 -69 q 618 -193 618 -137 q 582 -281 618 -249 q 493 -314 546 -314 z "},"ŋ":{"ha":975,"x_min":69,"x_max":908,"o":"m 597 774 q 756 738 685 774 q 867 628 826 703 q 908 433 908 553 l 908 39 q 821 -196 908 -108 q 576 -283 733 -283 q 470 -274 521 -283 q 383 -246 419 -264 l 458 -28 q 529 -46 492 -46 q 576 -25 557 -46 q 594 42 594 -4 l 594 379 q 569 480 594 450 q 501 510 544 510 q 442 495 469 510 q 399 447 415 481 q 383 357 383 414 l 383 0 l 69 0 l 69 760 l 368 760 l 368 538 l 308 601 q 428 731 353 688 q 597 774 504 774 z "},"ǌ":{"ha":1439,"x_min":69,"x_max":1401,"o":"m 597 774 q 756 738 685 774 q 867 628 826 703 q 908 433 908 553 l 908 0 l 594 0 l 594 379 q 569 480 594 450 q 501 510 544 510 q 442 495 469 510 q 399 447 415 481 q 383 357 383 414 l 383 0 l 69 0 l 69 760 l 368 760 l 368 538 l 308 601 q 428 731 353 688 q 597 774 504 774 m 1038 -283 q 931 -274 982 -283 q 844 -246 881 -264 l 919 -28 q 990 -46 953 -46 q 1037 -25 1018 -46 q 1056 42 1056 -4 l 1056 760 l 1369 760 l 1369 39 q 1282 -196 1369 -108 q 1038 -283 1194 -283 m 1213 821 q 1075 867 1126 821 q 1024 981 1024 913 q 1075 1094 1024 1049 q 1213 1140 1126 1140 q 1350 1097 1299 1140 q 1401 986 1401 1054 q 1350 867 1401 914 q 1213 821 1299 821 z "},"ṉ":{"ha":975,"x_min":69,"x_max":908,"o":"m 597 774 q 756 738 685 774 q 867 628 826 703 q 908 433 908 553 l 908 0 l 594 0 l 594 379 q 569 480 594 450 q 501 510 544 510 q 442 495 469 510 q 399 447 415 481 q 383 357 383 414 l 383 0 l 69 0 l 69 760 l 368 760 l 368 538 l 308 601 q 428 731 353 688 q 597 774 504 774 m 201 -267 l 201 -103 l 785 -103 l 785 -267 l 201 -267 z "},"ñ":{"ha":975,"x_min":69,"x_max":908,"o":"m 597 774 q 756 738 685 774 q 867 628 826 703 q 908 433 908 553 l 908 0 l 594 0 l 594 379 q 569 480 594 450 q 501 510 544 510 q 442 495 469 510 q 399 447 415 481 q 383 357 383 414 l 383 0 l 69 0 l 69 760 l 368 760 l 368 538 l 308 601 q 428 731 353 688 q 597 774 504 774 m 606 829 q 537 842 567 829 q 483 870 507 854 q 439 899 458 886 q 400 911 419 911 q 357 893 374 911 q 338 843 340 875 l 189 843 q 242 1018 192 953 q 381 1083 292 1083 q 449 1071 419 1083 q 503 1042 479 1058 q 548 1014 528 1026 q 586 1001 568 1001 q 631 1019 614 1001 q 649 1065 647 1036 l 797 1065 q 745 894 796 960 q 606 829 694 829 z "},"o":{"ha":942,"x_min":29,"x_max":913,"o":"m 471 -14 q 242 37 342 -14 q 86 176 143 88 q 29 381 29 265 q 86 585 29 496 q 242 724 143 674 q 471 774 342 774 q 700 724 600 774 q 856 585 800 674 q 913 381 913 496 q 856 176 913 265 q 700 37 800 88 q 471 -14 600 -14 m 471 231 q 533 247 506 231 q 578 298 561 264 q 594 381 594 332 q 578 463 594 431 q 533 513 561 496 q 471 529 506 529 q 408 513 436 529 q 364 463 381 496 q 347 381 347 431 q 364 298 347 332 q 408 247 381 264 q 471 231 436 231 z "},"ó":{"ha":942,"x_min":29,"x_max":913,"o":"m 471 -14 q 242 37 342 -14 q 86 176 143 88 q 29 381 29 265 q 86 585 29 496 q 242 724 143 674 q 471 774 342 774 q 700 724 600 774 q 856 585 800 674 q 913 381 913 496 q 856 176 913 265 q 700 37 800 88 q 471 -14 600 -14 m 471 231 q 533 247 506 231 q 578 298 561 264 q 594 381 594 332 q 578 463 594 431 q 533 513 561 496 q 471 529 506 529 q 408 513 436 529 q 364 463 381 496 q 347 381 347 431 q 364 298 347 332 q 408 247 381 264 q 471 231 436 231 m 321 843 l 504 1065 l 803 1065 l 529 843 l 321 843 z "},"ŏ":{"ha":942,"x_min":29,"x_max":913,"o":"m 471 -14 q 242 37 342 -14 q 86 176 143 88 q 29 381 29 265 q 86 585 29 496 q 242 724 143 674 q 471 774 342 774 q 700 724 600 774 q 856 585 800 674 q 913 381 913 496 q 856 176 913 265 q 700 37 800 88 q 471 -14 600 -14 m 471 231 q 533 247 506 231 q 578 298 561 264 q 594 381 594 332 q 578 463 594 431 q 533 513 561 496 q 471 529 506 529 q 408 513 436 529 q 364 463 381 496 q 347 381 347 431 q 364 298 347 332 q 408 247 381 264 q 471 231 436 231 m 467 829 q 262 892 342 829 q 176 1065 182 956 l 364 1065 q 395 1003 367 1026 q 467 981 424 981 q 538 1003 510 981 q 569 1065 567 1026 l 757 1065 q 672 892 751 956 q 467 829 592 829 z "},"ô":{"ha":942,"x_min":29,"x_max":913,"o":"m 471 -14 q 242 37 342 -14 q 86 176 143 88 q 29 381 29 265 q 86 585 29 496 q 242 724 143 674 q 471 774 342 774 q 700 724 600 774 q 856 585 800 674 q 913 381 913 496 q 856 176 913 265 q 700 37 800 88 q 471 -14 600 -14 m 471 231 q 533 247 506 231 q 578 298 561 264 q 594 381 594 332 q 578 463 594 431 q 533 513 561 496 q 471 529 506 529 q 408 513 436 529 q 364 463 381 496 q 347 381 347 431 q 364 298 347 332 q 408 247 381 264 q 471 231 436 231 m 156 843 l 333 1065 l 600 1065 l 778 843 l 583 843 l 386 1024 l 547 1024 l 350 843 l 156 843 z "},"ố":{"ha":942,"x_min":29,"x_max":1108,"o":"m 471 -14 q 242 37 342 -14 q 86 176 143 88 q 29 381 29 265 q 86 585 29 496 q 242 724 143 674 q 471 774 342 774 q 700 724 600 774 q 856 585 800 674 q 913 381 913 496 q 856 176 913 265 q 700 37 800 88 q 471 -14 600 -14 m 471 231 q 533 247 506 231 q 578 298 561 264 q 594 381 594 332 q 578 463 594 431 q 533 513 561 496 q 471 529 506 529 q 408 513 436 529 q 364 463 381 496 q 347 381 347 431 q 364 298 347 332 q 408 247 381 264 q 471 231 436 231 z "},"ộ":{"ha":942,"x_min":29,"x_max":913,"o":"m 471 -14 q 242 37 342 -14 q 86 176 143 88 q 29 381 29 265 q 86 585 29 496 q 242 724 143 674 q 471 774 342 774 q 700 724 600 774 q 856 585 800 674 q 913 381 913 496 q 856 176 913 265 q 700 37 800 88 q 471 -14 600 -14 m 471 231 q 533 247 506 231 q 578 298 561 264 q 594 381 594 332 q 578 463 594 431 q 533 513 561 496 q 471 529 506 529 q 408 513 436 529 q 364 463 381 496 q 347 381 347 431 q 364 298 347 332 q 408 247 381 264 q 471 231 436 231 m 467 -314 q 378 -281 414 -314 q 342 -193 342 -249 q 378 -103 342 -137 q 467 -69 414 -69 q 556 -103 519 -69 q 592 -193 592 -137 q 556 -281 592 -249 q 467 -314 519 -314 m 156 843 l 333 1065 l 600 1065 l 778 843 l 583 843 l 386 1024 l 547 1024 l 350 843 l 156 843 z "},"ồ":{"ha":942,"x_min":29,"x_max":960,"o":"m 471 -14 q 242 37 342 -14 q 86 176 143 88 q 29 381 29 265 q 86 585 29 496 q 242 724 143 674 q 471 774 342 774 q 700 724 600 774 q 856 585 800 674 q 913 381 913 496 q 856 176 913 265 q 700 37 800 88 q 471 -14 600 -14 m 471 231 q 533 247 506 231 q 578 298 561 264 q 594 381 594 332 q 578 463 594 431 q 533 513 561 496 q 471 529 506 529 q 408 513 436 529 q 364 463 381 496 q 347 381 347 431 q 364 298 347 332 q 408 247 381 264 q 471 231 436 231 z "},"ổ":{"ha":942,"x_min":29,"x_max":913,"o":"m 471 -14 q 242 37 342 -14 q 86 176 143 88 q 29 381 29 265 q 86 585 29 496 q 242 724 143 674 q 471 774 342 774 q 700 724 600 774 q 856 585 800 674 q 913 381 913 496 q 856 176 913 265 q 700 37 800 88 q 471 -14 600 -14 m 471 231 q 533 247 506 231 q 578 298 561 264 q 594 381 594 332 q 578 463 594 431 q 533 513 561 496 q 471 529 506 529 q 408 513 436 529 q 364 463 381 496 q 347 381 347 431 q 364 298 347 332 q 408 247 381 264 q 471 231 436 231 z "},"ỗ":{"ha":942,"x_min":29,"x_max":913,"o":"m 471 -14 q 242 37 342 -14 q 86 176 143 88 q 29 381 29 265 q 86 585 29 496 q 242 724 143 674 q 471 774 342 774 q 700 724 600 774 q 856 585 800 674 q 913 381 913 496 q 856 176 913 265 q 700 37 800 88 q 471 -14 600 -14 m 471 231 q 533 247 506 231 q 578 298 561 264 q 594 381 594 332 q 578 463 594 431 q 533 513 561 496 q 471 529 506 529 q 408 513 436 529 q 364 463 381 496 q 347 381 347 431 q 364 298 347 332 q 408 247 381 264 q 471 231 436 231 z "},"ȍ":{"ha":942,"x_min":29,"x_max":913,"o":"m 471 -14 q 242 37 342 -14 q 86 176 143 88 q 29 381 29 265 q 86 585 29 496 q 242 724 143 674 q 471 774 342 774 q 700 724 600 774 q 856 585 800 674 q 913 381 913 496 q 856 176 913 265 q 700 37 800 88 q 471 -14 600 -14 m 471 231 q 533 247 506 231 q 578 298 561 264 q 594 381 594 332 q 578 463 594 431 q 533 513 561 496 q 471 529 506 529 q 408 513 436 529 q 364 463 381 496 q 347 381 347 431 q 364 298 347 332 q 408 247 381 264 q 471 231 436 231 m 525 843 l 390 1065 l 661 1065 l 733 843 l 525 843 m 200 843 l 65 1065 l 336 1065 l 408 843 l 200 843 z "},"ö":{"ha":942,"x_min":29,"x_max":913,"o":"m 471 -14 q 242 37 342 -14 q 86 176 143 88 q 29 381 29 265 q 86 585 29 496 q 242 724 143 674 q 471 774 342 774 q 700 724 600 774 q 856 585 800 674 q 913 381 913 496 q 856 176 913 265 q 700 37 800 88 q 471 -14 600 -14 m 471 231 q 533 247 506 231 q 578 298 561 264 q 594 381 594 332 q 578 463 594 431 q 533 513 561 496 q 471 529 506 529 q 408 513 436 529 q 364 463 381 496 q 347 381 347 431 q 364 298 347 332 q 408 247 381 264 q 471 231 436 231 m 621 832 q 532 865 568 832 q 496 954 496 899 q 532 1044 496 1010 q 621 1078 568 1078 q 710 1044 674 1078 q 746 954 746 1010 q 710 865 746 899 q 621 832 674 832 m 313 832 q 224 865 260 832 q 188 954 188 899 q 224 1044 188 1010 q 313 1078 260 1078 q 401 1044 365 1078 q 438 954 438 1010 q 401 865 438 899 q 313 832 365 832 z "},"ȫ":{"ha":942,"x_min":29,"x_max":913,"o":"m 471 -14 q 242 37 342 -14 q 86 176 143 88 q 29 381 29 265 q 86 585 29 496 q 242 724 143 674 q 471 774 342 774 q 700 724 600 774 q 856 585 800 674 q 913 381 913 496 q 856 176 913 265 q 700 37 800 88 q 471 -14 600 -14 m 471 231 q 533 247 506 231 q 578 298 561 264 q 594 381 594 332 q 578 463 594 431 q 533 513 561 496 q 471 529 506 529 q 408 513 436 529 q 364 463 381 496 q 347 381 347 431 q 364 298 347 332 q 408 247 381 264 q 471 231 436 231 z "},"ȱ":{"ha":942,"x_min":29,"x_max":913,"o":"m 471 -14 q 242 37 342 -14 q 86 176 143 88 q 29 381 29 265 q 86 585 29 496 q 242 724 143 674 q 471 774 342 774 q 700 724 600 774 q 856 585 800 674 q 913 381 913 496 q 856 176 913 265 q 700 37 800 88 q 471 -14 600 -14 m 471 231 q 533 247 506 231 q 578 298 561 264 q 594 381 594 332 q 578 463 594 431 q 533 513 561 496 q 471 529 506 529 q 408 513 436 529 q 364 463 381 496 q 347 381 347 431 q 364 298 347 332 q 408 247 381 264 q 471 231 436 231 z "},"ọ":{"ha":942,"x_min":29,"x_max":913,"o":"m 471 -14 q 242 37 342 -14 q 86 176 143 88 q 29 381 29 265 q 86 585 29 496 q 242 724 143 674 q 471 774 342 774 q 700 724 600 774 q 856 585 800 674 q 913 381 913 496 q 856 176 913 265 q 700 37 800 88 q 471 -14 600 -14 m 471 231 q 533 247 506 231 q 578 298 561 264 q 594 381 594 332 q 578 463 594 431 q 533 513 561 496 q 471 529 506 529 q 408 513 436 529 q 364 463 381 496 q 347 381 347 431 q 364 298 347 332 q 408 247 381 264 q 471 231 436 231 m 467 -314 q 378 -281 414 -314 q 342 -193 342 -249 q 378 -103 342 -137 q 467 -69 414 -69 q 556 -103 519 -69 q 592 -193 592 -137 q 556 -281 592 -249 q 467 -314 519 -314 z "},"ò":{"ha":942,"x_min":29,"x_max":913,"o":"m 471 -14 q 242 37 342 -14 q 86 176 143 88 q 29 381 29 265 q 86 585 29 496 q 242 724 143 674 q 471 774 342 774 q 700 724 600 774 q 856 585 800 674 q 913 381 913 496 q 856 176 913 265 q 700 37 800 88 q 471 -14 600 -14 m 471 231 q 533 247 506 231 q 578 298 561 264 q 594 381 594 332 q 578 463 594 431 q 533 513 561 496 q 471 529 506 529 q 408 513 436 529 q 364 463 381 496 q 347 381 347 431 q 364 298 347 332 q 408 247 381 264 q 471 231 436 231 m 404 843 l 131 1065 l 429 1065 l 613 843 l 404 843 z "},"ỏ":{"ha":942,"x_min":29,"x_max":913,"o":"m 471 -14 q 242 37 342 -14 q 86 176 143 88 q 29 381 29 265 q 86 585 29 496 q 242 724 143 674 q 471 774 342 774 q 700 724 600 774 q 856 585 800 674 q 913 381 913 496 q 856 176 913 265 q 700 37 800 88 q 471 -14 600 -14 m 471 231 q 533 247 506 231 q 578 298 561 264 q 594 381 594 332 q 578 463 594 431 q 533 513 561 496 q 471 529 506 529 q 408 513 436 529 q 364 463 381 496 q 347 381 347 431 q 364 298 347 332 q 408 247 381 264 q 471 231 436 231 m 526 829 l 432 919 q 484 958 472 939 q 496 994 496 976 q 480 1033 496 1019 q 438 1047 464 1047 q 358 1019 399 1047 l 294 1136 q 377 1178 331 1164 q 474 1192 424 1192 q 615 1144 561 1192 q 669 1021 669 1097 q 633 907 669 953 q 526 829 596 861 z "},"ơ":{"ha":942,"x_min":29,"x_max":913,"o":"m 471 -14 q 242 37 342 -14 q 86 176 143 88 q 29 381 29 265 q 86 585 29 496 q 244 724 143 674 q 475 774 344 774 q 540 770 510 774 q 594 763 569 767 q 638 760 618 760 q 690 783 672 760 q 707 844 707 806 q 698 889 707 868 q 676 924 689 910 l 854 986 q 893 917 878 956 q 908 832 908 879 q 870 700 908 757 q 765 612 832 643 q 614 581 699 581 q 531 585 571 581 q 457 597 490 590 l 667 736 q 847 597 782 690 q 913 381 913 504 q 856 176 913 265 q 699 37 799 88 q 471 -14 600 -14 m 471 231 q 533 247 506 231 q 578 298 561 264 q 594 381 594 332 q 578 463 594 431 q 533 513 561 496 q 471 529 506 529 q 408 513 436 529 q 364 463 381 496 q 347 381 347 431 q 364 298 347 332 q 408 247 381 264 q 471 231 436 231 z "},"ớ":{"ha":942,"x_min":29,"x_max":913,"o":"m 471 -14 q 242 37 342 -14 q 86 176 143 88 q 29 381 29 265 q 86 585 29 496 q 244 724 143 674 q 475 774 344 774 q 540 770 510 774 q 594 763 569 767 q 638 760 618 760 q 690 783 672 760 q 707 844 707 806 q 698 889 707 868 q 676 924 689 910 l 854 986 q 893 917 878 956 q 908 832 908 879 q 870 700 908 757 q 765 612 832 643 q 614 581 699 581 q 531 585 571 581 q 457 597 490 590 l 667 736 q 847 597 782 690 q 913 381 913 504 q 856 176 913 265 q 699 37 799 88 q 471 -14 600 -14 m 471 231 q 533 247 506 231 q 578 298 561 264 q 594 381 594 332 q 578 463 594 431 q 533 513 561 496 q 471 529 506 529 q 408 513 436 529 q 364 463 381 496 q 347 381 347 431 q 364 298 347 332 q 408 247 381 264 q 471 231 436 231 m 325 843 l 508 1065 l 807 1065 l 533 843 l 325 843 z "},"ợ":{"ha":942,"x_min":29,"x_max":913,"o":"m 471 -14 q 242 37 342 -14 q 86 176 143 88 q 29 381 29 265 q 86 585 29 496 q 244 724 143 674 q 475 774 344 774 q 540 770 510 774 q 594 763 569 767 q 638 760 618 760 q 690 783 672 760 q 707 844 707 806 q 698 889 707 868 q 676 924 689 910 l 854 986 q 893 917 878 956 q 908 832 908 879 q 870 700 908 757 q 765 612 832 643 q 614 581 699 581 q 531 585 571 581 q 457 597 490 590 l 667 736 q 847 597 782 690 q 913 381 913 504 q 856 176 913 265 q 699 37 799 88 q 471 -14 600 -14 m 471 231 q 533 247 506 231 q 578 298 561 264 q 594 381 594 332 q 578 463 594 431 q 533 513 561 496 q 471 529 506 529 q 408 513 436 529 q 364 463 381 496 q 347 381 347 431 q 364 298 347 332 q 408 247 381 264 q 471 231 436 231 m 471 -314 q 382 -281 418 -314 q 346 -193 346 -249 q 382 -103 346 -137 q 471 -69 418 -69 q 560 -103 524 -69 q 596 -193 596 -137 q 560 -281 596 -249 q 471 -314 524 -314 z "},"ờ":{"ha":942,"x_min":29,"x_max":913,"o":"m 471 -14 q 242 37 342 -14 q 86 176 143 88 q 29 381 29 265 q 86 585 29 496 q 244 724 143 674 q 475 774 344 774 q 540 770 510 774 q 594 763 569 767 q 638 760 618 760 q 690 783 672 760 q 707 844 707 806 q 698 889 707 868 q 676 924 689 910 l 854 986 q 893 917 878 956 q 908 832 908 879 q 870 700 908 757 q 765 612 832 643 q 614 581 699 581 q 531 585 571 581 q 457 597 490 590 l 667 736 q 847 597 782 690 q 913 381 913 504 q 856 176 913 265 q 699 37 799 88 q 471 -14 600 -14 m 471 231 q 533 247 506 231 q 578 298 561 264 q 594 381 594 332 q 578 463 594 431 q 533 513 561 496 q 471 529 506 529 q 408 513 436 529 q 364 463 381 496 q 347 381 347 431 q 364 298 347 332 q 408 247 381 264 q 471 231 436 231 m 408 843 l 135 1065 l 433 1065 l 617 843 l 408 843 z "},"ở":{"ha":942,"x_min":29,"x_max":913,"o":"m 471 -14 q 242 37 342 -14 q 86 176 143 88 q 29 381 29 265 q 86 585 29 496 q 244 724 143 674 q 475 774 344 774 q 540 770 510 774 q 594 763 569 767 q 638 760 618 760 q 690 783 672 760 q 707 844 707 806 q 698 889 707 868 q 676 924 689 910 l 854 986 q 893 917 878 956 q 908 832 908 879 q 870 700 908 757 q 765 612 832 643 q 614 581 699 581 q 531 585 571 581 q 457 597 490 590 l 667 736 q 847 597 782 690 q 913 381 913 504 q 856 176 913 265 q 699 37 799 88 q 471 -14 600 -14 m 471 231 q 533 247 506 231 q 578 298 561 264 q 594 381 594 332 q 578 463 594 431 q 533 513 561 496 q 471 529 506 529 q 408 513 436 529 q 364 463 381 496 q 347 381 347 431 q 364 298 347 332 q 408 247 381 264 q 471 231 436 231 m 531 829 l 436 919 q 488 958 476 939 q 500 994 500 976 q 484 1033 500 1019 q 442 1047 468 1047 q 363 1019 403 1047 l 299 1136 q 381 1178 335 1164 q 478 1192 428 1192 q 619 1144 565 1192 q 674 1021 674 1097 q 637 907 674 953 q 531 829 600 861 z "},"ỡ":{"ha":933,"x_min":29,"x_max":913,"o":"m 533 829 q 478 842 503 829 q 435 870 454 854 q 399 899 415 886 q 368 911 383 911 q 334 893 347 911 q 318 843 321 875 l 200 843 q 242 1018 201 953 q 353 1083 282 1083 q 408 1071 383 1083 q 451 1042 432 1058 q 487 1014 471 1026 q 518 1001 503 1001 q 552 1019 539 1001 q 568 1065 565 1036 l 686 1065 q 644 894 685 960 q 533 829 604 829 m 471 -14 q 242 37 342 -14 q 86 176 143 88 q 29 381 29 265 q 86 585 29 496 q 244 724 143 674 q 475 774 344 774 q 540 770 510 774 q 594 763 569 767 q 638 760 618 760 q 690 783 672 760 q 707 844 707 806 q 698 889 707 868 q 676 924 689 910 l 854 986 q 893 917 878 956 q 908 832 908 879 q 870 700 908 757 q 765 612 832 643 q 614 581 699 581 q 531 585 571 581 q 457 597 490 590 l 667 736 q 847 597 782 690 q 913 381 913 504 q 856 176 913 265 q 699 37 799 88 q 471 -14 600 -14 m 471 231 q 533 247 506 231 q 578 298 561 264 q 594 381 594 332 q 578 463 594 431 q 533 513 561 496 q 471 529 506 529 q 408 513 436 529 q 364 463 381 496 q 347 381 347 431 q 364 298 347 332 q 408 247 381 264 q 471 231 436 231 z "},"ő":{"ha":942,"x_min":29,"x_max":913,"o":"m 471 -14 q 242 37 342 -14 q 86 176 143 88 q 29 381 29 265 q 86 585 29 496 q 242 724 143 674 q 471 774 342 774 q 700 724 600 774 q 856 585 800 674 q 913 381 913 496 q 856 176 913 265 q 700 37 800 88 q 471 -14 600 -14 m 471 231 q 533 247 506 231 q 578 298 561 264 q 594 381 594 332 q 578 463 594 431 q 533 513 561 496 q 471 529 506 529 q 408 513 436 529 q 364 463 381 496 q 347 381 347 431 q 364 298 347 332 q 408 247 381 264 q 471 231 436 231 m 525 843 l 597 1065 l 868 1065 l 733 843 l 525 843 m 200 843 l 272 1065 l 543 1065 l 408 843 l 200 843 z "},"ȏ":{"ha":942,"x_min":29,"x_max":913,"o":"m 471 -14 q 242 37 342 -14 q 86 176 143 88 q 29 381 29 265 q 86 585 29 496 q 242 724 143 674 q 471 774 342 774 q 700 724 600 774 q 856 585 800 674 q 913 381 913 496 q 856 176 913 265 q 700 37 800 88 q 471 -14 600 -14 m 471 231 q 533 247 506 231 q 578 298 561 264 q 594 381 594 332 q 578 463 594 431 q 533 513 561 496 q 471 529 506 529 q 408 513 436 529 q 364 463 381 496 q 347 381 347 431 q 364 298 347 332 q 408 247 381 264 q 471 231 436 231 m 176 843 q 262 1016 182 953 q 467 1079 342 1079 q 672 1016 592 1079 q 757 843 751 953 l 569 843 q 538 905 567 882 q 467 928 510 928 q 395 905 424 928 q 364 843 367 882 l 176 843 z "},"ō":{"ha":942,"x_min":29,"x_max":913,"o":"m 471 -14 q 242 37 342 -14 q 86 176 143 88 q 29 381 29 265 q 86 585 29 496 q 242 724 143 674 q 471 774 342 774 q 700 724 600 774 q 856 585 800 674 q 913 381 913 496 q 856 176 913 265 q 700 37 800 88 q 471 -14 600 -14 m 471 231 q 533 247 506 231 q 578 298 561 264 q 594 381 594 332 q 578 463 594 431 q 533 513 561 496 q 471 529 506 529 q 408 513 436 529 q 364 463 381 496 q 347 381 347 431 q 364 298 347 332 q 408 247 381 264 q 471 231 436 231 m 175 872 l 175 1036 l 758 1036 l 758 872 l 175 872 z "},"ṓ":{"ha":942,"x_min":29,"x_max":913,"o":"m 471 -14 q 242 37 342 -14 q 86 176 143 88 q 29 381 29 265 q 86 585 29 496 q 242 724 143 674 q 471 774 342 774 q 700 724 600 774 q 856 585 800 674 q 913 381 913 496 q 856 176 913 265 q 700 37 800 88 q 471 -14 600 -14 m 471 231 q 533 247 506 231 q 578 298 561 264 q 594 381 594 332 q 578 463 594 431 q 533 513 561 496 q 471 529 506 529 q 408 513 436 529 q 364 463 381 496 q 347 381 347 431 q 364 298 347 332 q 408 247 381 264 q 471 231 436 231 z "},"ṑ":{"ha":942,"x_min":29,"x_max":913,"o":"m 471 -14 q 242 37 342 -14 q 86 176 143 88 q 29 381 29 265 q 86 585 29 496 q 242 724 143 674 q 471 774 342 774 q 700 724 600 774 q 856 585 800 674 q 913 381 913 496 q 856 176 913 265 q 700 37 800 88 q 471 -14 600 -14 m 471 231 q 533 247 506 231 q 578 298 561 264 q 594 381 594 332 q 578 463 594 431 q 533 513 561 496 q 471 529 506 529 q 408 513 436 529 q 364 463 381 496 q 347 381 347 431 q 364 298 347 332 q 408 247 381 264 q 471 231 436 231 z "},"ǫ":{"ha":942,"x_min":29,"x_max":913,"o":"m 515 -333 q 353 -287 411 -333 q 296 -162 296 -240 q 323 -68 296 -111 q 402 7 350 -25 q 528 54 454 39 l 536 -8 q 503 -12 519 -10 q 471 -14 488 -14 q 242 37 342 -14 q 86 176 143 88 q 29 381 29 265 q 86 585 29 496 q 242 724 143 674 q 471 774 342 774 q 700 724 600 774 q 856 585 800 674 q 913 381 913 496 q 840 157 913 253 q 647 15 768 61 q 542 -35 579 -10 q 492 -85 506 -61 q 479 -133 479 -110 q 497 -174 479 -156 q 553 -192 514 -192 q 598 -185 576 -192 q 635 -172 619 -179 l 672 -301 q 603 -324 647 -315 q 515 -333 560 -333 m 471 231 q 533 247 506 231 q 578 298 561 264 q 594 381 594 332 q 578 463 594 431 q 533 513 561 496 q 471 529 506 529 q 408 513 436 529 q 364 463 381 496 q 347 381 347 431 q 364 298 347 332 q 408 247 381 264 q 471 231 436 231 z "},"ø":{"ha":942,"x_min":29,"x_max":913,"o":"m 471 -14 q 242 37 342 -14 q 86 176 143 88 q 29 381 29 265 q 86 585 29 496 q 242 724 143 674 q 471 774 342 774 q 700 724 600 774 q 856 585 800 674 q 913 381 913 496 q 856 176 913 265 q 700 37 800 88 q 471 -14 600 -14 m 471 231 q 533 247 506 231 q 578 298 561 264 q 594 381 594 332 q 578 463 594 431 q 533 513 561 496 q 471 529 506 529 q 408 513 436 529 q 364 463 381 496 q 347 381 347 431 q 364 298 347 332 q 408 247 381 264 q 471 231 436 231 m 94 -97 l 707 847 l 839 847 l 226 -97 l 94 -97 z "},"ǿ":{"ha":942,"x_min":29,"x_max":913,"o":"m 471 -14 q 242 37 342 -14 q 86 176 143 88 q 29 381 29 265 q 86 585 29 496 q 242 724 143 674 q 471 774 342 774 q 700 724 600 774 q 856 585 800 674 q 913 381 913 496 q 856 176 913 265 q 700 37 800 88 q 471 -14 600 -14 m 471 231 q 533 247 506 231 q 578 298 561 264 q 594 381 594 332 q 578 463 594 431 q 533 513 561 496 q 471 529 506 529 q 408 513 436 529 q 364 463 381 496 q 347 381 347 431 q 364 298 347 332 q 408 247 381 264 q 471 231 436 231 m 94 -97 l 707 847 l 839 847 l 226 -97 l 94 -97 m 317 843 l 500 1065 l 799 1065 l 525 843 l 317 843 z "},"õ":{"ha":942,"x_min":29,"x_max":913,"o":"m 471 -14 q 242 37 342 -14 q 86 176 143 88 q 29 381 29 265 q 86 585 29 496 q 242 724 143 674 q 471 774 342 774 q 700 724 600 774 q 856 585 800 674 q 913 381 913 496 q 856 176 913 265 q 700 37 800 88 q 471 -14 600 -14 m 471 231 q 533 247 506 231 q 578 298 561 264 q 594 381 594 332 q 578 463 594 431 q 533 513 561 496 q 471 529 506 529 q 408 513 436 529 q 364 463 381 496 q 347 381 347 431 q 364 298 347 332 q 408 247 381 264 q 471 231 436 231 m 579 829 q 510 842 540 829 q 456 870 481 854 q 413 899 432 886 q 374 911 393 911 q 331 893 347 911 q 311 843 314 875 l 163 843 q 215 1018 165 953 q 354 1083 265 1083 q 423 1071 393 1083 q 477 1042 453 1058 q 522 1014 501 1026 q 560 1001 542 1001 q 604 1019 588 1001 q 622 1065 621 1036 l 771 1065 q 719 894 769 960 q 579 829 668 829 z "},"ṍ":{"ha":942,"x_min":29,"x_max":913,"o":"m 471 -14 q 242 37 342 -14 q 86 176 143 88 q 29 381 29 265 q 86 585 29 496 q 242 724 143 674 q 471 774 342 774 q 700 724 600 774 q 856 585 800 674 q 913 381 913 496 q 856 176 913 265 q 700 37 800 88 q 471 -14 600 -14 m 471 231 q 533 247 506 231 q 578 298 561 264 q 594 381 594 332 q 578 463 594 431 q 533 513 561 496 q 471 529 506 529 q 408 513 436 529 q 364 463 381 496 q 347 381 347 431 q 364 298 347 332 q 408 247 381 264 q 471 231 436 231 z "},"ṏ":{"ha":942,"x_min":29,"x_max":913,"o":"m 471 -14 q 242 37 342 -14 q 86 176 143 88 q 29 381 29 265 q 86 585 29 496 q 242 724 143 674 q 471 774 342 774 q 700 724 600 774 q 856 585 800 674 q 913 381 913 496 q 856 176 913 265 q 700 37 800 88 q 471 -14 600 -14 m 471 231 q 533 247 506 231 q 578 298 561 264 q 594 381 594 332 q 578 463 594 431 q 533 513 561 496 q 471 529 506 529 q 408 513 436 529 q 364 463 381 496 q 347 381 347 431 q 364 298 347 332 q 408 247 381 264 q 471 231 436 231 z "},"ȭ":{"ha":942,"x_min":29,"x_max":913,"o":"m 471 -14 q 242 37 342 -14 q 86 176 143 88 q 29 381 29 265 q 86 585 29 496 q 242 724 143 674 q 471 774 342 774 q 700 724 600 774 q 856 585 800 674 q 913 381 913 496 q 856 176 913 265 q 700 37 800 88 q 471 -14 600 -14 m 471 231 q 533 247 506 231 q 578 298 561 264 q 594 381 594 332 q 578 463 594 431 q 533 513 561 496 q 471 529 506 529 q 408 513 436 529 q 364 463 381 496 q 347 381 347 431 q 364 298 347 332 q 408 247 381 264 q 471 231 436 231 z "},"œ":{"ha":1475,"x_min":29,"x_max":1446,"o":"m 465 -14 q 242 37 340 -14 q 86 176 143 88 q 29 381 29 265 q 86 585 29 496 q 242 724 143 674 q 465 774 340 774 q 681 724 590 774 q 819 585 771 674 q 868 381 868 496 q 819 176 868 265 q 681 37 771 88 q 465 -14 590 -14 m 471 231 q 533 247 506 231 q 578 298 561 264 q 594 381 594 332 q 578 463 594 431 q 533 513 561 496 q 471 529 506 529 q 408 513 436 529 q 364 463 381 496 q 347 381 347 431 q 364 298 347 332 q 408 247 381 264 q 471 231 436 231 m 1056 -14 q 822 38 919 -14 q 674 178 725 89 q 622 381 622 268 q 673 585 622 496 q 815 724 724 674 q 1026 774 907 774 q 1233 729 1138 774 q 1387 598 1328 685 q 1446 385 1446 511 q 1444 343 1446 363 q 1440 307 1443 324 l 883 307 l 883 458 l 1207 458 l 1151 418 q 1137 494 1151 463 q 1094 542 1122 525 q 1026 560 1067 560 q 958 542 988 560 q 914 494 929 525 q 899 418 899 463 l 899 371 q 917 288 899 322 q 974 235 936 253 q 1064 218 1011 218 q 1145 232 1110 218 q 1219 274 1181 246 l 1388 108 q 1244 17 1331 49 q 1056 -14 1158 -14 z "},"p":{"ha":972,"x_min":69,"x_max":943,"o":"m 576 -14 q 413 28 478 -14 q 318 158 349 71 q 288 379 288 244 q 316 603 288 517 q 408 732 344 690 q 576 774 472 774 q 760 726 676 774 q 893 590 843 678 q 943 379 943 501 q 893 169 943 257 q 760 33 843 81 q 576 -14 676 -14 m 69 -269 l 69 760 l 368 760 l 368 657 l 369 379 l 383 101 l 383 -269 l 69 -269 m 501 231 q 564 247 536 231 q 608 297 592 264 q 625 379 625 331 q 608 463 625 429 q 564 513 592 496 q 501 529 536 529 q 439 513 467 529 q 394 463 411 496 q 378 379 378 429 q 394 297 378 331 q 439 247 411 264 q 501 231 467 231 z "},"þ":{"ha":972,"x_min":69,"x_max":943,"o":"m 578 -14 q 413 28 478 -14 q 318 158 349 71 q 288 379 288 244 q 316 603 288 517 q 408 732 344 690 q 576 774 472 774 q 760 726 676 774 q 893 590 843 678 q 943 379 943 501 q 893 169 943 257 q 760 33 843 81 q 578 -14 676 -14 m 69 -269 l 69 1031 l 383 1031 l 383 657 l 369 379 l 383 101 l 383 -269 l 69 -269 m 501 231 q 564 247 536 231 q 608 297 592 264 q 625 379 625 331 q 608 463 625 429 q 564 513 592 496 q 501 529 536 529 q 439 513 467 529 q 394 463 411 496 q 378 379 378 429 q 394 297 378 331 q 439 247 411 264 q 501 231 467 231 z "},"q":{"ha":972,"x_min":29,"x_max":903,"o":"m 396 -14 q 213 33 297 -14 q 79 169 129 81 q 29 379 29 257 q 79 590 29 501 q 213 726 129 678 q 396 774 297 774 q 565 732 501 774 q 656 603 628 690 q 685 379 685 517 q 654 158 685 244 q 560 28 624 71 q 396 -14 496 -14 m 471 231 q 533 247 506 231 q 578 297 561 264 q 594 379 594 331 q 578 463 594 429 q 533 513 561 496 q 471 529 506 529 q 408 513 436 529 q 364 463 381 496 q 347 379 347 429 q 364 297 347 331 q 408 247 381 264 q 471 231 436 231 m 589 -269 l 589 101 l 603 379 l 604 657 l 604 760 l 903 760 l 903 -269 l 589 -269 z "},"r":{"ha":633,"x_min":69,"x_max":614,"o":"m 69 0 l 69 760 l 368 760 l 368 531 l 319 596 q 431 729 354 685 q 614 774 507 774 l 614 496 q 577 500 593 499 q 544 501 561 501 q 428 465 474 501 q 383 338 383 428 l 383 0 l 69 0 z "},"ŕ":{"ha":633,"x_min":69,"x_max":676,"o":"m 69 0 l 69 760 l 368 760 l 368 531 l 319 596 q 431 729 354 685 q 614 774 507 774 l 614 496 q 577 500 593 499 q 544 501 561 501 q 428 465 474 501 q 383 338 383 428 l 383 0 l 69 0 m 194 843 l 378 1065 l 676 1065 l 403 843 l 194 843 z "},"ř":{"ha":633,"x_min":29,"x_max":651,"o":"m 69 0 l 69 760 l 368 760 l 368 531 l 319 596 q 431 729 354 685 q 614 774 507 774 l 614 496 q 577 500 593 499 q 544 501 561 501 q 428 465 474 501 q 383 338 383 428 l 383 0 l 69 0 m 207 843 l 29 1065 l 224 1065 l 421 885 l 260 885 l 457 1065 l 651 1065 l 474 843 l 207 843 z "},"ŗ":{"ha":633,"x_min":69,"x_max":614,"o":"m 69 0 l 69 760 l 368 760 l 368 531 l 319 596 q 431 729 354 685 q 614 774 507 774 l 614 496 q 577 500 593 499 q 544 501 561 501 q 428 465 474 501 q 383 338 383 428 l 383 0 l 69 0 m 125 -375 l 192 -174 l 226 -275 q 133 -248 164 -275 q 101 -174 101 -221 q 135 -98 101 -126 q 226 -69 168 -69 q 318 -98 285 -69 q 351 -174 351 -126 q 345 -220 351 -193 q 317 -285 339 -247 l 263 -375 l 125 -375 z "},"ȑ":{"ha":633,"x_min":-61,"x_max":614,"o":"m 69 0 l 69 760 l 368 760 l 368 531 l 319 596 q 431 729 354 685 q 614 774 507 774 l 614 496 q 577 500 593 499 q 544 501 561 501 q 428 465 474 501 q 383 338 383 428 l 383 0 l 69 0 m 399 843 l 264 1065 l 535 1065 l 607 843 l 399 843 m 74 843 l -61 1065 l 210 1065 l 282 843 l 74 843 z "},"ṛ":{"ha":633,"x_min":69,"x_max":614,"o":"m 69 0 l 69 760 l 368 760 l 368 531 l 319 596 q 431 729 354 685 q 614 774 507 774 l 614 496 q 577 500 593 499 q 544 501 561 501 q 428 465 474 501 q 383 338 383 428 l 383 0 l 69 0 m 226 -314 q 138 -281 174 -314 q 101 -193 101 -249 q 138 -103 101 -137 q 226 -69 174 -69 q 315 -103 279 -69 q 351 -193 351 -137 q 315 -281 351 -249 q 226 -314 279 -314 z "},"ȓ":{"ha":633,"x_min":50,"x_max":631,"o":"m 69 0 l 69 760 l 368 760 l 368 531 l 319 596 q 431 729 354 685 q 614 774 507 774 l 614 496 q 577 500 593 499 q 544 501 561 501 q 428 465 474 501 q 383 338 383 428 l 383 0 l 69 0 m 50 843 q 135 1016 56 953 q 340 1079 215 1079 q 545 1016 465 1079 q 631 843 625 953 l 443 843 q 412 905 440 882 q 340 928 383 928 q 269 905 297 928 q 238 843 240 882 l 50 843 z "},"ṟ":{"ha":633,"x_min":-65,"x_max":614,"o":"m 69 0 l 69 760 l 368 760 l 368 531 l 319 596 q 431 729 354 685 q 614 774 507 774 l 614 496 q 577 500 593 499 q 544 501 561 501 q 428 465 474 501 q 383 338 383 428 l 383 0 l 69 0 m -65 -267 l -65 -103 l 518 -103 l 518 -267 l -65 -267 z "},"s":{"ha":785,"x_min":22,"x_max":760,"o":"m 367 -14 q 175 7 269 -14 q 22 61 81 28 l 108 268 q 234 218 163 236 q 374 200 306 200 q 451 210 431 200 q 471 236 471 219 q 447 260 471 253 q 385 272 424 268 q 299 283 346 276 q 206 301 253 289 q 119 339 158 314 q 57 406 81 364 q 33 514 33 449 q 77 644 33 586 q 208 738 121 703 q 422 774 294 774 q 589 758 506 774 q 732 711 672 743 l 646 504 q 531 548 588 536 q 426 560 475 560 q 345 549 367 560 q 324 524 324 538 q 347 499 324 507 q 410 486 371 490 q 495 476 449 482 q 588 456 542 469 q 674 418 635 443 q 736 351 713 393 q 760 243 760 308 q 717 116 760 175 q 586 22 674 57 q 367 -14 499 -14 z "},"ś":{"ha":785,"x_min":22,"x_max":760,"o":"m 367 -14 q 175 7 269 -14 q 22 61 81 28 l 108 268 q 234 218 163 236 q 374 200 306 200 q 451 210 431 200 q 471 236 471 219 q 447 260 471 253 q 385 272 424 268 q 299 283 346 276 q 206 301 253 289 q 119 339 158 314 q 57 406 81 364 q 33 514 33 449 q 77 644 33 586 q 208 738 121 703 q 422 774 294 774 q 589 758 506 774 q 732 711 672 743 l 646 504 q 531 548 588 536 q 426 560 475 560 q 345 549 367 560 q 324 524 324 538 q 347 499 324 507 q 410 486 371 490 q 495 476 449 482 q 588 456 542 469 q 674 418 635 443 q 736 351 713 393 q 760 243 760 308 q 717 116 760 175 q 586 22 674 57 q 367 -14 499 -14 m 238 843 l 421 1065 l 719 1065 l 446 843 l 238 843 z "},"ṥ":{"ha":785,"x_min":22,"x_max":760,"o":"m 367 -14 q 175 7 269 -14 q 22 61 81 28 l 108 268 q 234 218 163 236 q 374 200 306 200 q 451 210 431 200 q 471 236 471 219 q 447 260 471 253 q 385 272 424 268 q 299 283 346 276 q 206 301 253 289 q 119 339 158 314 q 57 406 81 364 q 33 514 33 449 q 77 644 33 586 q 208 738 121 703 q 422 774 294 774 q 589 758 506 774 q 732 711 672 743 l 646 504 q 531 548 588 536 q 426 560 475 560 q 345 549 367 560 q 324 524 324 538 q 347 499 324 507 q 410 486 371 490 q 495 476 449 482 q 588 456 542 469 q 674 418 635 443 q 736 351 713 393 q 760 243 760 308 q 717 116 760 175 q 586 22 674 57 q 367 -14 499 -14 z "},"ꞌ":{"ha":464,"x_min":76,"x_max":388,"o":"m 76 411 l 76 974 l 388 974 l 346 411 l 76 411 z "},"š":{"ha":785,"x_min":22,"x_max":760,"o":"m 367 -14 q 175 7 269 -14 q 22 61 81 28 l 108 268 q 234 218 163 236 q 374 200 306 200 q 451 210 431 200 q 471 236 471 219 q 447 260 471 253 q 385 272 424 268 q 299 283 346 276 q 206 301 253 289 q 119 339 158 314 q 57 406 81 364 q 33 514 33 449 q 77 644 33 586 q 208 738 121 703 q 422 774 294 774 q 589 758 506 774 q 732 711 672 743 l 646 504 q 531 548 588 536 q 426 560 475 560 q 345 549 367 560 q 324 524 324 538 q 347 499 324 507 q 410 486 371 490 q 495 476 449 482 q 588 456 542 469 q 674 418 635 443 q 736 351 713 393 q 760 243 760 308 q 717 116 760 175 q 586 22 674 57 q 367 -14 499 -14 m 250 843 l 72 1065 l 267 1065 l 464 885 l 303 885 l 500 1065 l 694 1065 l 517 843 l 250 843 z "},"ṧ":{"ha":785,"x_min":22,"x_max":760,"o":"m 367 -14 q 175 7 269 -14 q 22 61 81 28 l 108 268 q 234 218 163 236 q 374 200 306 200 q 451 210 431 200 q 471 236 471 219 q 447 260 471 253 q 385 272 424 268 q 299 283 346 276 q 206 301 253 289 q 119 339 158 314 q 57 406 81 364 q 33 514 33 449 q 77 644 33 586 q 208 738 121 703 q 422 774 294 774 q 589 758 506 774 q 732 711 672 743 l 646 504 q 531 548 588 536 q 426 560 475 560 q 345 549 367 560 q 324 524 324 538 q 347 499 324 507 q 410 486 371 490 q 495 476 449 482 q 588 456 542 469 q 674 418 635 443 q 736 351 713 393 q 760 243 760 308 q 717 116 760 175 q 586 22 674 57 q 367 -14 499 -14 z "},"ş":{"ha":785,"x_min":22,"x_max":760,"o":"m 367 -14 q 175 7 269 -14 q 22 61 81 28 l 108 268 q 234 218 163 236 q 374 200 306 200 q 451 210 431 200 q 471 236 471 219 q 447 260 471 253 q 385 272 424 268 q 299 283 346 276 q 206 301 253 289 q 119 339 158 314 q 57 406 81 364 q 33 514 33 449 q 77 644 33 586 q 208 738 121 703 q 422 774 294 774 q 589 758 506 774 q 732 711 672 743 l 646 504 q 531 548 588 536 q 426 560 475 560 q 345 549 367 560 q 324 524 324 538 q 347 499 324 507 q 410 486 371 490 q 495 476 449 482 q 588 456 542 469 q 674 418 635 443 q 736 351 713 393 q 760 243 760 308 q 717 116 760 175 q 586 22 674 57 q 367 -14 499 -14 m 326 -333 q 253 -325 292 -333 q 190 -304 214 -317 l 229 -189 q 266 -200 244 -194 q 313 -206 288 -206 q 364 -196 349 -206 q 379 -172 379 -186 q 366 -152 379 -160 q 322 -144 353 -144 l 265 -144 l 303 14 l 464 14 l 444 -72 q 536 -114 510 -81 q 563 -183 563 -147 q 498 -293 563 -253 q 326 -333 433 -333 z "},"ŝ":{"ha":785,"x_min":22,"x_max":760,"o":"m 367 -14 q 175 7 269 -14 q 22 61 81 28 l 108 268 q 234 218 163 236 q 374 200 306 200 q 451 210 431 200 q 471 236 471 219 q 447 260 471 253 q 385 272 424 268 q 299 283 346 276 q 206 301 253 289 q 119 339 158 314 q 57 406 81 364 q 33 514 33 449 q 77 644 33 586 q 208 738 121 703 q 422 774 294 774 q 589 758 506 774 q 732 711 672 743 l 646 504 q 531 548 588 536 q 426 560 475 560 q 345 549 367 560 q 324 524 324 538 q 347 499 324 507 q 410 486 371 490 q 495 476 449 482 q 588 456 542 469 q 674 418 635 443 q 736 351 713 393 q 760 243 760 308 q 717 116 760 175 q 586 22 674 57 q 367 -14 499 -14 m 72 843 l 250 1065 l 517 1065 l 694 843 l 500 843 l 303 1024 l 464 1024 l 267 843 l 72 843 z "},"ș":{"ha":785,"x_min":22,"x_max":760,"o":"m 367 -14 q 175 7 269 -14 q 22 61 81 28 l 108 268 q 234 218 163 236 q 374 200 306 200 q 451 210 431 200 q 471 236 471 219 q 447 260 471 253 q 385 272 424 268 q 299 283 346 276 q 206 301 253 289 q 119 339 158 314 q 57 406 81 364 q 33 514 33 449 q 77 644 33 586 q 208 738 121 703 q 422 774 294 774 q 589 758 506 774 q 732 711 672 743 l 646 504 q 531 548 588 536 q 426 560 475 560 q 345 549 367 560 q 324 524 324 538 q 347 499 324 507 q 410 486 371 490 q 495 476 449 482 q 588 456 542 469 q 674 418 635 443 q 736 351 713 393 q 760 243 760 308 q 717 116 760 175 q 586 22 674 57 q 367 -14 499 -14 m 282 -375 l 349 -174 l 383 -275 q 290 -248 321 -275 q 258 -174 258 -221 q 292 -98 258 -126 q 383 -69 325 -69 q 475 -98 442 -69 q 508 -174 508 -126 q 502 -220 508 -193 q 474 -285 496 -247 l 419 -375 l 282 -375 z "},"ṡ":{"ha":785,"x_min":22,"x_max":760,"o":"m 367 -14 q 175 7 269 -14 q 22 61 81 28 l 108 268 q 234 218 163 236 q 374 200 306 200 q 451 210 431 200 q 471 236 471 219 q 447 260 471 253 q 385 272 424 268 q 299 283 346 276 q 206 301 253 289 q 119 339 158 314 q 57 406 81 364 q 33 514 33 449 q 77 644 33 586 q 208 738 121 703 q 422 774 294 774 q 589 758 506 774 q 732 711 672 743 l 646 504 q 531 548 588 536 q 426 560 475 560 q 345 549 367 560 q 324 524 324 538 q 347 499 324 507 q 410 486 371 490 q 495 476 449 482 q 588 456 542 469 q 674 418 635 443 q 736 351 713 393 q 760 243 760 308 q 717 116 760 175 q 586 22 674 57 q 367 -14 499 -14 m 383 829 q 269 874 314 829 q 225 988 225 918 q 269 1101 225 1057 q 383 1146 314 1146 q 497 1101 453 1146 q 542 988 542 1057 q 497 874 542 918 q 383 829 453 829 z "},"ṣ":{"ha":785,"x_min":22,"x_max":760,"o":"m 367 -14 q 175 7 269 -14 q 22 61 81 28 l 108 268 q 234 218 163 236 q 374 200 306 200 q 451 210 431 200 q 471 236 471 219 q 447 260 471 253 q 385 272 424 268 q 299 283 346 276 q 206 301 253 289 q 119 339 158 314 q 57 406 81 364 q 33 514 33 449 q 77 644 33 586 q 208 738 121 703 q 422 774 294 774 q 589 758 506 774 q 732 711 672 743 l 646 504 q 531 548 588 536 q 426 560 475 560 q 345 549 367 560 q 324 524 324 538 q 347 499 324 507 q 410 486 371 490 q 495 476 449 482 q 588 456 542 469 q 674 418 635 443 q 736 351 713 393 q 760 243 760 308 q 717 116 760 175 q 586 22 674 57 q 367 -14 499 -14 m 383 -314 q 294 -281 331 -314 q 258 -193 258 -249 q 294 -103 258 -137 q 383 -69 331 -69 q 472 -103 436 -69 q 508 -193 508 -137 q 472 -281 508 -249 q 383 -314 436 -314 z "},"ṩ":{"ha":785,"x_min":22,"x_max":760,"o":"m 367 -14 q 175 7 269 -14 q 22 61 81 28 l 108 268 q 234 218 163 236 q 374 200 306 200 q 451 210 431 200 q 471 236 471 219 q 447 260 471 253 q 385 272 424 268 q 299 283 346 276 q 206 301 253 289 q 119 339 158 314 q 57 406 81 364 q 33 514 33 449 q 77 644 33 586 q 208 738 121 703 q 422 774 294 774 q 589 758 506 774 q 732 711 672 743 l 646 504 q 531 548 588 536 q 426 560 475 560 q 345 549 367 560 q 324 524 324 538 q 347 499 324 507 q 410 486 371 490 q 495 476 449 482 q 588 456 542 469 q 674 418 635 443 q 736 351 713 393 q 760 243 760 308 q 717 116 760 175 q 586 22 674 57 q 367 -14 499 -14 m 383 -314 q 294 -281 331 -314 q 258 -193 258 -249 q 294 -103 258 -137 q 383 -69 331 -69 q 472 -103 436 -69 q 508 -193 508 -137 q 472 -281 508 -249 q 383 -314 436 -314 m 383 829 q 269 874 314 829 q 225 988 225 918 q 269 1101 225 1057 q 383 1146 314 1146 q 497 1101 453 1146 q 542 988 542 1057 q 497 874 542 918 q 383 829 453 829 z "},"ß":{"ha":992,"x_min":69,"x_max":963,"o":"m 597 -14 q 505 -8 554 -14 q 428 8 456 -1 l 458 247 q 503 235 481 239 q 550 231 525 231 q 599 239 578 231 q 632 264 619 247 q 644 304 644 281 q 618 358 644 340 q 539 376 592 376 l 467 376 l 467 613 q 544 641 515 615 q 574 710 574 667 q 549 777 574 751 q 483 803 524 803 q 410 776 438 803 q 383 699 383 749 l 383 0 l 69 0 l 69 656 q 126 870 69 783 q 276 1001 182 957 q 482 1044 371 1044 q 696 1003 608 1044 q 829 894 783 963 q 875 740 875 825 q 844 620 875 674 q 759 529 813 567 q 639 472 706 492 q 503 451 572 451 l 572 585 q 783 551 696 585 q 916 453 869 518 q 963 296 963 389 q 917 129 963 199 q 790 23 872 60 q 597 -14 708 -14 z "}}}
